<svg width="24" height="29" viewBox="0 0 24 29" fill="none" xmlns="http://www.w3.org/2000/svg">
<path d="M11.6551 13.6654C13.5324 13.6654 15.1579 12.9921 16.4864 11.6636C17.8144 10.3353 18.488 8.71006 18.488 6.83248C18.488 4.95554 17.8146 3.3301 16.4861 2.00139C15.1576 0.673335 13.5322 0 11.6551 0C9.77746 0 8.15224 0.673335 6.82397 2.00161C5.49569 3.32988 4.82214 4.95532 4.82214 6.83248C4.82214 8.71006 5.49569 10.3355 6.82397 11.6638C8.15267 12.9918 9.77811 13.6654 11.6551 13.6654ZM7.99965 3.17708C9.01885 2.15787 10.2144 1.66245 11.6551 1.66245C13.0954 1.66245 14.2913 2.15787 15.3107 3.17708C16.3299 4.19649 16.8255 5.39231 16.8255 6.83248C16.8255 8.27308 16.3299 9.46868 15.3107 10.4881C14.2913 11.5075 13.0954 12.0029 11.6551 12.0029C10.2149 12.0029 9.01929 11.5073 7.99965 10.4881C6.98023 9.46889 6.48459 8.27308 6.48459 6.83248C6.48459 5.39231 6.98023 4.19649 7.99965 3.17708Z" fill="black"/>
<path d="M23.6109 21.8142C23.5726 21.2615 23.4951 20.6585 23.381 20.0217C23.2659 19.3802 23.1176 18.7737 22.9401 18.2194C22.7566 17.6465 22.5075 17.0808 22.1991 16.5386C21.8794 15.9759 21.5036 15.4859 21.082 15.0826C20.6411 14.6608 20.1013 14.3216 19.4771 14.0743C18.8551 13.8282 18.1658 13.7035 17.4284 13.7035C17.1388 13.7035 16.8587 13.8223 16.3178 14.1745C15.9849 14.3915 15.5956 14.6426 15.161 14.9203C14.7893 15.1571 14.2859 15.3789 13.6641 15.5798C13.0574 15.7761 12.4414 15.8757 11.8332 15.8757C11.2255 15.8757 10.6095 15.7761 10.0024 15.5798C9.38123 15.3791 8.87759 15.1573 8.50661 14.9205C8.07612 14.6454 7.68653 14.3944 7.34868 14.1742C6.80823 13.8221 6.52817 13.7033 6.23857 13.7033C5.50096 13.7033 4.81182 13.8282 4.19 14.0745C3.56623 14.3214 3.02622 14.6606 2.5849 15.0828C2.16329 15.4863 1.78755 15.9761 1.46809 16.5386C1.1601 17.0808 0.910766 17.6463 0.727227 18.2197C0.549966 18.774 0.401707 19.3802 0.286562 20.0217C0.172284 20.6576 0.0950157 21.2608 0.0567065 21.8149C0.0190464 22.3566 0 22.9205 0 23.4901C0 24.971 0.47075 26.1698 1.39905 27.054C2.31587 27.9264 3.52878 28.3688 5.00423 28.3688H18.664C20.139 28.3688 21.3519 27.9264 22.269 27.054C23.1975 26.1705 23.6682 24.9712 23.6682 23.4899C23.668 22.9183 23.6487 22.3545 23.6109 21.8142ZM21.1227 25.8495C20.5169 26.4261 19.7126 26.7064 18.6638 26.7064H5.00423C3.95517 26.7064 3.15089 26.4261 2.5453 25.8497C1.95118 25.2842 1.66245 24.5121 1.66245 23.4901C1.66245 22.9585 1.67998 22.4337 1.71504 21.9298C1.74924 21.4355 1.81915 20.8924 1.92282 20.3154C2.0252 19.7455 2.15549 19.2107 2.31046 18.7266C2.45915 18.2623 2.66196 17.8026 2.91346 17.3598C3.15348 16.9377 3.42966 16.5756 3.7344 16.2839C4.01945 16.0109 4.37873 15.7876 4.80208 15.62C5.19362 15.4651 5.63363 15.3802 6.11131 15.3675C6.16953 15.3984 6.2732 15.4575 6.44116 15.567C6.78291 15.7897 7.17683 16.0438 7.6123 16.3219C8.10318 16.6349 8.7356 16.9176 9.49118 17.1615C10.2636 17.4113 11.0515 17.5381 11.8335 17.5381C12.6154 17.5381 13.4035 17.4113 14.1755 17.1617C14.9318 16.9174 15.564 16.6349 16.0555 16.3215C16.5011 16.0367 16.884 15.7899 17.2258 15.567C17.3937 15.4577 17.4974 15.3984 17.5556 15.3675C18.0335 15.3802 18.4735 15.4651 18.8653 15.62C19.2884 15.7876 19.6477 16.0111 19.9327 16.2839C20.2375 16.5754 20.5137 16.9375 20.7537 17.36C21.0054 17.8026 21.2084 18.2625 21.3569 18.7263C21.5121 19.2112 21.6426 19.7458 21.7448 20.3152C21.8482 20.8933 21.9183 21.4366 21.9525 21.93V21.9305C21.9878 22.4324 22.0056 22.957 22.0058 23.4901C22.0056 24.5123 21.7168 25.2842 21.1227 25.8495Z" fill="black"/>
</svg>
