<svg width="27" height="27" viewBox="0 0 27 27" fill="none" xmlns="http://www.w3.org/2000/svg">
<path d="M26.2729 24.5927L19.8635 17.9093C21.5114 15.9452 22.4144 13.4739 22.4144 10.9012C22.4144 4.89039 17.5366 0 11.5413 0C5.54597 0 0.668213 4.89039 0.668213 10.9012C0.668213 16.9121 5.54597 21.8025 11.5413 21.8025C13.792 21.8025 15.9369 21.1219 17.7706 19.8298L24.2288 26.564C24.4987 26.845 24.8618 27 25.2508 27C25.6191 27 25.9685 26.8592 26.2337 26.6033C26.7972 26.0597 26.8151 25.1582 26.2729 24.5927ZM11.5413 2.8438C15.9728 2.8438 19.5779 6.45827 19.5779 10.9012C19.5779 15.3442 15.9728 18.9587 11.5413 18.9587C7.1098 18.9587 3.50467 15.3442 3.50467 10.9012C3.50467 6.45827 7.1098 2.8438 11.5413 2.8438Z" fill="black"/>
</svg>
