<svg width="22" height="29" viewBox="0 0 22 29" fill="none" xmlns="http://www.w3.org/2000/svg">
<path d="M21.4257 24.5018L19.9168 7.89894C19.8743 7.44149 19.4913 7.0922 19.0321 7.0922H16.3725V5.31915C16.3725 3.89362 15.8211 2.55497 14.8193 1.55319C13.8175 0.551419 12.4789 0 11.0534 0C8.12074 0 5.73421 2.38653 5.73421 5.31915V7.0922H3.07464C2.61542 7.0922 2.23244 7.44149 2.19166 7.89894L0.682792 24.5018C0.592366 25.4911 0.9257 26.4805 1.59591 27.2145C2.26613 27.9486 3.22003 28.3688 4.21471 28.3688H17.8938C18.8885 28.3688 19.8424 27.9486 20.5126 27.2145C21.1828 26.4805 21.5144 25.4911 21.4257 24.5018ZM7.50726 5.31915C7.50726 3.36348 9.09769 1.77305 11.0534 1.77305C12.0055 1.77305 12.8973 2.14007 13.5658 2.80674C14.2342 3.4734 14.5995 4.36702 14.5995 5.31915V7.0922H7.50726V5.31915ZM19.2023 26.0195C18.8619 26.3901 18.3973 26.5957 17.892 26.5957H4.21471C3.71116 26.5957 3.24485 26.3901 2.9062 26.0177C2.56577 25.6454 2.40442 25.1649 2.45052 24.6614L3.88492 8.86525H5.73421V11.5248C5.73421 12.0142 6.13138 12.4113 6.62074 12.4113C7.1101 12.4113 7.50726 12.0142 7.50726 11.5248V8.86525H14.5995V11.5248C14.5995 12.0142 14.9966 12.4113 15.486 12.4113C15.9753 12.4113 16.3725 12.0142 16.3725 11.5248V8.86525H18.2218L19.658 24.6631C19.7041 25.1649 19.5427 25.6472 19.2023 26.0195Z" fill="black"/>
</svg>
