<svg id="Layer_1" data-name="Layer 1" xmlns="http://www.w3.org/2000/svg" viewBox="0 0 391.15 138.61"><defs><style>.cls-1{fill:#ef4e23;}.cls-2{fill:#002b30;}</style></defs><title>EC manager logo on white</title><path class="cls-1" d="M38.44,89.52,24.53,71.44,4.57,89l25.57,25.58,9.63,9.64S88,37.42,175.66,25.75c4.23-.58,10.56-1.53,10.56-1.53S104.85,19,38.44,89.52Z" transform="translate(-4.57 -24.13)"/><path class="cls-2" d="M21.68,145.3A13.34,13.34,0,1,1,35,132,13.36,13.36,0,0,1,21.68,145.3Zm0-24.2A10.86,10.86,0,1,0,32.54,132,10.87,10.87,0,0,0,21.68,121.1Z" transform="translate(-4.57 -24.13)"/><path class="cls-2" d="M22.85,138.28a7.49,7.49,0,1,1,7.48-7.48A7.49,7.49,0,0,1,22.85,138.28Zm0-13.31a5.83,5.83,0,1,0,5.82,5.83A5.83,5.83,0,0,0,22.85,125Z" transform="translate(-4.57 -24.13)"/><path class="cls-2" d="M56,145.3A13.34,13.34,0,1,1,69.34,132,13.35,13.35,0,0,1,56,145.3Zm0-24.2A10.86,10.86,0,1,0,66.85,132,10.87,10.87,0,0,0,56,121.1Z" transform="translate(-4.57 -24.13)"/><path class="cls-2" d="M54.83,138.28a7.49,7.49,0,1,1,7.49-7.48A7.49,7.49,0,0,1,54.83,138.28Zm0-13.31a5.83,5.83,0,1,0,5.83,5.83A5.83,5.83,0,0,0,54.83,125Z" transform="translate(-4.57 -24.13)"/><path class="cls-1" d="M138,145.75H109.74V108.08H138V115H116.79v8.66h20.4v6.62h-20.4v8.51H138Z" transform="translate(-4.57 -24.13)"/><path class="cls-1" d="M138.36,146.17h-29v-38.5h29v7.71H117.21v7.84h20.4v7.45h-20.4v7.67h21.15Zm-28.2-.83h27.37v-6.17H116.38v-9.33h20.4v-5.79h-20.4v-9.49h21.15v-6.07H110.16Z" transform="translate(-4.57 -24.13)"/><path class="cls-1" d="M165.71,142.36a13.64,13.64,0,0,1-10.22,4.2c-7.7,0-14.1-4.63-14.1-14.05s6.4-14,14.1-14a12.59,12.59,0,0,1,9.58,3.93l-4.15,4.36a8.06,8.06,0,0,0-5.33-2.1,7.46,7.46,0,0,0-7.64,7.85c0,5.06,3.45,7.75,7.54,7.75a8,8,0,0,0,5.81-2.2Z" transform="translate(-4.57 -24.13)"/><path class="cls-1" d="M155.49,147c-8.82,0-14.52-5.68-14.52-14.47s5.7-14.46,14.52-14.46a13,13,0,0,1,9.87,4l.29.29-4.71,4.94-.3-.27a7.71,7.71,0,0,0-5-2c-4.25,0-7.23,3.06-7.23,7.44,0,5.07,3.58,7.34,7.13,7.34a7.48,7.48,0,0,0,5.52-2.09l.28-.28,5,4.88-.3.3A14,14,0,0,1,155.49,147Zm0-28.1c-8.32,0-13.69,5.35-13.69,13.63s5.37,13.64,13.69,13.64a13.16,13.16,0,0,0,9.63-3.79l-3.83-3.73a8.48,8.48,0,0,1-5.8,2.05c-4,0-8-2.53-8-8.17a7.9,7.9,0,0,1,8.05-8.27,8.52,8.52,0,0,1,5.3,2l3.59-3.78A12.14,12.14,0,0,0,155.49,118.88Z" transform="translate(-4.57 -24.13)"/><path class="cls-2" d="M201.93,118.47l-12.27,16.36h-1.4l-12-16.42v27.4h-7.11V108.13h8.18l11.79,16.2,11.78-16.2H209v37.68h-7.1Z" transform="translate(-4.57 -24.13)"/><path class="cls-2" d="M209.45,146.22h-7.94V119.71l-11.65,15.53h-1.81l-11.38-15.56v26.54h-7.93v-38.5h8.8l11.58,15.91,11.57-15.91h8.76Zm-7.11-.83h6.28V108.55h-7.5l-12,16.49-12-16.49h-7.56v36.84h6.28V117.15l12.63,17.26h1l12.89-17.18Z" transform="translate(-4.57 -24.13)"/><path class="cls-2" d="M236.8,119.22h6.29v26.53H236.9l-.32-3.87c-1.51,3.12-5.65,4.63-8.61,4.68-7.86.06-13.67-4.79-13.67-14.1,0-9.15,6.08-13.94,13.83-13.89,3.55,0,6.94,1.67,8.45,4.31Zm-15.94,13.24c0,5.06,3.5,8.07,7.86,8.07,10.34,0,10.34-16.09,0-16.09C224.36,124.44,220.86,127.4,220.86,132.46Z" transform="translate(-4.57 -24.13)"/><path class="cls-2" d="M227.84,147a13.85,13.85,0,0,1-10-3.75c-2.57-2.55-3.92-6.27-3.92-10.77,0-4.31,1.34-7.93,3.89-10.46A14.3,14.3,0,0,1,228,118.16h.12a10.51,10.51,0,0,1,8.11,3.5l.17-2.85h7.1v27.36h-7l-.25-3c-1.85,2.45-5.39,3.76-8.29,3.82Zm.17-28a13.46,13.46,0,0,0-9.65,3.6c-2.39,2.37-3.65,5.78-3.65,9.87,0,4.27,1.28,7.79,3.68,10.18a13,13,0,0,0,9.45,3.51H228c3.05-.06,6.86-1.6,8.24-4.45l.66-1.37.41,5h5.4V119.63h-5.49l-.28,4.66-.69-1.2C234.81,120.61,231.5,119,228,119Zm.71,22c-4.87,0-8.27-3.49-8.27-8.49s3.4-8.43,8.27-8.43c5.61,0,8.17,4.38,8.17,8.46a8.93,8.93,0,0,1-2,5.8A7.79,7.79,0,0,1,228.72,141Zm0-16.09c-4.45,0-7.44,3-7.44,7.6s3.06,7.66,7.44,7.66a7,7,0,0,0,5.5-2.37,8,8,0,0,0,1.84-5.26C236.06,128.81,233.76,124.86,228.72,124.86Z" transform="translate(-4.57 -24.13)"/><path class="cls-2" d="M268.17,145.75V131.87c0-4-2.21-7.11-6.41-7.11-4,0-6.78,3.4-6.78,7.43v13.56h-6.51V119.17h5.87l.43,3.6c2.69-2.63,5.38-4,8.72-4,6.24,0,11.24,4.68,11.24,13v13.93Z" transform="translate(-4.57 -24.13)"/><path class="cls-2" d="M275.15,146.17h-7.4v-14.3c0-4.13-2.29-6.69-6-6.69s-6.36,3-6.36,7v14h-7.34V118.75h6.64l.38,3.16a11.91,11.91,0,0,1,8.41-3.53c7,0,11.66,5.4,11.66,13.43Zm-6.57-.83h5.74V131.81c0-7.54-4.35-12.61-10.83-12.61-3.11,0-5.71,1.2-8.43,3.87l-.6.59-.49-4.08h-5.09v25.76h5.69V132.19c0-4.47,3.09-7.84,7.19-7.84s6.82,3,6.82,7.52Z" transform="translate(-4.57 -24.13)"/><path class="cls-2" d="M301.42,119.22h6.3v26.53h-6.19l-.32-3.87c-1.51,3.12-5.65,4.63-8.61,4.68-7.86.06-13.67-4.79-13.67-14.1,0-9.15,6.08-13.94,13.83-13.89,3.55,0,6.94,1.67,8.45,4.31Zm-15.93,13.24c0,5.06,3.5,8.07,7.86,8.07,10.33,0,10.33-16.09,0-16.09C289,124.44,285.49,127.4,285.49,132.46Z" transform="translate(-4.57 -24.13)"/><path class="cls-2" d="M292.47,147a13.85,13.85,0,0,1-10-3.75c-2.57-2.55-3.93-6.27-3.93-10.77,0-4.31,1.35-7.93,3.9-10.46a14.28,14.28,0,0,1,10.22-3.84h.13a10.52,10.52,0,0,1,8.11,3.5l.16-2.85h7.1v27.36h-7l-.25-3c-1.85,2.45-5.4,3.76-8.29,3.82Zm.17-28a13.46,13.46,0,0,0-9.65,3.6c-2.39,2.37-3.65,5.78-3.65,9.87,0,4.27,1.27,7.79,3.68,10.18a13,13,0,0,0,9.45,3.51h.13c3-.06,6.86-1.6,8.24-4.45l.66-1.37.41,5h5.4V119.63h-5.5l-.27,4.66-.69-1.2c-1.4-2.46-4.65-4.1-8.09-4.1Zm.71,22c-4.87,0-8.27-3.49-8.27-8.49s3.4-8.43,8.27-8.43c5.61,0,8.17,4.38,8.17,8.46a8.93,8.93,0,0,1-2,5.8A7.79,7.79,0,0,1,293.35,141Zm0-16.09c-4.45,0-7.44,3-7.44,7.6s3.06,7.66,7.44,7.66a7,7,0,0,0,5.5-2.37,8,8,0,0,0,1.84-5.26C300.69,128.81,298.39,124.86,293.35,124.86Z" transform="translate(-4.57 -24.13)"/><path class="cls-2" d="M334.09,116.53l4.84,3.66L336,124a11.28,11.28,0,0,1,2.8,7.86c0,3.28-1.24,7.91-5.6,9.9,4.42,2.2,5.49,5.38,5.49,8.77,0,7.32-5.59,11.84-13.29,11.84s-13.46-4.68-13.46-11.84h6.52c0,3.44,3.17,5.71,6.94,5.71s6.73-2,6.73-5.71-3.45-5.33-6.73-5.33c-8.29,0-13.46-5.06-13.46-13.34s6-13.46,13.46-13.46a10.55,10.55,0,0,1,6.08,1.51Zm-15.66,15.29c0,4.62,3.12,7.37,6.94,7.37s6.89-2.8,6.89-7.37-3.12-7.49-6.89-7.49S318.43,127.19,318.43,131.82Z" transform="translate(-4.57 -24.13)"/><path class="cls-2" d="M325.37,162.75c-8.17,0-13.87-5-13.87-12.26v-.41h7.34v.41c0,3,2.81,5.29,6.53,5.29s6.31-2.08,6.31-5.29c0-3.38-3.27-4.91-6.31-4.91-8.56,0-13.87-5.28-13.87-13.77A13.41,13.41,0,0,1,325.37,118a11.35,11.35,0,0,1,6,1.37L334,116l5.51,4.16-3,3.84a11.74,11.74,0,0,1,2.67,7.86c0,1.71-.38,7.26-5.11,9.92a9.26,9.26,0,0,1,5,8.76C339.08,157.82,333.57,162.75,325.37,162.75Zm-13-11.85c.22,6.51,5.52,11,13,11,7.7,0,12.88-4.59,12.88-11.43,0-4-1.62-6.58-5.26-8.4l-.77-.39.78-.36c5-2.27,5.36-7.86,5.36-9.53a11,11,0,0,0-2.7-7.58l-.23-.26,2.92-3.7-4.19-3.17-2.62,3.33-.32-.22a10.3,10.3,0,0,0-5.85-1.44c-7.68,0-13,5.37-13,13,0,8,5,12.94,13,12.94,3.44,0,7.14,1.79,7.14,5.74,0,3.66-2.87,6.12-7.14,6.12-4,0-7.1-2.43-7.34-5.71Zm13-11.3c-4.33,0-7.36-3.2-7.36-7.79s3.1-7.89,7.36-7.89,7.3,3.32,7.3,7.89S329.6,139.6,325.37,139.6Zm0-14.85c-3.85,0-6.53,2.9-6.53,7.06s2.68,7,6.53,7,6.47-2.86,6.47-7S329.12,124.75,325.37,124.75Z" transform="translate(-4.57 -24.13)"/><path class="cls-2" d="M348.56,134.83c.43,3.28,3.28,5.65,7.91,5.65,2.42,0,5.6-.91,7.11-2.48l4.19,4.15c-2.8,2.9-7.37,4.3-11.41,4.3-9.15,0-14.58-5.65-14.58-14.15,0-8.07,5.49-13.89,14.1-13.89,8.88,0,14.42,5.49,13.4,16.42ZM363,129.39c-.43-3.44-3.12-5.16-6.89-5.16-3.55,0-6.45,1.72-7.42,5.16Z" transform="translate(-4.57 -24.13)"/><path class="cls-2" d="M356.36,146.87c-9.25,0-15-5.58-15-14.57,0-8.55,5.83-14.3,14.51-14.3,4.49,0,8.13,1.4,10.54,4,2.65,2.92,3.79,7.35,3.27,12.83l0,.37H349.05c.63,3,3.43,4.83,7.42,4.83,2.2,0,5.34-.83,6.81-2.35l.29-.3,4.79,4.72-.29.3C365.44,145.17,361,146.87,356.36,146.87Zm-.48-28c-8.19,0-13.69,5.41-13.69,13.47,0,8.48,5.43,13.74,14.17,13.74a16,16,0,0,0,10.83-3.89l-3.62-3.57a11.78,11.78,0,0,1-7.1,2.31c-4.58,0-7.84-2.36-8.32-6l-.06-.47H368.9c.42-5.13-.62-9.1-3.09-11.81C363.56,120.13,360.13,118.83,355.88,118.83Zm7.57,11H348.12l.15-.53c1-3.42,3.89-5.47,7.82-5.47h0c4.2,0,6.86,2,7.3,5.53ZM349.23,129H362.5c-.56-2.77-2.86-4.34-6.41-4.34C352.71,124.64,350.24,126.21,349.23,129Z" transform="translate(-4.57 -24.13)"/><path class="cls-2" d="M380.42,119.22l.48,3.07c2.05-3.28,4.79-3.77,7.48-3.77a10.1,10.1,0,0,1,6.84,2.53l-3,5.71a6.54,6.54,0,0,0-4.74-1.73c-3.44,0-6.62,1.83-6.62,6.73v14h-6.57V119.22Z" transform="translate(-4.57 -24.13)"/><path class="cls-2" d="M381.32,146.17h-7.4V118.81h6.85l.38,2.4c2.11-2.71,4.82-3.1,7.23-3.1a10.51,10.51,0,0,1,7.13,2.65l.21.21-3.33,6.43-.4-.33a6.12,6.12,0,0,0-4.47-1.62c-1.87,0-6.2.61-6.2,6.31Zm-6.57-.83h5.74V131.76c0-4.47,2.63-7.14,7-7.14a6.77,6.77,0,0,1,4.6,1.5l2.59-5a9.83,9.83,0,0,0-6.33-2.2c-2.55,0-5.17.43-7.13,3.57l-.58.94-.61-3.82h-5.31Z" transform="translate(-4.57 -24.13)"/><path class="cls-2" d="M136.18,80.63a8,8,0,0,1-1.27,4Q131.3,90.55,122,90.55h-1.06a4.28,4.28,0,0,1-1.13-.08v15.11H109.29V69c0-2.91,1.62-5.16,4.88-6.76a21.53,21.53,0,0,1,17.28,0q4.73,2.4,4.73,6.76Zm-9.91-9.31q0-5.49-3.39-5.49c-2,0-3.08.88-3.08,2.63V85.14h.31c4.1,0,6.16-1.29,6.16-3.9Z" transform="translate(-4.57 -24.13)"/><path class="cls-2" d="M165.93,105.51H155.42V90q0-3.67-5.19-3.67h-.75v19.16H139V69q0-4.44,4.82-6.76a20.41,20.41,0,0,1,8.74-1.81,19.88,19.88,0,0,1,8.67,1.81q4.74,2.4,4.74,6.76v7.89c0,4.2-2.66,6.49-8,6.84,5.36.45,8,2.55,8,6.3Zm-10-28.63V71.32c0-3.66-1.12-5.49-3.38-5.49-2.05,0-3.08.88-3.08,2.63V81.39h.07C153.81,81.39,155.94,79.88,155.94,76.88Z" transform="translate(-4.57 -24.13)"/><path class="cls-2" d="M180.36,105.58H169.84V60.48h10.52Z" transform="translate(-4.57 -24.13)"/><path class="cls-2" d="M228.14,105.58H217.62V69c0-1.85-1.05-2.78-3.16-2.78a2.66,2.66,0,0,0-3,3v36.37H200.94v-37a2,2,0,0,0-1-1.73,3.46,3.46,0,0,0-2-.68c-2.06,0-3.08.93-3.08,2.78v36.59H184.34V69.21q0-4.27,4.74-6.75a18,18,0,0,1,8.59-2,13.94,13.94,0,0,1,8.57,2.48,15.23,15.23,0,0,1,8.81-2.48,17.82,17.82,0,0,1,8.5,2q4.59,2.48,4.59,6.75Z" transform="translate(-4.57 -24.13)"/><path class="cls-2" d="M255.34,105.58H232.12V60.48h23.22v5.93h-12.7V78.75H255v5.79h-12.4v15h12.7Z" transform="translate(-4.57 -24.13)"/><polygon class="cls-1" points="300.26 81.19 255.42 36.49 270.69 36.48 300.35 66.13 300.26 81.19"/><path class="cls-1" d="M273.17,89.71,266.36,82l-8.5,8.51,12.29,10.8,4.63,4.08S294,64.73,333.29,56.9c1.89-.39,4.72-1,4.72-1S301.1,55.9,273.17,89.71Z" transform="translate(-4.57 -24.13)"/></svg>