<svg id="Layer_1" data-name="Layer 1" xmlns="http://www.w3.org/2000/svg" viewBox="0 0 217.72 217.02"><defs><style>.cls-1{fill:#231f20;}.cls-2{fill:#fff;}.cls-3{fill:#ed1f24;}</style></defs><title>Taat Taati logo</title><rect class="cls-1" x="0.7" width="217.02" height="217.02"/><path class="cls-2" d="M62.45,55.37a.56.56,0,0,1,.64.64V57.4a.57.57,0,0,1-.64.64H24.11a.57.57,0,0,1-.64-.64V56a.56.56,0,0,1,.64-.64Zm-3,15.92a16,16,0,0,1,.5,6.33,15.13,15.13,0,0,1-2,5.79,14.63,14.63,0,0,1-1.7,2.38l-.71.78-.07.07-.11.11,0,0a11.32,11.32,0,0,1-1.17.95c-.4.31-.82.61-1.24.89a17.37,17.37,0,0,1-9.74,3.09,18.5,18.5,0,0,1-8.85-2.31,14.4,14.4,0,0,1-1.67-1,17.75,17.75,0,0,1-4.48-4.12,18.32,18.32,0,0,1-2-3.34,8.09,8.09,0,0,1-.39-1l-.15-.32a.27.27,0,0,1,.18-.39l.39-.18a.31.31,0,0,1,.43.18l.14.32a8.63,8.63,0,0,0,.39.85c.26.47.52.92.79,1.35a16.87,16.87,0,0,0,1.24,1.71,15,15,0,0,0,2.24,2.2q5.82,3.51,10.94,3.52a13.2,13.2,0,0,0,8.46-3,11.29,11.29,0,0,0,2.84-3l.07-.07a10.15,10.15,0,0,0,.72-1.49,12.25,12.25,0,0,0,.95-4.41,12.38,12.38,0,0,0-.67-4.48l-.11-.25L54.49,72l-.11-.22a9.11,9.11,0,0,0-.53-1,8.52,8.52,0,0,0-.6-.89l-.15-.21-.17-.18a1.5,1.5,0,0,0-.22-.24l-.17-.18a9.23,9.23,0,0,0-3.63-2.31,7.4,7.4,0,0,0-2.13-.46,7,7,0,0,0-.85,0h-.25a8.05,8.05,0,0,0-1.11.11h-.1l-.18,0-.53.14-.39.11-.43.14-.25.07-.14.08a.11.11,0,0,0-.07,0h0a7.38,7.38,0,0,0-1.74,1.17,6.87,6.87,0,0,0-2.09,3.63,3.22,3.22,0,0,0-.08.39l0,.25a2.75,2.75,0,0,0,0,.39,9.32,9.32,0,0,0,0,1.06,6.19,6.19,0,0,0,.15,1,1.89,1.89,0,0,0,.1.32.29.29,0,0,0,0,.17l.17.54a5.38,5.38,0,0,0,2.56,2.84,5.64,5.64,0,0,0,2.63.64,4.94,4.94,0,0,0,1.14-.14l.21,0,.22-.07h.07l.39-.14a4.2,4.2,0,0,0,.78-.43,4.59,4.59,0,0,0,1.24-1.21,4.29,4.29,0,0,0,.64-1.56,4.46,4.46,0,0,0,0-1.67,5.64,5.64,0,0,0-.21-.78,3,3,0,0,0-.32-.68,4.16,4.16,0,0,0-1-1.06,3.39,3.39,0,0,0-1.35-.5,3.12,3.12,0,0,0-1.36,0h0l-.11,0-.35.11a.08.08,0,0,0-.07,0,.09.09,0,0,0-.07,0,2.35,2.35,0,0,0-.54.29,2.63,2.63,0,0,0-.78.85,2.7,2.7,0,0,0-.32,2.06.68.68,0,0,0,0,.21l.07.18V75a1.35,1.35,0,0,0,.21.36,1.69,1.69,0,0,0,.5.6,2.3,2.3,0,0,0,1.17.46,1,1,0,0,0,.28,0,2.11,2.11,0,0,0,.54-.07.45.45,0,0,1,.18,0l.07,0c.21-.07.34,0,.39.17l.18.4a.3.3,0,0,1-.18.42l-.07,0-.32.1a3.33,3.33,0,0,1-1.18.15A3.5,3.5,0,0,1,42.37,77a2.88,2.88,0,0,1-.89-.85,2.36,2.36,0,0,1-.35-.57l-.07-.11v0L41,75.27a2.44,2.44,0,0,0-.15-.35,4.41,4.41,0,0,1-.14-1.57,4.47,4.47,0,0,1,.46-1.63,4.69,4.69,0,0,1,1.14-1.46,3.33,3.33,0,0,1,.85-.57l.15-.07.07,0h0l.25-.1v0l.21,0a.75.75,0,0,1,.18-.07l.07,0a5.73,5.73,0,0,1,2.1-.18,5.5,5.5,0,0,1,2.17.68,5.76,5.76,0,0,1,1.81,1.6,9.27,9.27,0,0,1,.64,1.1,5.91,5.91,0,0,1,.39,1.21,7.08,7.08,0,0,1,.11,2.56,6.53,6.53,0,0,1-.89,2.55A7.14,7.14,0,0,1,48.55,81a6.89,6.89,0,0,1-1.24.74l-.18.07-.35.15a.61.61,0,0,0-.14.07l-.32.1-.25.08-.11,0a9,9,0,0,1-2.27.28,8.78,8.78,0,0,1-3.59-.74,8.88,8.88,0,0,1-4.44-4.41l-.08-.18-.21-.49v0l0-.14a3.74,3.74,0,0,1-.22-.64,9.76,9.76,0,0,1-.32-1.56,11.54,11.54,0,0,1-.1-1.6c0-.17,0-.41,0-.71l0-.08v-.14a3.43,3.43,0,0,1,.1-.67,10.79,10.79,0,0,1,3-5.83,10.66,10.66,0,0,1,2.74-2l.11-.07.24-.14.47-.18.1-.07.5-.21.68-.21,0,0,.57-.14a1.42,1.42,0,0,1,.28-.07.24.24,0,0,1,.11,0,12.3,12.3,0,0,1,1.67-.28A16.52,16.52,0,0,1,47,61.66a13.31,13.31,0,0,1,3.34.5,12.63,12.63,0,0,1,3.13,1.31,13.22,13.22,0,0,1,2.7,2.06l.18.22.42.42.25.32a1.14,1.14,0,0,1,.18.25l.11.07c.28.41.59.88.92,1.42s.56,1.08.75,1.53l.17.43.11.32.14.43Z"/><path class="cls-2" d="M71.9,55.37a.6.6,0,0,1,.46.18.62.62,0,0,1,.18.46V57.4a.58.58,0,0,1-.18.42.57.57,0,0,1-.46.22H69.34c0,.59,0,1.33,0,2.23,0,.69,0,1.21,0,1.57,0,.52,0,2.38-.07,5.58,0,4.29,0,6.75-.07,7.39s0,1.65-.07,3.38c0,2.06-.08,3.37-.11,3.94q-.32,8.36-.85,15.32c0,.47-.07,1.11-.14,1.92l0,.53c-.07.85-.13,1.46-.18,1.81-.07.83-.11,1.34-.14,1.53a.34.34,0,0,1-.14.28.39.39,0,0,1-.28.11h-.39a.43.43,0,0,1-.43-.39c0-.19-.07-.7-.14-1.53,0-.35-.1-1-.15-1.81L66,99.37c0-.83-.09-1.47-.14-1.92q-.49-7-.82-15.32c0-.57-.06-1.9-.1-4,0-1.71-.07-2.82-.07-3.34s-.06-3.09-.11-7.36c0-3.22,0-5.09,0-5.61s0-1-.07-1.57c0-.92,0-1.67,0-2.23H61.88a.58.58,0,0,1-.46-.22.58.58,0,0,1-.18-.42V56a.62.62,0,0,1,.64-.64Z"/><path class="cls-2" d="M109.46,55.37a.56.56,0,0,1,.64.64V57.4a.57.57,0,0,1-.64.64H71.12a.57.57,0,0,1-.64-.64V56a.56.56,0,0,1,.64-.64Zm-2.94,15.92a16,16,0,0,1,.49,6.33,15.29,15.29,0,0,1-2,5.79,14.7,14.7,0,0,1-1.71,2.38l-.71.78-.07.07a1.11,1.11,0,0,1-.11.11l0,0a11.32,11.32,0,0,1-1.17.95c-.41.31-.82.61-1.25.89a17.33,17.33,0,0,1-9.73,3.09,18.5,18.5,0,0,1-8.85-2.31,13.61,13.61,0,0,1-1.67-1,17.58,17.58,0,0,1-4.48-4.12,18.36,18.36,0,0,1-2-3.34q-.24-.54-.39-1l-.14-.32a.27.27,0,0,1,.18-.39l.39-.18a.3.3,0,0,1,.42.18l.15.32a5.61,5.61,0,0,0,.39.85q.39.71.78,1.35a18.57,18.57,0,0,0,1.24,1.71,15.54,15.54,0,0,0,2.24,2.2q5.83,3.51,10.95,3.52a13.2,13.2,0,0,0,8.46-3,11.62,11.62,0,0,0,2.84-3l.07-.07a11.19,11.19,0,0,0,.71-1.49,12.46,12.46,0,0,0,.28-8.89l-.1-.25L101.5,72l-.1-.22c-.1-.21-.27-.53-.53-1a10.31,10.31,0,0,0-.61-.89l-.14-.21-.18-.18a2,2,0,0,0-.21-.24,1.51,1.51,0,0,0-.18-.18,9.12,9.12,0,0,0-3.62-2.31,7.54,7.54,0,0,0-2.14-.46,6.92,6.92,0,0,0-.85,0h-.25a7.88,7.88,0,0,0-1.1.11h-.11l-.17,0-.54.14-.39.11-.42.14-.25.07-.15.08-.07,0h0a7,7,0,0,0-1.74,1.17,6.82,6.82,0,0,0-2.1,3.63,3.62,3.62,0,0,0-.07.39l0,.25q0,.28,0,.39a7.89,7.89,0,0,0,.14,2.1,2,2,0,0,0,.11.32.4.4,0,0,0,0,.17l.18.54a5.38,5.38,0,0,0,2.56,2.84,5.61,5.61,0,0,0,2.63.64,4.94,4.94,0,0,0,1.14-.14l.21,0,.21-.07h.07l.39-.14a4,4,0,0,0,.79-.43,4.74,4.74,0,0,0,1.24-1.21,4.47,4.47,0,0,0,.64-1.56,4.26,4.26,0,0,0,0-1.67,3.76,3.76,0,0,0-.21-.78,2.63,2.63,0,0,0-.32-.68,4,4,0,0,0-1-1.06,3.28,3.28,0,0,0-1.35-.5,3.07,3.07,0,0,0-1.35,0h0l-.1,0-.36.11a.09.09,0,0,0-.07,0,.11.11,0,0,0-.07,0,2.1,2.1,0,0,0-.53.29,2.52,2.52,0,0,0-.78.85,2.7,2.7,0,0,0-.32,2.06,1,1,0,0,0,0,.21l.07.18V75a1.4,1.4,0,0,0,.22.36,1.67,1.67,0,0,0,.49.6,2.36,2.36,0,0,0,1.18.46.86.86,0,0,0,.28,0,2,2,0,0,0,.53-.07.45.45,0,0,1,.18,0l.07,0c.22-.07.34,0,.39.17l.18.4a.3.3,0,0,1-.18.42l-.07,0-.32.1a3.31,3.31,0,0,1-1.17.15A3.5,3.5,0,0,1,89.39,77a3.9,3.9,0,0,1-1.25-1.42l-.07-.11v0L88,75.27a2.53,2.53,0,0,0-.14-.35,4.41,4.41,0,0,1-.14-1.57,4.29,4.29,0,0,1,.46-1.63,4.41,4.41,0,0,1,1.14-1.46,3.17,3.17,0,0,1,.85-.57l.14-.07.07,0h0l.25-.1v0l.21,0a.75.75,0,0,1,.18-.07l.07,0a5.66,5.66,0,0,1,2.09-.18,5.5,5.5,0,0,1,2.17.68,5.66,5.66,0,0,1,1.81,1.6,9.27,9.27,0,0,1,.64,1.1,6.6,6.6,0,0,1,.4,1.21,7.31,7.31,0,0,1,.1,2.56,6.37,6.37,0,0,1-.89,2.55A7.1,7.1,0,0,1,95.57,81a7.26,7.26,0,0,1-1.24.74l-.18.07-.36.15-.14.07-.32.1-.25.08-.1,0a9.13,9.13,0,0,1-2.28.28,8.84,8.84,0,0,1-3.59-.74A8.5,8.5,0,0,1,84.52,80a8.6,8.6,0,0,1-1.85-2.63l-.07-.18-.21-.49v0l0-.14a2.86,2.86,0,0,1-.21-.64,9.76,9.76,0,0,1-.32-1.56,11.49,11.49,0,0,1-.11-1.6c0-.17,0-.41,0-.71l0-.08v-.14a3.28,3.28,0,0,1,.11-.67,10.72,10.72,0,0,1,3-5.83,10.61,10.61,0,0,1,2.73-2l.11-.07.25-.14.46-.18.11-.07.5-.21.67-.21,0,0,.57-.14a1.26,1.26,0,0,1,.28-.07.21.21,0,0,1,.11,0,12.3,12.3,0,0,1,1.67-.28A16.52,16.52,0,0,1,94,61.66a13.38,13.38,0,0,1,3.34.5,12.56,12.56,0,0,1,3.12,1.31,13,13,0,0,1,2.71,2.06,1.46,1.46,0,0,1,.17.22l.43.42.25.32a1.14,1.14,0,0,1,.18.25l.1.07c.29.41.59.88.93,1.42s.55,1.08.74,1.53l.18.43.11.32.14.43Z"/><path class="cls-2" d="M88.78,39.24c.14-.36.26-.64.36-.86l.07-.17s0-.06.07-.11l.21-.5a.26.26,0,0,0,.07-.1l.18-.32c.1-.17.17-.3.22-.4l.24-.35.18-.25.07-.14.39-.5.18-.21.43-.5v0l.18-.14a11.53,11.53,0,0,1,1.31-1.24,14.42,14.42,0,0,1,1.49-1A13.42,13.42,0,0,1,97.77,31l.22-.07h0l.22-.08.14,0a2.34,2.34,0,0,0,.32-.07h.1c.36-.07.62-.12.79-.14s.41-.05.74-.08h.18a.85.85,0,0,1,.28,0h.61a13.86,13.86,0,0,1,3.66.5,13.14,13.14,0,0,1,1.7.6l.25.11.15.07,1,.5h0l1,.6a.89.89,0,0,1,.28.18.35.35,0,0,0,.11.07l.71.5v0l.25.18.1.11.22.17.46.39a18.18,18.18,0,0,1,2.34,2.63,16.26,16.26,0,0,1,1.74,3.1,16.57,16.57,0,0,1,1,3.34c0,.14,0,.34.08.6,0,.07,0,.16.07.25v.14a2,2,0,0,1,0,.32l.07.85v.11a1.6,1.6,0,0,1,0,.32v3.73c0,.76,0,1.73,0,2.92,0,.16,0,.83,0,2v.56h2.91a.57.57,0,0,1,.64.64v1.39a.56.56,0,0,1-.64.64h-2.84c0,.59-.05,1.34-.07,2.24,0,.69,0,1.22,0,1.6s0,2.38,0,5.58c-.05,4.26-.09,6.73-.11,7.39s-.05,1.67-.07,3.38c0,2.08-.08,3.4-.11,3.94q-.31,8.39-.81,15.32-.07.78-.18,1.92l0,.56c-.07.83-.12,1.44-.14,1.82-.07.85-.12,1.36-.14,1.52a.4.4,0,0,1-.46.39h-.36a.43.43,0,0,1-.46-.39c0-.16,0-.67-.14-1.52,0-.41-.08-1-.15-1.82l0-.53c-.07-.83-.12-1.48-.14-2q-.54-6.93-.86-15.32c0-.54-.06-1.86-.1-3.94,0-1.76,0-2.88-.07-3.38,0-.66,0-3.13-.07-7.39,0-3.18-.08-5-.08-5.58s0-1,0-1.6c0-1,0-1.69-.07-2.24h-2.67c-.4,0-.6-.21-.6-.64V56c0-.42.2-.64.6-.64h1.1q3-9.24-.46-15.42a10.43,10.43,0,0,0-4-4.33l-.5-.29-.25-.1a6.93,6.93,0,0,0-1.21-.5,9,9,0,0,0-2.91-.46,11.18,11.18,0,0,0-2.31.24,10.45,10.45,0,0,0-2.45,1,11.36,11.36,0,0,0-1.14.71,8,8,0,0,0-1,.89l-.14.11-.32.35a1.06,1.06,0,0,1-.14.21c-.14.15-.24.25-.29.32l-.07.11-.14.18-.18.28a1.21,1.21,0,0,0-.14.22l-.18.24v.08l-.21.32-.14.28-.22.57,0,0a6.53,6.53,0,0,0-.32,1.25,7.18,7.18,0,0,0,.71,4.94,7.75,7.75,0,0,0,1.49,2.06,7.42,7.42,0,0,0,1,.78.52.52,0,0,0,.11.07.67.67,0,0,1,.14.11l.29.18.07,0a.08.08,0,0,0,.07,0l.28.14.14.07a6,6,0,0,0,4.62.21,6,6,0,0,0,2-1.17,6.37,6.37,0,0,0,.79-.85l.32-.43.14-.25.14-.28.11-.22A.26.26,0,0,1,104,47a.7.7,0,0,0,0-.14l.11-.32a.53.53,0,0,0,.07-.22.69.69,0,0,1,0-.17,1.57,1.57,0,0,0,.07-.32v0l0-.25v-.28a4.41,4.41,0,0,0-.39-2,4.75,4.75,0,0,0-1.21-1.67l-.17-.18s-.06,0-.11-.07a.3.3,0,0,1-.11-.07l-.17-.11-.5-.28-.18-.11h0l-.28-.1a.25.25,0,0,0-.14,0,3.57,3.57,0,0,0-3.41.68h0l0,0-.25.25-.22.21a.3.3,0,0,0-.07.11l-.21.25-.21.39-.15.25v.11a.09.09,0,0,0,0,.07,2.26,2.26,0,0,0-.07.28.12.12,0,0,0,0,.11,2.37,2.37,0,0,0,0,.74,2.78,2.78,0,0,0,1.42,2.35l.18.11.1.07.07,0s.07,0,.07,0l.18,0a.14.14,0,0,0,.11,0h.07s0,0,0,0h.07l.1,0h.18a2.24,2.24,0,0,0,1.1-.21,2.52,2.52,0,0,0,.82-.64h0s0-.06.08-.11a.11.11,0,0,0,0-.07s0,0,0,0l.1-.17.11-.22a.19.19,0,0,1,0-.1l0-.07a1.93,1.93,0,0,0-.14-1.36,1.72,1.72,0,0,0-.57-.67s0,0,0,0a.13.13,0,0,1-.08,0l-.17-.11c-.17-.09-.2-.23-.11-.42l.18-.32a.28.28,0,0,1,.42-.15l.18.11a.45.45,0,0,0,.14.07s0,0,.07,0l.08.07a0,0,0,0,1,0,0l.21.15v0l.11.11a2.46,2.46,0,0,1,.5.6,3.82,3.82,0,0,1,.35,1,3.09,3.09,0,0,1,0,1.25,4.74,4.74,0,0,1-.25.64l-.11.21a.11.11,0,0,0,0,.07l0,0s0,0,0,.07l-.18.21a3.11,3.11,0,0,1-1.17,1,3.83,3.83,0,0,1-1.71.47l-.35,0h-.15l-.14,0h-.11A1.17,1.17,0,0,1,98,48l-.25-.07-.14,0-.07,0-.14-.07h0L97,47.62l0,0-.32-.18-.18-.14-.21-.18,0,0L96.1,47l-.28-.28a.23.23,0,0,0-.11-.11l-.21-.32a4.21,4.21,0,0,1-.78-2.06,4.88,4.88,0,0,1,0-1.21v-.1a2.13,2.13,0,0,1,.14-.5c0,.05,0,0,0-.07a.83.83,0,0,1,.07-.21l.14-.36a.09.09,0,0,1,0-.07l.21-.39a.08.08,0,0,1,0-.07l.28-.47,0,0,.07-.07a2.38,2.38,0,0,1,.32-.39l.32-.36a.16.16,0,0,0,.1-.07l0,0a5.48,5.48,0,0,1,2.31-1.21,6.06,6.06,0,0,1,2.81,0l.14.07a1.54,1.54,0,0,1,.53.18l.29.1.07,0,.53.28h0l.39.29a.7.7,0,0,1,.21.14h0l.24.21A6.9,6.9,0,0,1,106,42.22a7.13,7.13,0,0,1,.71,3v.39l0,.36a4.72,4.72,0,0,1-.07.64l0,.07v.11l-.11.35-.1.43c0,.07-.06.15-.11.25a.7.7,0,0,0,0,.14l-.15.28a.16.16,0,0,1,0,.11l-.14.32a1.77,1.77,0,0,0-.15.28l-.07.07a5.05,5.05,0,0,1-.42.68A7.87,7.87,0,0,1,104.17,51a8.54,8.54,0,0,1-6,2.38h-.07a8.3,8.3,0,0,1-3.38-.71l-.18-.07a.15.15,0,0,1-.1,0l-.32-.15,0,0-.14-.07-.39-.21a1.33,1.33,0,0,0-.25-.18l-.11-.07a11,11,0,0,1-1.38-1A11.23,11.23,0,0,1,89.56,48a10.18,10.18,0,0,1-1.2-7A10.18,10.18,0,0,1,88.78,39.24Z"/><path class="cls-2" d="M147.47,140.66a.56.56,0,0,1,.64.64v1.39a.56.56,0,0,1-.64.63H109.13a.56.56,0,0,1-.64-.63V141.3a.56.56,0,0,1,.64-.64Zm-2.95,15.92a15.84,15.84,0,0,1,.5,6.33,15.24,15.24,0,0,1-3.66,8.17l-.71.78-.07.07-.11.11,0,0a9.54,9.54,0,0,1-1.18,1c-.4.31-.81.61-1.24.89a17.34,17.34,0,0,1-9.74,3.09,18.62,18.62,0,0,1-8.85-2.31,17.08,17.08,0,0,1-1.67-1,17.54,17.54,0,0,1-4.47-4.12,18.14,18.14,0,0,1-2-3.34,10.25,10.25,0,0,1-.39-1l-.14-.32a.27.27,0,0,1,.18-.39l.39-.18a.3.3,0,0,1,.42.18l.15.32a5.61,5.61,0,0,0,.39.85q.39.7.78,1.35a18.57,18.57,0,0,0,1.24,1.71,15,15,0,0,0,2.24,2.2c3.89,2.34,7.53,3.52,11,3.52a13.15,13.15,0,0,0,8.45-3,11.51,11.51,0,0,0,2.85-3l.07-.07a11.81,11.81,0,0,0,.71-1.49,12.46,12.46,0,0,0,.28-8.89l-.1-.25-.22-.56-.1-.22q-.15-.31-.54-1a8.52,8.52,0,0,0-.6-.89l-.14-.21-.18-.18a2,2,0,0,0-.21-.24c-.08-.08-.13-.14-.18-.18a9.09,9.09,0,0,0-3.63-2.31,7.4,7.4,0,0,0-2.13-.46,7,7,0,0,0-.85,0h-.25a7.88,7.88,0,0,0-1.1.11h-.11l-.18,0-.53.14-.39.11-.43.14-.25.07-.14.07a.13.13,0,0,0-.07,0h0a7,7,0,0,0-1.75,1.17,6.87,6.87,0,0,0-2.09,3.63,2.14,2.14,0,0,0-.07.39l0,.25q0,.28,0,.39a7.89,7.89,0,0,0,.14,2.1c0,.09.06.2.1.32a.39.39,0,0,0,0,.17l.18.54a5.38,5.38,0,0,0,2.56,2.84,5.74,5.74,0,0,0,2.63.64,4.92,4.92,0,0,0,1.13-.14l.22,0,.21-.07h.07l.39-.14a3.65,3.65,0,0,0,.78-.43,4.63,4.63,0,0,0,1.25-1.21,4.67,4.67,0,0,0,.64-1.56,4.26,4.26,0,0,0,0-1.67,5.64,5.64,0,0,0-.21-.78,2.63,2.63,0,0,0-.32-.68,4,4,0,0,0-1-1.06,3.28,3.28,0,0,0-1.35-.5,3.07,3.07,0,0,0-1.35,0h0l-.1,0-.36.11a.09.09,0,0,0-.07,0,.11.11,0,0,0-.07,0,2.1,2.1,0,0,0-.53.29,2.55,2.55,0,0,0-.79.85,2.75,2.75,0,0,0-.32,2.06,1.23,1.23,0,0,0,0,.21l.07.18v.07a1.68,1.68,0,0,0,.21.36,1.81,1.81,0,0,0,.5.6,2.37,2.37,0,0,0,1.17.46,1,1,0,0,0,.29,0,2.67,2.67,0,0,0,.53-.07.45.45,0,0,1,.18,0l.07,0c.21-.07.34,0,.39.17l.18.4a.3.3,0,0,1-.18.42l-.07,0-.32.1a3.31,3.31,0,0,1-1.17.15,3.53,3.53,0,0,1-1.82-.61,2.75,2.75,0,0,1-.88-.85,2.39,2.39,0,0,1-.36-.57l-.07-.11v0l-.07-.18c-.05-.14-.1-.26-.14-.35a4.44,4.44,0,0,1-.15-1.57,4.71,4.71,0,0,1,1.6-3.09,3.22,3.22,0,0,1,.86-.57l.14-.07.07,0h0l.24-.1v0l.22,0a.52.52,0,0,1,.18-.07l.07,0a5.66,5.66,0,0,1,2.09-.18,5.5,5.5,0,0,1,2.17.68,5.66,5.66,0,0,1,1.81,1.6,9.27,9.27,0,0,1,.64,1.1,5.91,5.91,0,0,1,.39,1.21,7.08,7.08,0,0,1,.11,2.56,6.37,6.37,0,0,1-.89,2.55,7.1,7.1,0,0,1-1.88,2.14,7.35,7.35,0,0,1-1.25.74l-.17.07-.36.15-.14.07-.32.1a1.49,1.49,0,0,1-.25.07l-.11,0a9,9,0,0,1-2.27.28,8.81,8.81,0,0,1-3.59-.74,8.38,8.38,0,0,1-2.59-1.78,8.6,8.6,0,0,1-1.85-2.63l-.07-.18-.22-.49v0l0-.14a3,3,0,0,1-.21-.64,8.77,8.77,0,0,1-.32-1.56,10.14,10.14,0,0,1-.11-1.6c0-.17,0-.41,0-.71l0-.08V157a2.7,2.7,0,0,1,.11-.67,10.72,10.72,0,0,1,2.95-5.83,10.44,10.44,0,0,1,2.73-2l.11-.07.25-.14.46-.18.11-.07.49-.21.68-.21,0,0,.57-.14a1.37,1.37,0,0,1,.29-.07.19.19,0,0,1,.1,0,12.57,12.57,0,0,1,1.67-.28A16.7,16.7,0,0,1,132,147a13.39,13.39,0,0,1,3.35.5,13.37,13.37,0,0,1,5.82,3.37,1.74,1.74,0,0,1,.18.22l.43.42.25.32a.85.85,0,0,1,.17.25l.11.07c.28.41.59.88.92,1.42s.56,1.08.75,1.53l.18.43.1.32.15.43Z"/><path class="cls-2" d="M156.93,140.66a.62.62,0,0,1,.64.64v1.39a.67.67,0,0,1-.64.63h-2.56c0,.6,0,1.34,0,2.24,0,.69,0,1.21,0,1.57,0,.52-.05,2.38-.08,5.58q0,6.43-.07,7.39c0,.52,0,1.64-.07,3.37,0,2.07-.08,3.38-.1,3.95q-.33,8.36-.86,15.32c0,.47-.07,1.11-.14,1.91l0,.54c-.08.85-.13,1.45-.18,1.81-.07.83-.12,1.34-.14,1.53a.32.32,0,0,1-.15.28.38.38,0,0,1-.28.11h-.39a.5.5,0,0,1-.29-.11.57.57,0,0,1-.14-.28c0-.19-.07-.7-.14-1.53-.05-.36-.1-1-.14-1.81l-.07-.54c-.05-.83-.1-1.46-.15-1.91q-.49-7-.81-15.32c0-.57-.06-1.9-.11-4-.05-1.71-.07-2.82-.07-3.34s-.06-3.09-.11-7.36q0-4.83,0-5.61c0-.43-.05-.95-.07-1.57,0-.92,0-1.67,0-2.24H146.9a.67.67,0,0,1-.64-.63V141.3a.62.62,0,0,1,.64-.64Z"/><path class="cls-2" d="M147.34,128.38c.2-1.54,1.18-2,2.92-1.55,1.36.5,1.9,1.74,1.64,3.72a11,11,0,0,1-4.34,8.5,9.79,9.79,0,0,1-9.3,1.95,15.63,15.63,0,0,1-7.92-5.19c-2.19-2.56-3.28-5.09-3.28-7.57.24-1,1-1.41,2.17-1.32q2.27.66,2,3.63a6.37,6.37,0,0,0,3.14,5.62,7.28,7.28,0,0,0,6.6.31A8.57,8.57,0,0,0,147.34,128.38Z"/><path class="cls-2" d="M194.49,140.66a.57.57,0,0,1,.64.64v1.39a.56.56,0,0,1-.64.63H156.14a.56.56,0,0,1-.64-.63V141.3a.57.57,0,0,1,.64-.64Zm-3,15.92a16,16,0,0,1,.5,6.33,15.48,15.48,0,0,1-2,5.79,14.63,14.63,0,0,1-1.7,2.38l-.72.78-.07.07-.1.11,0,0a10.25,10.25,0,0,1-1.17,1c-.4.31-.82.61-1.24.89A17.37,17.37,0,0,1,175.3,177a18.62,18.62,0,0,1-8.85-2.31,16,16,0,0,1-1.67-1,17.75,17.75,0,0,1-4.48-4.12,18.1,18.1,0,0,1-2-3.34,8.09,8.09,0,0,1-.39-1l-.15-.32a.27.27,0,0,1,.18-.39l.39-.18a.32.32,0,0,1,.43.18l.14.32a5.61,5.61,0,0,0,.39.85q.39.7.78,1.35a18.68,18.68,0,0,0,1.25,1.71,15,15,0,0,0,2.24,2.2q5.82,3.51,10.94,3.52a13.2,13.2,0,0,0,8.46-3,11.29,11.29,0,0,0,2.84-3l.07-.07a10.57,10.57,0,0,0,.71-1.49,12.05,12.05,0,0,0,1-4.41,12.6,12.6,0,0,0-.67-4.48l-.11-.25-.21-.56-.11-.22a9.11,9.11,0,0,0-.53-1,10.31,10.31,0,0,0-.61-.89l-.14-.21-.18-.18a1,1,0,0,0-.21-.24,1.51,1.51,0,0,0-.18-.18,9.12,9.12,0,0,0-3.62-2.31,7.4,7.4,0,0,0-2.13-.46,7.2,7.2,0,0,0-.86,0h-.25a7.88,7.88,0,0,0-1.1.11h-.1l-.18,0-.53.14-.4.11-.42.14-.25.07-.14.07a.1.1,0,0,0-.07,0h0a6.73,6.73,0,0,0-1.74,1.17,6.82,6.82,0,0,0-2.1,3.63c0,.09,0,.22-.07.39l0,.25a2.75,2.75,0,0,0,0,.39,9.32,9.32,0,0,0,0,1.06,6.23,6.23,0,0,0,.14,1c0,.09.06.2.11.32a.29.29,0,0,0,0,.17l.17.54a5.38,5.38,0,0,0,2.56,2.84,5.77,5.77,0,0,0,2.63.64,4.94,4.94,0,0,0,1.14-.14l.21,0,.21-.07h.08l.39-.14a4.2,4.2,0,0,0,.78-.43,4.59,4.59,0,0,0,1.24-1.21,4.62,4.62,0,0,0,.68-3.23,4.56,4.56,0,0,0-.22-.78,2.34,2.34,0,0,0-.32-.68,3.85,3.85,0,0,0-1-1.06,3.28,3.28,0,0,0-1.35-.5,3.08,3.08,0,0,0-1.35,0h0l-.11,0-.36.11s0,0-.07,0l-.07,0a2.29,2.29,0,0,0-.53.29,2.63,2.63,0,0,0-.78.85,2.7,2.7,0,0,0-.32,2.06,1,1,0,0,0,0,.21l.08.18v.07a1.12,1.12,0,0,0,.21.36,1.69,1.69,0,0,0,.5.6,2.3,2.3,0,0,0,1.17.46.9.9,0,0,0,.28,0,2.67,2.67,0,0,0,.54-.07.45.45,0,0,1,.17,0l.07,0c.22-.07.35,0,.4.17l.17.4a.3.3,0,0,1-.17.42l-.08,0-.32.1a3.28,3.28,0,0,1-1.17.15,3.5,3.5,0,0,1-1.81-.61,2.78,2.78,0,0,1-.89-.85,2.36,2.36,0,0,1-.35-.57l-.08-.11v0l-.07-.18a1.69,1.69,0,0,0-.14-.35,4.52,4.52,0,0,1,.32-3.2,4.54,4.54,0,0,1,1.14-1.46,3.17,3.17,0,0,1,.85-.57l.14-.07.07,0h0l.25-.1v0l.21,0a.75.75,0,0,1,.18-.07l.07,0a5.73,5.73,0,0,1,2.1-.18,5.5,5.5,0,0,1,2.17.68,5.76,5.76,0,0,1,1.81,1.6,10.88,10.88,0,0,1,.64,1.1,7.45,7.45,0,0,1,.39,1.21,7.31,7.31,0,0,1,.11,2.56,6.53,6.53,0,0,1-.89,2.55,7.14,7.14,0,0,1-1.89,2.14,7.26,7.26,0,0,1-1.24.74l-.18.07-.35.15-.15.07-.32.1-.24.07-.11,0a9.07,9.07,0,0,1-2.28.28,8.76,8.76,0,0,1-3.58-.74,8.42,8.42,0,0,1-2.6-1.78,8.78,8.78,0,0,1-1.85-2.63l-.07-.18-.21-.49v0l0-.14a3,3,0,0,1-.21-.64,9.76,9.76,0,0,1-.32-1.56,11.49,11.49,0,0,1-.11-1.6c0-.17,0-.41,0-.71l0-.08V157a3.28,3.28,0,0,1,.11-.67,10.83,10.83,0,0,1,5.69-7.86l.1-.07.25-.14.46-.18.11-.07.5-.21.67-.21,0,0,.57-.14a1.26,1.26,0,0,1,.28-.07.24.24,0,0,1,.11,0,12.3,12.3,0,0,1,1.67-.28A16.52,16.52,0,0,1,179,147a13.31,13.31,0,0,1,3.34.5,12.63,12.63,0,0,1,3.13,1.31,13.22,13.22,0,0,1,2.7,2.06,1.74,1.74,0,0,1,.18.22l.42.42.25.32a1.14,1.14,0,0,1,.18.25l.1.07c.29.41.6.88.93,1.42s.56,1.08.75,1.53l.17.43.11.32.14.43Z"/><path class="cls-3" d="M119.58,92.28a.56.56,0,0,1,.64.64v1.39a.57.57,0,0,1-.64.64h-3.3c0,.57,0,1.31,0,2.24,0,.63,0,1.16-.07,1.56s0,2.39,0,5.61c0,4.27-.08,6.73-.1,7.4,0,.47,0,1.58-.07,3.34,0,2.08-.09,3.41-.11,4q-.31,8.34-.82,15.31c0,.5-.09,1.15-.14,2l-.07.53c-.07.88-.12,1.48-.14,1.81q-.08.72-.15,1.53a.38.38,0,0,1-.42.39h-.39a.38.38,0,0,1-.43-.39q-.11-.78-.18-1.53c0-.35-.07-1-.14-1.81l0-.57c-.07-.8-.11-1.44-.14-1.92q-.39-5.35-.71-11.72a7.94,7.94,0,0,0-4.48-5.41,14.82,14.82,0,0,1-1.35,3.17,14.06,14.06,0,0,1-1.67,2.34c-.23.26-.47.51-.71.75l-.07.07-.1.11,0,0-1.1,1a12.35,12.35,0,0,1-1.28.85,16.75,16.75,0,0,1-9.49,3,18.17,18.17,0,0,1-8.67-2.27,13.5,13.5,0,0,1-1.64-1,16.85,16.85,0,0,1-4.33-4,17.69,17.69,0,0,1-2-3.23,9.58,9.58,0,0,1-.39-.93l-.14-.32a.29.29,0,0,1,.17-.43l.39-.14a.31.31,0,0,1,.43.18l.11.29c.12.26.26.54.42.85s.49.89.75,1.31a19.82,19.82,0,0,0,1.21,1.64,16.33,16.33,0,0,0,2.2,2.2A21,21,0,0,0,91,126.11a12.79,12.79,0,0,0,8.24-2.91,11.66,11.66,0,0,0,2.77-3l.08-.07a9.81,9.81,0,0,0,.71-1.46,12.72,12.72,0,0,0,.92-4.34,11.79,11.79,0,0,0-.67-4.33l-.11-.25-.21-.53-.11-.25c-.1-.21-.25-.52-.46-.92s-.44-.64-.61-.86l-.18-.21-.14-.21a.89.89,0,0,1-.21-.22l-.18-.18a8.84,8.84,0,0,0-3.52-2.23,7.75,7.75,0,0,0-2.09-.47c-.24,0-.51,0-.82,0h-.28a10.07,10.07,0,0,0-1.07.1H93a.45.45,0,0,1-.18,0l-.49.11-.39.1-.39.15-.29.1a.26.26,0,0,1-.14.07.09.09,0,0,1-.07,0,6.66,6.66,0,0,0-3.77,4.65c0,.1,0,.23-.07.4l0,.24a3.58,3.58,0,0,0,0,.4,8.83,8.83,0,0,0,0,1,4.54,4.54,0,0,0,.18,1,.75.75,0,0,0,.07.28.67.67,0,0,1,0,.18l.18.5a5.52,5.52,0,0,0,5,3.41,5.7,5.7,0,0,0,1.1-.11l.25-.07.21,0v0h0l.39-.14a4.73,4.73,0,0,0,.78-.39,4,4,0,0,0,1.17-1.18,3.68,3.68,0,0,0,.64-1.53,4.26,4.26,0,0,0,0-1.63q-.08-.39-.18-.78a4.24,4.24,0,0,0-.32-.64,3.49,3.49,0,0,0-1-1,3.26,3.26,0,0,0-1.28-.5,3.41,3.41,0,0,0-1.35,0h0l-.1,0-.18,0-.14.07a.08.08,0,0,0-.07,0h-.07a3.65,3.65,0,0,0-.54.32,2.34,2.34,0,0,0-.74.82,2.72,2.72,0,0,0-.36,2,.83.83,0,0,1,.07.21l0,.18,0,.07a2.91,2.91,0,0,0,.18.35,1.71,1.71,0,0,0,.53.57,2.14,2.14,0,0,0,1.1.46,1,1,0,0,0,.29,0,1.73,1.73,0,0,0,.5-.07.68.68,0,0,1,.21,0l.07,0a.27.27,0,0,1,.39.17l.14.4a.29.29,0,0,1-.17.42l-.07,0-.29.07a3.77,3.77,0,0,1-1.14.18,3.5,3.5,0,0,1-1.77-.57,3.32,3.32,0,0,1-.89-.86,3.79,3.79,0,0,1-.36-.56l0-.11h0l-.07-.21c0-.15-.08-.26-.11-.36a4.47,4.47,0,0,1-.17-1.49,4.33,4.33,0,0,1,.46-1.64,4.16,4.16,0,0,1,1.14-1.42,7.4,7.4,0,0,1,.81-.57.35.35,0,0,0,.15-.07l.07,0h0l.25-.11.18-.07a.46.46,0,0,0,.21-.07h0a5.53,5.53,0,0,1,2.06-.18,5.18,5.18,0,0,1,2.13.68,5.62,5.62,0,0,1,1.78,1.56,5.88,5.88,0,0,1,.6,1.07,6,6,0,0,1,.39,1.17,6.89,6.89,0,0,1,.11,2.52,6.76,6.76,0,0,1-.85,2.49A6.43,6.43,0,0,1,97,118a5.13,5.13,0,0,1-1.25.75l-.14.07-.35.14-.14.07-.32.11-.25.07-.11,0a8.65,8.65,0,0,1-2.24.29,8.38,8.38,0,0,1-3.48-.75,9.14,9.14,0,0,1-2.56-1.7,8.83,8.83,0,0,1-1.78-2.6l-.07-.18-.21-.49-.07-.15a3.44,3.44,0,0,1-.18-.64,9.71,9.71,0,0,1-.32-1.52,9,9,0,0,1-.07-1.57c0-.16,0-.4,0-.71V109c0-.29.09-.51.11-.68a10.92,10.92,0,0,1,5.55-7.67l.14,0,.25-.14.42-.21a.21.21,0,0,0,.11,0l.5-.21.67-.22.57-.17a1.42,1.42,0,0,1,.28-.07l.11,0a11.15,11.15,0,0,1,1.6-.28,10.14,10.14,0,0,1,1.67-.07,12.11,12.11,0,0,1,3.27.46,13.75,13.75,0,0,1,3.06,1.28,13.32,13.32,0,0,1,2.63,2l.17.22a1.78,1.78,0,0,1,.39.42l.29.29.18.25.07.1c.28.38.59.84.92,1.39a9.37,9.37,0,0,1,.71,1.49l.18.39.11.32.14.39.11.39a15.3,15.3,0,0,1,.49,6,10.4,10.4,0,0,1,2.31,1.28,9.35,9.35,0,0,1,1.39,1.21c0-.53,0-1.19,0-2,0-1.71,0-2.82-.07-3.34s-.05-3.11-.07-7.4c0-3.22-.07-5.09-.07-5.61s0-.9,0-1.56c0-.93,0-1.67-.07-2.24H73.38a.57.57,0,0,1-.64-.64V92.92a.57.57,0,0,1,.64-.64Z"/><path class="cls-3" d="M128.71,92.25a.59.59,0,0,1,.64.64v1.38a.61.61,0,0,1-.17.43.59.59,0,0,1-.47.21h-2.56c0,.59,0,1.34,0,2.24,0,.69,0,1.21,0,1.56,0,.52,0,2.38-.07,5.58,0,4.29-.05,6.76-.07,7.39s0,1.65-.07,3.38c-.05,2.06-.08,3.38-.11,3.94q-.32,8.35-.85,15.32c0,.47-.07,1.11-.14,1.92l0,.53c-.07.86-.13,1.46-.17,1.82-.08.83-.12,1.33-.15,1.52a.33.33,0,0,1-.14.29.37.37,0,0,1-.28.1h-.39a.48.48,0,0,1-.29-.1.53.53,0,0,1-.14-.29c0-.19-.07-.69-.14-1.52,0-.36-.1-1-.14-1.82l-.08-.53c0-.83-.09-1.47-.14-1.92q-.49-7-.82-15.32c0-.56,0-1.89-.1-4,0-1.71-.07-2.82-.07-3.35s-.06-3.09-.11-7.35c0-3.22,0-5.1,0-5.62s0-.94-.07-1.56c0-.92,0-1.67,0-2.24h-2.74a.57.57,0,0,1-.46-.21.58.58,0,0,1-.18-.43V92.89a.64.64,0,0,1,.18-.47.65.65,0,0,1,.46-.17Z"/><path class="cls-3" d="M159.74,92.25a.57.57,0,0,1,.64.64v1.38a.57.57,0,0,1-.64.64h-3.17q0,.93,0,2.28c0,.61,0,1.13-.07,1.56s0,2.38,0,5.58c-.05,4.26-.08,6.72-.11,7.35s0,1.64-.07,3.35c0,2.06-.08,3.38-.1,4-.12,3.32-.28,6.53-.46,9.64h-3q-.1-1.78-.18-3.45a5,5,0,0,1-.18-.5q-1.49-5.47-7.46-9a30.12,30.12,0,0,0-11.48-3.66,2.78,2.78,0,0,1-2.23-1,1.82,1.82,0,0,1,0-2.6q10.7-9.06,20.68-11.09v-.17c0-.88,0-1.64-.07-2.28H127.9a.56.56,0,0,1-.64-.64V92.89a.56.56,0,0,1,.64-.64Z"/><path class="cls-3" d="M144.93,123.32a7,7,0,0,1,.5,2.49,9.06,9.06,0,0,1-.07,1.56,2.15,2.15,0,0,0-.07.35l0,.18a.23.23,0,0,1-.21.18c0,.19-.06.39-.11.6v0l-.11.28,0,.08v.07l-.07.14s0,.09-.07.21l0,.07a1.8,1.8,0,0,1-.1.18.18.18,0,0,1,0,.11,5.2,5.2,0,0,1-1.67,1.92,5.6,5.6,0,0,1-2.42,1,7.48,7.48,0,0,1-1,.07,5.56,5.56,0,0,1-1.77-.29l-.15,0-.32-.11a.09.09,0,0,0-.07,0l-.14-.08-.25-.1-.07,0-.21-.1a5.8,5.8,0,0,1-1.1-.68,6.37,6.37,0,0,1-1.85-2,5.87,5.87,0,0,1-.85-2.66,6.67,6.67,0,0,1,.32-2.67l.1-.32a.54.54,0,0,0,.07-.17l.18-.46.14-.25a.51.51,0,0,1,.15-.22l0-.07a2.28,2.28,0,0,1,.11-.21s0,0,0,0a.08.08,0,0,0,0-.07.8.8,0,0,1,.14-.18l0-.07a1.63,1.63,0,0,0,.17-.21l0-.07a6.19,6.19,0,0,1,2.1-1.6,5.87,5.87,0,0,1,2.34-.6h.43a6.27,6.27,0,0,1,3.66,1.1,7.15,7.15,0,0,1,1.38,1.31,8.19,8.19,0,0,1,.47.68C144.72,122.87,144.84,123.11,144.93,123.32Z"/><path class="cls-3" d="M136.6,109.73q10.17,2.91,15.57,10a7.75,7.75,0,0,1,0-.82c0-.61-.06-1.93-.1-3.94,0-1.71-.05-2.82-.08-3.34s0-3.06-.07-7.32c0-1.26,0-2.23,0-2.92A47.3,47.3,0,0,0,136.6,109.73Z"/><path class="cls-3" d="M143,127.4a2.89,2.89,0,0,0-.25-1.31,2.44,2.44,0,0,0-.85-1l-.29-.18-.07,0-.11-.07h-.07s0,0,0,0a3,3,0,0,0-.57-.14,2.22,2.22,0,0,0-1.1.22,1.86,1.86,0,0,0-.82.64.51.51,0,0,0-.14.21l0,.07,0,0,0,.1h0a3.91,3.91,0,0,0-.11.43,1.88,1.88,0,0,0,0,.82,1.31,1.31,0,0,0,.29.56,1.1,1.1,0,0,0,.35.36,1.14,1.14,0,0,0,.25.18l.11.07c.14.07.18.17.11.28l-.11.25a.2.2,0,0,1-.29.14l-.1,0a3.47,3.47,0,0,1-.43-.21,2.3,2.3,0,0,1-.57-.47,2.42,2.42,0,0,1-.53-.81,2.71,2.71,0,0,1-.21-1.25,1.83,1.83,0,0,1,.14-.71v0s0,0,0,0l0-.11a.34.34,0,0,0,.08-.14v0a2,2,0,0,1,.17-.36,3.63,3.63,0,0,1,3-1.74h.07a3.32,3.32,0,0,1,1,.14.21.21,0,0,1,.11,0l.32.1h0l.07,0a3.47,3.47,0,0,1,.43.21,4.16,4.16,0,0,0-1.21-.89,4.56,4.56,0,0,0-1.78-.35,4.11,4.11,0,0,0-.78.07,3.9,3.9,0,0,0-1.21.46,3,3,0,0,0-1,.89,1.55,1.55,0,0,0-.17.25.09.09,0,0,0,0,.07.13.13,0,0,0,0,.07.11.11,0,0,0,0,.07s0,.05,0,.07a3,3,0,0,0-.24.71,5.45,5.45,0,0,0-.22,1.5,4.2,4.2,0,0,0,.32,1.38,3.6,3.6,0,0,0,.85,1.21,4.56,4.56,0,0,0,.68.5s0,0,.07.07a.52.52,0,0,1,.11.07l.07,0,.07,0,.11,0,.21.1.07,0a3,3,0,0,0,1.46.21,2.78,2.78,0,0,0,1.42-.46,3.39,3.39,0,0,0,1.07-1l0-.07a.13.13,0,0,0,0-.07.13.13,0,0,0,0-.07.3.3,0,0,0,.07-.11l.07-.14v0a.26.26,0,0,0,.07-.1v0c.08-.24.11-.36.11-.36S143,127.62,143,127.4Z"/><path class="cls-3" d="M61.29,31.92a7.17,7.17,0,0,1,.5,2.49A9.06,9.06,0,0,1,61.72,36a2.56,2.56,0,0,0-.07.36l0,.18a.25.25,0,0,1-.21.18c0,.19-.06.39-.11.6v0c0,.11-.08.21-.11.28l0,.07v.07l-.07.14a1.48,1.48,0,0,1-.07.22l0,.07a1.46,1.46,0,0,1-.11.18.15.15,0,0,1,0,.1,5.2,5.2,0,0,1-1.67,1.92,5.42,5.42,0,0,1-2.42,1,6,6,0,0,1-1,.07A5.51,5.51,0,0,1,54,41.2l-.15,0-.32-.1a.08.08,0,0,0-.07,0L53.33,41l-.25-.11-.07,0-.21-.11A5.47,5.47,0,0,1,51.7,40a6.47,6.47,0,0,1-1.85-2A6.09,6.09,0,0,1,49,35.34a6.86,6.86,0,0,1,.33-2.67l.1-.32a1.71,1.71,0,0,0,.07-.18l.18-.46.14-.25a.64.64,0,0,1,.14-.21l0-.07c0-.05.06-.12.11-.22a0,0,0,0,1,0,0,.09.09,0,0,0,0-.07.63.63,0,0,1,.14-.18l0-.07.17-.21,0-.08a6.16,6.16,0,0,1,2.1-1.59A6.05,6.05,0,0,1,55,28.12h.43a6.34,6.34,0,0,1,3.66,1.1,7.2,7.2,0,0,1,1.38,1.32,8,8,0,0,1,.47.67C61.08,31.47,61.2,31.71,61.29,31.92Z"/><path class="cls-3" d="M59.34,36a2.84,2.84,0,0,0-.25-1.31,2.56,2.56,0,0,0-.86-1L58,33.52l-.07,0-.11-.07H57.7s0,0,0,0a2.37,2.37,0,0,0-.57-.14,2.21,2.21,0,0,0-1.1.21,1.93,1.93,0,0,0-.82.64.51.51,0,0,0-.14.21l0,.08,0,0,0,.11h0c0,.16-.08.31-.1.42a1.88,1.88,0,0,0,0,.82,1.4,1.4,0,0,0,.29.57,1.33,1.33,0,0,0,.35.36.85.85,0,0,0,.25.17l.11.07c.14.08.18.17.1.29l-.1.25a.2.2,0,0,1-.29.14l-.1,0a3.47,3.47,0,0,1-.43-.21,2.26,2.26,0,0,1-.57-.46,2.46,2.46,0,0,1-.53-.82,2.67,2.67,0,0,1-.21-1.24,1.76,1.76,0,0,1,.14-.71v0s0,0,0,0l0-.11a.26.26,0,0,0,.07-.14v0a2.91,2.91,0,0,1,.18-.35,3.63,3.63,0,0,1,3-1.74h.07a3,3,0,0,1,1,.14l.11,0,.32.11h0l.07,0,.43.22a4,4,0,0,0-1.21-.89A4.39,4.39,0,0,0,56.1,31a5.14,5.14,0,0,0-.78.07,3.91,3.91,0,0,0-1.21.47,2.84,2.84,0,0,0-1,.89,1.63,1.63,0,0,0-.17.24.1.1,0,0,0,0,.08.1.1,0,0,0,0,.07.09.09,0,0,0,0,.07.09.09,0,0,0,0,.07,2.87,2.87,0,0,0-.25.71,5.75,5.75,0,0,0-.21,1.49,4,4,0,0,0,.32,1.39,3.56,3.56,0,0,0,.85,1.21,4.49,4.49,0,0,0,.68.49s0,0,.07.07l.11.08.07,0,.07,0,.11,0,.21.11.07,0a3,3,0,0,0,1.46.22,3,3,0,0,0,1.42-.46,3.47,3.47,0,0,0,1.06-1l0-.08a.1.1,0,0,0,0-.07.09.09,0,0,0,0-.07.43.43,0,0,0,.07-.1l.07-.15v0a.3.3,0,0,0,.07-.11v0c.08-.24.11-.36.11-.36S59.31,36.22,59.34,36Z"/><path class="cls-2" d="M63.56,38.79c.2-1.53,1.18-2,2.92-1.55,1.36.51,1.9,1.75,1.64,3.72a11,11,0,0,1-4.34,8.5,9.74,9.74,0,0,1-9.3,1.95,15.62,15.62,0,0,1-7.93-5.18q-3.27-3.85-3.27-7.57c.23-1,1-1.42,2.17-1.33Q47.7,38,47.4,41a6.36,6.36,0,0,0,3.14,5.63,7.28,7.28,0,0,0,6.6.31A8.57,8.57,0,0,0,63.56,38.79Z"/></svg>