<svg id="Layer_1" data-name="Layer 1" xmlns="http://www.w3.org/2000/svg" viewBox="0 0 400 400"><defs><style>.cls-1{fill:#231f20;}.cls-2{fill:#ed1f24;}</style></defs><title>Taat Taati logo on white</title><path d="M101.38,87.45a1.2,1.2,0,0,1,1.35,1.36v2.93a1.2,1.2,0,0,1-1.35,1.36H20.15a1.2,1.2,0,0,1-1.36-1.36V88.81a1.2,1.2,0,0,1,1.36-1.36Zm-6.25,33.73a33.71,33.71,0,0,1,1.05,13.4A32.29,32.29,0,0,1,92,146.85a30.7,30.7,0,0,1-3.61,5c-.5.56-1,1.11-1.51,1.66l-.15.15-.22.23-.08.07A23.2,23.2,0,0,1,84,156c-.86.66-1.73,1.28-2.64,1.89a36.77,36.77,0,0,1-20.62,6.55A39.35,39.35,0,0,1,42,159.57a35.89,35.89,0,0,1-3.54-2.1A37.38,37.38,0,0,1,29,148.73a38.38,38.38,0,0,1-4.29-7.07,17.57,17.57,0,0,1-.83-2l-.3-.68a.56.56,0,0,1,.37-.82l.83-.38a.67.67,0,0,1,.91.38l.3.67a13.21,13.21,0,0,0,.82,1.81c.56,1,1.11,2,1.66,2.86a35.59,35.59,0,0,0,2.64,3.62,31.67,31.67,0,0,0,4.74,4.66Q48.16,159.2,59,159.2a27.9,27.9,0,0,0,17.92-6.33,24.3,24.3,0,0,0,6-6.4l.15-.15a21.61,21.61,0,0,0,1.51-3.16,26.46,26.46,0,0,0,.6-18.82l-.22-.53-.45-1.2-.23-.45a21,21,0,0,0-1.13-2,18.31,18.31,0,0,0-1.28-1.88l-.3-.45-.38-.38a3.64,3.64,0,0,0-.45-.52l-.37-.38a19.47,19.47,0,0,0-7.68-4.89,16.29,16.29,0,0,0-4.52-1c-.5,0-1.1-.08-1.81-.08h-.53a19.07,19.07,0,0,0-2.33.23h-.22a1.29,1.29,0,0,1-.38.08l-1.13.3-.83.22-.9.3-.53.15c-.1,0-.2.11-.3.15a.22.22,0,0,0-.15.08H59a14.84,14.84,0,0,0-8.12,10.16,6.14,6.14,0,0,0-.16.83l-.07.53a8.26,8.26,0,0,0-.08.83,16.82,16.82,0,0,0,0,2.25,12.41,12.41,0,0,0,.31,2.19,3.72,3.72,0,0,0,.22.67.83.83,0,0,0,.07.38l.38,1.13a11.36,11.36,0,0,0,5.42,6,12,12,0,0,0,5.57,1.36,9.88,9.88,0,0,0,2.41-.3l.45-.08.45-.15H66l.82-.3a8.49,8.49,0,0,0,1.66-.9,10,10,0,0,0,2.64-2.56,9.69,9.69,0,0,0,1.35-3.32,9.3,9.3,0,0,0,.08-3.53,11.08,11.08,0,0,0-.46-1.66,5.32,5.32,0,0,0-.67-1.43,8.57,8.57,0,0,0-2.19-2.26,7,7,0,0,0-2.86-1.05,6.89,6.89,0,0,0-2.86,0h-.07l-.23.07-.75.23a.21.21,0,0,0-.15.07.22.22,0,0,0-.15.08,4.71,4.71,0,0,0-1.13.6,5.6,5.6,0,0,0-1.66,1.81,5.78,5.78,0,0,0-.68,4.36,2.1,2.1,0,0,0,.08.46l.15.37v.15a2.87,2.87,0,0,0,.45.76,3.62,3.62,0,0,0,1.06,1.28,5.08,5.08,0,0,0,2.48,1,2.47,2.47,0,0,0,.6.08,4.69,4.69,0,0,0,1.13-.15,1.29,1.29,0,0,1,.38-.08l.15-.07c.45-.15.73,0,.83.38l.37.82A.66.66,0,0,1,66,134l-.16.07-.67.23a6.93,6.93,0,0,1-2.49.3,7.37,7.37,0,0,1-3.84-1.28A5.8,5.8,0,0,1,57,131.49a4.87,4.87,0,0,1-.75-1.2l-.15-.23V130l-.15-.38a5.82,5.82,0,0,0-.3-.75,9.11,9.11,0,0,1-.3-3.31,9.49,9.49,0,0,1,1-3.47A9.85,9.85,0,0,1,58.69,119a7.08,7.08,0,0,1,1.81-1.21l.3-.15.15-.08H61l.52-.22v-.08l.46-.07a2.81,2.81,0,0,1,.37-.15l.15-.08a12.1,12.1,0,0,1,4.44-.37,11.59,11.59,0,0,1,4.6,1.43,12.53,12.53,0,0,1,3.84,3.38,22.84,22.84,0,0,1,1.35,2.34,13.7,13.7,0,0,1,.83,2.56,15.12,15.12,0,0,1,.23,5.42,13.82,13.82,0,0,1-1.89,5.42,14.83,14.83,0,0,1-4,4.52,15.94,15.94,0,0,1-2.63,1.58l-.38.15-.75.3-.3.15-.68.22-.53.15-.22.08a19.29,19.29,0,0,1-4.82.6,18.65,18.65,0,0,1-7.6-1.58,17.94,17.94,0,0,1-5.5-3.76A18.45,18.45,0,0,1,44.62,134l-.15-.38-.46-1v-.08l-.07-.3a6.73,6.73,0,0,1-.45-1.36,20.12,20.12,0,0,1-.68-3.31,24,24,0,0,1-.23-3.39c0-.35,0-.85.08-1.5l.07-.15v-.3a6.48,6.48,0,0,1,.23-1.43,22.68,22.68,0,0,1,6.25-12.35,21.72,21.72,0,0,1,5.8-4.29l.22-.15.53-.3,1-.38a.83.83,0,0,1,.22-.15l1.06-.45,1.43-.45.07-.08,1.21-.3a5.19,5.19,0,0,1,.6-.15.59.59,0,0,1,.22-.08,27.56,27.56,0,0,1,3.54-.6,34.29,34.29,0,0,1,3.54-.22,28.88,28.88,0,0,1,7.08,1A28.55,28.55,0,0,1,88.05,109a3,3,0,0,1,.38.45l.9.91.53.68a2,2,0,0,1,.38.52l.22.15c.6.86,1.26,1.86,2,3S93.6,117,94,117.94l.38.9.22.68.3.91Z"/><path d="M121.4,87.45a1.3,1.3,0,0,1,1.36,1.36v2.93a1.24,1.24,0,0,1-.38.91,1.22,1.22,0,0,1-1,.45H116c0,1.25,0,2.83-.07,4.74,0,1.46-.08,2.56-.08,3.31q-.08,1.66-.15,11.82-.08,13.64-.15,15.66-.07,1.67-.15,7.15c-.1,4.37-.18,7.15-.22,8.36q-.69,17.69-1.81,32.45c0,1-.15,2.36-.3,4.06l-.08,1.13c-.15,1.81-.27,3.09-.37,3.84-.15,1.76-.26,2.84-.31,3.24a.71.71,0,0,1-.3.6.81.81,0,0,1-.6.23h-.83a1,1,0,0,1-.6-.23,1.14,1.14,0,0,1-.3-.6q-.07-.6-.3-3.24-.15-1.12-.3-3.84l-.15-1.13c-.1-1.76-.2-3.11-.3-4.06q-1.06-14.76-1.74-32.45c-.05-1.21-.12-4-.22-8.43-.1-3.62-.15-6-.15-7.08q-.07-2-.23-15.58c0-6.83-.07-10.79-.07-11.9,0-.9-.1-2-.15-3.31-.06-2-.08-3.54-.08-4.74h-5.8a1.42,1.42,0,0,1-1.35-1.36V88.81a1.3,1.3,0,0,1,.38-1,1.31,1.31,0,0,1,1-.38Z"/><path d="M201,87.45a1.2,1.2,0,0,1,1.35,1.36v2.93A1.2,1.2,0,0,1,201,93.1H119.75a1.2,1.2,0,0,1-1.36-1.36V88.81a1.2,1.2,0,0,1,1.36-1.36Zm-6.25,33.73a33.89,33.89,0,0,1,1.05,13.4,32.29,32.29,0,0,1-4.14,12.27,30.7,30.7,0,0,1-3.61,5c-.5.56-1,1.11-1.51,1.66l-.15.15-.22.23-.08.07a23.2,23.2,0,0,1-2.48,2c-.86.66-1.73,1.28-2.64,1.89a36.77,36.77,0,0,1-20.63,6.55,39.34,39.34,0,0,1-18.74-4.9,33.71,33.71,0,0,1-3.54-2.1,37.21,37.21,0,0,1-9.48-8.74,39,39,0,0,1-4.3-7.07,19.29,19.29,0,0,1-.82-2l-.3-.68a.55.55,0,0,1,.37-.82l.83-.38a.65.65,0,0,1,.9.38l.3.67a13.35,13.35,0,0,0,.83,1.81c.55,1,1.11,2,1.66,2.86a37.08,37.08,0,0,0,2.63,3.62,32.22,32.22,0,0,0,4.75,4.66q12.35,7.45,23.18,7.46a27.9,27.9,0,0,0,17.92-6.33,24.3,24.3,0,0,0,6-6.4l.15-.15a21.61,21.61,0,0,0,1.51-3.16,26.46,26.46,0,0,0,.6-18.82l-.23-.53-.45-1.2-.22-.45a21,21,0,0,0-1.13-2,18.31,18.31,0,0,0-1.28-1.88l-.3-.45-.38-.38a3.64,3.64,0,0,0-.45-.52l-.38-.38a19.47,19.47,0,0,0-7.68-4.89,16.22,16.22,0,0,0-4.51-1c-.51,0-1.11-.08-1.81-.08h-.53a19.07,19.07,0,0,0-2.33.23h-.23a1.24,1.24,0,0,1-.37.08l-1.13.3-.83.22-.9.3-.53.15c-.1,0-.2.11-.3.15a.22.22,0,0,0-.15.08h-.08a14.81,14.81,0,0,0-8.13,10.16c-.05.2-.1.48-.15.83l-.07.53a8.26,8.26,0,0,0-.08.83,16.82,16.82,0,0,0,0,2.25,13.47,13.47,0,0,0,.3,2.19,4.87,4.87,0,0,0,.23.67.83.83,0,0,0,.07.38l.38,1.13a11.32,11.32,0,0,0,5.42,6,11.94,11.94,0,0,0,5.57,1.36,9.94,9.94,0,0,0,2.41-.3L165,138l.45-.15h.15l.83-.3a8.79,8.79,0,0,0,1.66-.9,9.82,9.82,0,0,0,2.63-2.56,9.7,9.7,0,0,0,1.36-3.32,9.3,9.3,0,0,0,.07-3.53,10,10,0,0,0-.45-1.66,5.07,5.07,0,0,0-.68-1.43,8.54,8.54,0,0,0-2.18-2.26,7,7,0,0,0-2.86-1.05,6.89,6.89,0,0,0-2.86,0H163l-.22.07-.75.23a.18.18,0,0,0-.15.07.19.19,0,0,0-.15.08,4.71,4.71,0,0,0-1.13.6,5.6,5.6,0,0,0-1.66,1.81,5.78,5.78,0,0,0-.68,4.36,2.1,2.1,0,0,0,.08.46l.15.37v.15a2.87,2.87,0,0,0,.45.76,3.7,3.7,0,0,0,1.05,1.28,5.11,5.11,0,0,0,2.49,1,2.47,2.47,0,0,0,.6.08,4.69,4.69,0,0,0,1.13-.15,1.23,1.23,0,0,1,.38-.08l.15-.07c.45-.15.72,0,.82.38l.38.82a.65.65,0,0,1-.38.91l-.15.07-.67.23a7,7,0,0,1-2.49.3,7.37,7.37,0,0,1-3.84-1.28,5.8,5.8,0,0,1-1.88-1.81,4.87,4.87,0,0,1-.75-1.2l-.15-.23V130l-.15-.38a5.82,5.82,0,0,0-.3-.75,9.12,9.12,0,0,1-.31-3.31,9.5,9.5,0,0,1,1-3.47,9.85,9.85,0,0,1,2.41-3.08,6.91,6.91,0,0,1,1.81-1.21l.3-.15.15-.08h.08l.52-.22v-.08l.45-.07A3,3,0,0,1,162,117l.15-.08a12.1,12.1,0,0,1,4.44-.37,11.59,11.59,0,0,1,4.6,1.43A12.38,12.38,0,0,1,175,121.4a21.22,21.22,0,0,1,1.36,2.34,13.7,13.7,0,0,1,.83,2.56,15.12,15.12,0,0,1,.22,5.42,13.8,13.8,0,0,1-1.88,5.42,14.83,14.83,0,0,1-4,4.52,15.94,15.94,0,0,1-2.63,1.58l-.38.15-.75.3-.3.15-.68.22-.53.15-.22.08a19.35,19.35,0,0,1-4.82.6,18.7,18.7,0,0,1-7.61-1.58,17.9,17.9,0,0,1-5.49-3.76,18.65,18.65,0,0,1-3.92-5.57l-.15-.38-.45-1v-.08l-.07-.3a6.91,6.91,0,0,1-.46-1.36,20.15,20.15,0,0,1-.67-3.31,24,24,0,0,1-.23-3.39c0-.35,0-.85.08-1.5l.07-.15v-.3a6.48,6.48,0,0,1,.23-1.43,22.68,22.68,0,0,1,6.25-12.35,21.68,21.68,0,0,1,5.79-4.29l.23-.15.53-.3,1-.38a.91.91,0,0,1,.23-.15l1.06-.45,1.42-.45.08-.08,1.2-.3a5.44,5.44,0,0,1,.61-.15.59.59,0,0,1,.22-.08,27.56,27.56,0,0,1,3.54-.6,34.13,34.13,0,0,1,3.54-.22,28.88,28.88,0,0,1,7.08,1A28.55,28.55,0,0,1,187.65,109a3,3,0,0,1,.38.45l.9.91.53.68a2,2,0,0,1,.37.52l.23.15c.6.86,1.25,1.86,2,3s1.18,2.29,1.58,3.24l.38.9.22.68.3.91Z"/><path d="M157.16,53.28c.3-.76.56-1.36.75-1.81l.16-.38c0-.05.05-.12.15-.23l.45-1a.83.83,0,0,0,.15-.22l.38-.68c.2-.35.35-.63.45-.83l.52-.75.38-.53.15-.3.83-1,.38-.46.9-1.05v-.08l.37-.3A25.3,25.3,0,0,1,166,40.93a31.76,31.76,0,0,1,3.16-2.18,29,29,0,0,1,7.08-3l.45-.15h.08l.45-.15.3-.07a4.88,4.88,0,0,0,.68-.15h.22c.75-.15,1.31-.25,1.66-.3s.88-.1,1.58-.16H182a1.83,1.83,0,0,1,.6-.07h1.28a29.24,29.24,0,0,1,7.75,1A28.62,28.62,0,0,1,195.26,37l.52.23.3.15,2,1h.07l2.11,1.28a2.54,2.54,0,0,1,.6.38.91.91,0,0,0,.23.15l1.5,1.06v.07a3.88,3.88,0,0,1,.53.38l.22.22.46.38a11.35,11.35,0,0,1,1,.83,38,38,0,0,1,5,5.57,35.33,35.33,0,0,1,3.69,6.55,37.12,37.12,0,0,1,2.19,7.07c.05.3.1.73.15,1.28.05.15.1.33.15.53v.3a3.49,3.49,0,0,1,.07.68l.15,1.81v.22a4.73,4.73,0,0,1,.08.68v7.9q-.07,2.41-.08,6.18c0,.35,0,1.75-.07,4.21v1.21h6.17a1.2,1.2,0,0,1,1.36,1.35v2.94A1.2,1.2,0,0,1,222.28,93h-6c0,1.26-.1,2.84-.15,4.75,0,1.45,0,2.58-.08,3.38q0,1.66-.07,11.82-.15,13.56-.23,15.66-.07,1.74-.15,7.15c-.1,4.42-.18,7.21-.22,8.36q-.69,17.78-1.74,32.45c-.1,1.1-.22,2.45-.37,4.06l-.08,1.21q-.22,2.63-.3,3.84c-.15,1.8-.25,2.88-.3,3.23a.85.85,0,0,1-1,.83h-.75a.91.91,0,0,1-1-.83c0-.35-.1-1.43-.3-3.23q-.08-1.29-.3-3.84l-.08-1.13q-.23-2.64-.3-4.14-1.12-14.68-1.81-32.45-.07-1.72-.22-8.36-.07-5.57-.15-7.15-.07-2.1-.15-15.66-.15-10.08-.15-11.82c-.05-1-.08-2.08-.08-3.38,0-2-.1-3.59-.15-4.75h-5.64c-.86,0-1.28-.45-1.28-1.35V88.73c0-.9.42-1.35,1.28-1.35h2.33q6.31-19.57-1-32.68-3.62-6.54-8.51-9.18l-1.05-.6-.53-.23a16.26,16.26,0,0,0-2.56-1,19.4,19.4,0,0,0-6.17-1,22.82,22.82,0,0,0-4.89.53,21.82,21.82,0,0,0-5.2,2.1c-.9.51-1.7,1-2.41,1.51a17.89,17.89,0,0,0-2.11,1.88l-.3.23-.67.75a3.39,3.39,0,0,1-.3.45,4.75,4.75,0,0,0-.61.68.91.91,0,0,0-.15.23,4.15,4.15,0,0,1-.3.37l-.38.6a1.83,1.83,0,0,0-.3.46l-.37.52v.15l-.45.68-.31.6c-.1.25-.25.66-.45,1.21l-.07.07a13.58,13.58,0,0,0-.68,2.64,15.25,15.25,0,0,0,1.51,10.46,16,16,0,0,0,3.16,4.37,14,14,0,0,0,2,1.66A.7.7,0,0,0,170,75a3.41,3.41,0,0,1,.3.23l.6.38.15.07a.22.22,0,0,0,.15.08l.6.3.3.15A11.64,11.64,0,0,0,177,77.37a12,12,0,0,0,5-.76,12.87,12.87,0,0,0,4.22-2.48,14.18,14.18,0,0,0,1.65-1.81c.2-.25.43-.55.68-.9l.3-.53.3-.6.23-.45a.91.91,0,0,1,.15-.23,1.14,1.14,0,0,0,.07-.3l.23-.68a1.15,1.15,0,0,0,.15-.45,2.83,2.83,0,0,1,.08-.38,2.36,2.36,0,0,0,.15-.67v-.08l.07-.53v-.6a9.53,9.53,0,0,0-.83-4.29,10.4,10.4,0,0,0-2.56-3.54l-.37-.37s-.13,0-.23-.15a.83.83,0,0,1-.22-.15l-.38-.23-1.06-.6-.37-.23h-.08c-.1,0-.3-.12-.6-.23a.82.82,0,0,0-.3-.07,7.61,7.61,0,0,0-3.84-.23A8.14,8.14,0,0,0,176,57.49h-.07l-.08.08-.52.52-.46.45c-.1.11-.15.18-.15.23l-.45.53-.45.83-.3.52v.23a.22.22,0,0,0-.08.15,5.19,5.19,0,0,0-.15.6.32.32,0,0,0-.07.23,5.84,5.84,0,0,0-.08,1.58,5.94,5.94,0,0,0,3,5l.38.22.23.15.15.08c.1,0,.15,0,.15.07l.37.08a.32.32,0,0,0,.23.07h.15a.07.07,0,0,0,.07.08H178a.75.75,0,0,1,.22.07h.38a4.53,4.53,0,0,0,2.33-.45,5.21,5.21,0,0,0,1.73-1.35h.08c0-.05.05-.13.15-.23a.21.21,0,0,0,.07-.15c.05,0,.08,0,.08-.07l.23-.38.22-.45a.62.62,0,0,1,.08-.23l.07-.15a4,4,0,0,0-.3-2.86,3.62,3.62,0,0,0-1.2-1.43.07.07,0,0,1-.08-.08.21.21,0,0,1-.15-.07l-.38-.23a.6.6,0,0,1-.22-.9l.37-.68a.6.6,0,0,1,.91-.3l.37.23a.88.88,0,0,0,.31.15.21.21,0,0,0,.15.07l.15.15s.07,0,.07.08l.45.3v.07l.23.23a5.33,5.33,0,0,1,1,1.28,7.68,7.68,0,0,1,.76,2,6.68,6.68,0,0,1-.08,2.64,8.44,8.44,0,0,1-.53,1.35l-.22.45a.27.27,0,0,0-.08.16l-.07.07s0,0-.08.15a4.46,4.46,0,0,1-.37.45,6.69,6.69,0,0,1-2.49,2.11,8.11,8.11,0,0,1-3.61,1,6.09,6.09,0,0,1-.76-.07h-.3a1.33,1.33,0,0,1-.3-.08H177a2.32,2.32,0,0,1-.45-.15l-.53-.15a.67.67,0,0,1-.3-.08l-.15-.07-.3-.15h-.08l-.75-.38L174.4,71l-.68-.38a4.15,4.15,0,0,0-.37-.3l-.45-.38-.08-.07-.15-.15-.6-.61a.49.49,0,0,0-.23-.22l-.45-.68a9,9,0,0,1-1.66-4.37,10.92,10.92,0,0,1,0-2.56V61A5.47,5.47,0,0,1,170,60q-.07.16,0-.15a2.32,2.32,0,0,1,.15-.45l.3-.75a.21.21,0,0,1,.07-.15l.45-.83a.22.22,0,0,1,.08-.15l.6-1,.08-.07.15-.15a6.74,6.74,0,0,1,.68-.83l.67-.76s.13-.05.23-.15l.07-.07a11.74,11.74,0,0,1,4.9-2.56,13.24,13.24,0,0,1,5.94,0l.31.15a3.78,3.78,0,0,1,1.13.38l.6.22.15.08,1.13.6h.07l.83.6a1.74,1.74,0,0,1,.45.3h.08l.52.45a14.78,14.78,0,0,1,3.92,4.9,15.09,15.09,0,0,1,1.5,6.4v.83l-.07.75a7.86,7.86,0,0,1-.15,1.35l-.08.15v.23c-.05.15-.12.4-.22.75l-.23.91a4,4,0,0,1-.22.52,1.33,1.33,0,0,0-.08.3l-.3.61a.29.29,0,0,1-.08.22l-.3.68a3.33,3.33,0,0,0-.3.6l-.15.15a11.89,11.89,0,0,1-.9,1.43,16.18,16.18,0,0,1-2.26,2.64,18.22,18.22,0,0,1-12.8,5h-.15a17.81,17.81,0,0,1-7.15-1.5l-.38-.15a.29.29,0,0,1-.22-.08l-.68-.3-.08-.08-.3-.15-.82-.45a5.3,5.3,0,0,0-.53-.38.7.7,0,0,1-.23-.15,21.22,21.22,0,0,1-2.93-2.18,23.46,23.46,0,0,1-4.67-5.87,21.67,21.67,0,0,1-2.56-14.76A22.56,22.56,0,0,1,157.16,53.28Z"/><path class="cls-1" d="M281.49,268.13a1.2,1.2,0,0,1,1.36,1.36v2.93a1.2,1.2,0,0,1-1.36,1.36H200.26a1.2,1.2,0,0,1-1.35-1.36v-2.93a1.2,1.2,0,0,1,1.35-1.36Zm-6.24,33.73a33.89,33.89,0,0,1,1.05,13.4,32.24,32.24,0,0,1-4.14,12.27,31.3,31.3,0,0,1-3.61,5L267,334.23l-.15.15-.23.23-.07.07a23.29,23.29,0,0,1-2.49,2c-.85.66-1.73,1.28-2.63,1.89a36.8,36.8,0,0,1-20.63,6.55,39.34,39.34,0,0,1-18.74-4.9,33.71,33.71,0,0,1-3.54-2.1,37.43,37.43,0,0,1-9.49-8.74,38.82,38.82,0,0,1-4.29-7.07,19.55,19.55,0,0,1-.83-2l-.3-.67a.57.57,0,0,1,.38-.83l.83-.38a.65.65,0,0,1,.9.38l.3.67a13.35,13.35,0,0,0,.83,1.81c.55,1,1.1,2,1.66,2.86a37.08,37.08,0,0,0,2.63,3.62,32.15,32.15,0,0,0,4.74,4.66q12.35,7.45,23.19,7.46A27.92,27.92,0,0,0,257,333.55a24.46,24.46,0,0,0,6-6.4l.15-.15a23.29,23.29,0,0,0,1.51-3.16,26.46,26.46,0,0,0,.6-18.82l-.23-.53-.45-1.2-.22-.45c-.21-.45-.58-1.13-1.13-2a20.07,20.07,0,0,0-1.28-1.88l-.31-.45-.37-.38a3.64,3.64,0,0,0-.45-.52l-.38-.38a19.47,19.47,0,0,0-7.68-4.89,16.22,16.22,0,0,0-4.52-1c-.5-.05-1.1-.08-1.8-.08H246a19.07,19.07,0,0,0-2.33.23h-.23a1.3,1.3,0,0,1-.37.08l-1.13.3-.83.22-.91.3-.52.15-.3.15a.21.21,0,0,0-.15.08h-.08a14.67,14.67,0,0,0-3.69,2.48,14.52,14.52,0,0,0-4.44,7.68c0,.2-.1.48-.15.83l-.08.53a7.61,7.61,0,0,0-.07.83,16.82,16.82,0,0,0,0,2.25,13.47,13.47,0,0,0,.3,2.19,4.55,4.55,0,0,0,.23.68.82.82,0,0,0,.07.37l.38,1.13a11.32,11.32,0,0,0,5.42,6,11.91,11.91,0,0,0,5.57,1.36,10,10,0,0,0,2.41-.3l.45-.08.45-.15h.15l.83-.3a9.11,9.11,0,0,0,1.66-.9,8.91,8.91,0,0,0,4-5.88,9.3,9.3,0,0,0,.07-3.53,10,10,0,0,0-.45-1.66,5.35,5.35,0,0,0-.68-1.43,8.54,8.54,0,0,0-2.18-2.26,7,7,0,0,0-2.86-1.05,6.89,6.89,0,0,0-2.86,0h-.08l-.22.07-.76.23a.21.21,0,0,0-.15.07.22.22,0,0,0-.15.08,4.9,4.9,0,0,0-1.13.6,5.68,5.68,0,0,0-1.65,1.81,5.74,5.74,0,0,0-.68,4.36,2,2,0,0,0,.07.46l.16.37v.15a2.87,2.87,0,0,0,.45.76,3.7,3.7,0,0,0,1,1.28,5.08,5.08,0,0,0,2.49,1,2.47,2.47,0,0,0,.6.08,4.75,4.75,0,0,0,1.13-.15,1.24,1.24,0,0,1,.37-.08l.15-.07c.45-.15.73,0,.83.38l.38.82a.66.66,0,0,1-.38.91l-.15.07-.68.23a6.9,6.9,0,0,1-2.48.3A7.31,7.31,0,0,1,239,314a5.8,5.8,0,0,1-1.88-1.81,5.21,5.21,0,0,1-.76-1.2l-.15-.23v-.07l-.15-.38a5.82,5.82,0,0,0-.3-.75,9.34,9.34,0,0,1-.3-3.31,9.5,9.5,0,0,1,1-3.47,9.86,9.86,0,0,1,2.41-3.09,7,7,0,0,1,1.81-1.2l.3-.15.15-.07h.07l.53-.23v-.08l.45-.07a3,3,0,0,1,.38-.15l.15-.08a12.07,12.07,0,0,1,4.44-.37,11.49,11.49,0,0,1,4.59,1.43,12.3,12.3,0,0,1,3.84,3.38,25,25,0,0,1,1.36,2.34,13.92,13.92,0,0,1,.82,2.56,14.89,14.89,0,0,1,.23,5.42,13.75,13.75,0,0,1-1.88,5.42,14.85,14.85,0,0,1-6.63,6.1l-.37.15-.76.3-.3.15-.67.22c-.15.05-.33.11-.53.16l-.23.07a19.23,19.23,0,0,1-4.82.6,18.65,18.65,0,0,1-7.6-1.58,17.78,17.78,0,0,1-5.49-3.76,18.47,18.47,0,0,1-3.92-5.57l-.15-.38-.45-1v-.08l-.08-.3a6.73,6.73,0,0,1-.45-1.36,21.22,21.22,0,0,1-.68-3.31,24,24,0,0,1-.22-3.39c0-.35,0-.85.07-1.5l.08-.15v-.3a5.93,5.93,0,0,1,.23-1.43,22.73,22.73,0,0,1,6.24-12.35,21.88,21.88,0,0,1,5.8-4.29l.23-.15.52-.3,1-.38a.91.91,0,0,1,.23-.15l1-.45,1.43-.45.08-.08,1.2-.3a5.19,5.19,0,0,1,.6-.15.62.62,0,0,1,.23-.08,28.74,28.74,0,0,1,3.54-.6,34,34,0,0,1,3.54-.22,28.87,28.87,0,0,1,7.07,1.05,26.77,26.77,0,0,1,6.63,2.79,27.06,27.06,0,0,1,5.72,4.36,3.79,3.79,0,0,1,.38.45l.9.91.53.68a2,2,0,0,1,.37.52l.23.15c.6.86,1.25,1.86,2,3s1.17,2.29,1.58,3.24l.37.9.23.68.3.91Z"/><path class="cls-1" d="M301.52,268.13a1.29,1.29,0,0,1,1.35,1.36v2.93a1.4,1.4,0,0,1-1.35,1.36H296.1c0,1.25,0,2.83-.08,4.74,0,1.46-.07,2.56-.07,3.31q-.07,1.67-.15,11.82-.07,13.64-.15,15.66-.07,1.67-.15,7.15c-.1,4.37-.18,7.15-.23,8.36q-.67,17.7-1.81,32.45c0,1-.15,2.36-.3,4.06l-.07,1.13c-.15,1.81-.28,3.09-.38,3.84-.15,1.76-.25,2.83-.3,3.24a.71.71,0,0,1-.3.6.81.81,0,0,1-.6.22h-.83a1,1,0,0,1-.6-.22,1.15,1.15,0,0,1-.31-.6c0-.41-.15-1.48-.3-3.24q-.15-1.12-.3-3.84l-.15-1.13c-.1-1.76-.2-3.11-.3-4.06q-1.05-14.76-1.73-32.45-.08-1.81-.23-8.43c-.1-3.62-.15-6-.15-7.08q-.08-2-.22-15.58c-.05-6.83-.08-10.79-.08-11.9-.05-.9-.1-2-.15-3.31-.05-2-.07-3.54-.07-4.74h-5.8a1.22,1.22,0,0,1-1-.45,1.24,1.24,0,0,1-.38-.91v-2.93a1.3,1.3,0,0,1,1.36-1.36Z"/><path class="cls-1" d="M281.21,242.11q.66-4.87,6.19-3.28,4.32,1.59,3.47,7.88a23.31,23.31,0,0,1-9.19,18q-9,7.21-19.7,4.12a33.14,33.14,0,0,1-16.79-11q-6.93-8.16-6.94-16,.75-3.09,4.6-2.81,4.78,1.39,4.13,7.69.38,8.25,6.65,11.91t14,.66Q280.27,255.14,281.21,242.11Z"/><path class="cls-1" d="M381.09,268.13a1.2,1.2,0,0,1,1.36,1.36v2.93a1.2,1.2,0,0,1-1.36,1.36H299.86a1.2,1.2,0,0,1-1.35-1.36v-2.93a1.2,1.2,0,0,1,1.35-1.36Zm-6.25,33.73a33.72,33.72,0,0,1,1.06,13.4,32.58,32.58,0,0,1-4.14,12.27,30.76,30.76,0,0,1-3.62,5l-1.5,1.66-.15.15-.23.23-.07.07a24.33,24.33,0,0,1-2.49,2c-.85.66-1.73,1.28-2.63,1.89a36.8,36.8,0,0,1-20.63,6.55,39.41,39.41,0,0,1-18.75-4.9,34.6,34.6,0,0,1-3.53-2.1,37.8,37.8,0,0,1-13.78-15.81,19.55,19.55,0,0,1-.83-2l-.3-.67a.57.57,0,0,1,.38-.83l.82-.38a.66.66,0,0,1,.91.38l.3.67a13.35,13.35,0,0,0,.83,1.81c.55,1,1.1,2,1.65,2.86a37.18,37.18,0,0,0,2.64,3.62,31.67,31.67,0,0,0,4.74,4.66q12.35,7.45,23.19,7.46a27.89,27.89,0,0,0,17.91-6.33,24.35,24.35,0,0,0,6-6.4l.15-.15a22.08,22.08,0,0,0,1.5-3.16,26.07,26.07,0,0,0,2-9.33,26.49,26.49,0,0,0-1.43-9.49l-.23-.53-.45-1.2-.23-.45a19,19,0,0,0-1.13-2,18.31,18.31,0,0,0-1.28-1.88l-.3-.45-.37-.38a3.81,3.81,0,0,0-.46-.52l-.37-.38a19.47,19.47,0,0,0-7.68-4.89,16.29,16.29,0,0,0-4.52-1c-.5-.05-1.1-.08-1.81-.08h-.52a19.28,19.28,0,0,0-2.34.23H343a1.29,1.29,0,0,1-.38.08l-1.13.3-.83.22-.9.3-.53.15-.3.15a.22.22,0,0,0-.15.08h-.07a14.32,14.32,0,0,0-3.69,2.48,14.52,14.52,0,0,0-4.44,7.68c-.05.2-.1.48-.15.83l-.08.53a7.61,7.61,0,0,0-.07.83,16.82,16.82,0,0,0,0,2.25,13.47,13.47,0,0,0,.3,2.19,5.82,5.82,0,0,0,.22.68.81.81,0,0,0,.08.37l.37,1.13a11.4,11.4,0,0,0,5.42,6,12,12,0,0,0,5.58,1.36,10,10,0,0,0,2.41-.3l.45-.08.45-.15h.15l.83-.3a8.7,8.7,0,0,0,1.65-.9,8.82,8.82,0,0,0,4-5.88,9.3,9.3,0,0,0,.08-3.53,10,10,0,0,0-.45-1.66,5.35,5.35,0,0,0-.68-1.43,8.54,8.54,0,0,0-2.18-2.26,7.09,7.09,0,0,0-2.87-1.05,6.89,6.89,0,0,0-2.86,0h-.07l-.23.07-.75.23a.21.21,0,0,0-.15.07.22.22,0,0,0-.15.08,4.9,4.9,0,0,0-1.13.6,5.93,5.93,0,0,0-2.33,6.17,2,2,0,0,0,.07.46l.15.37v.15a2.87,2.87,0,0,0,.45.76,3.85,3.85,0,0,0,1.06,1.28,5.08,5.08,0,0,0,2.48,1,2.47,2.47,0,0,0,.6.08,4.63,4.63,0,0,0,1.13-.15,1.29,1.29,0,0,1,.38-.08l.15-.07c.45-.15.73,0,.83.38l.37.82a.65.65,0,0,1-.37.91l-.15.07-.68.23a6.9,6.9,0,0,1-2.48.3,7.31,7.31,0,0,1-3.84-1.28,5.83,5.83,0,0,1-1.89-1.81,4.87,4.87,0,0,1-.75-1.2l-.15-.23v-.07l-.15-.38a5.82,5.82,0,0,0-.3-.75,9.53,9.53,0,0,1,.68-6.78,9.71,9.71,0,0,1,2.41-3.09,7.07,7.07,0,0,1,1.8-1.2l.3-.15.15-.07h.08l.53-.23v-.08l.45-.07a2.5,2.5,0,0,1,.38-.15l.15-.08a12.07,12.07,0,0,1,4.44-.37,11.59,11.59,0,0,1,4.59,1.43,12.3,12.3,0,0,1,3.84,3.38,22.84,22.84,0,0,1,1.35,2.34,13.94,13.94,0,0,1,.83,2.56,15.12,15.12,0,0,1,.23,5.42,13.75,13.75,0,0,1-1.88,5.42,15.1,15.1,0,0,1-4,4.52,15.76,15.76,0,0,1-2.64,1.58l-.38.15-.75.3-.3.15-.68.22c-.15.05-.32.11-.52.16l-.23.07a19.29,19.29,0,0,1-4.82.6,18.65,18.65,0,0,1-7.6-1.58,17.94,17.94,0,0,1-5.5-3.76,18.62,18.62,0,0,1-3.91-5.57l-.15-.38-.45-1v-.08l-.08-.3a6.73,6.73,0,0,1-.45-1.36,20.12,20.12,0,0,1-.68-3.31,24,24,0,0,1-.22-3.39c0-.35,0-.85.07-1.5l.08-.15v-.3a6.61,6.61,0,0,1,.22-1.43,22.75,22.75,0,0,1,6.25-12.35,21.88,21.88,0,0,1,5.8-4.29l.22-.15.53-.3,1-.38a.83.83,0,0,1,.22-.15l1.06-.45,1.43-.45.07-.08,1.21-.3a5.19,5.19,0,0,1,.6-.15.62.62,0,0,1,.23-.08,28.74,28.74,0,0,1,3.54-.6,34,34,0,0,1,3.53-.22,28.88,28.88,0,0,1,7.08,1.05,26.77,26.77,0,0,1,6.63,2.79,27.31,27.31,0,0,1,5.72,4.36,2.93,2.93,0,0,1,.37.45l.91.91.52.68a2,2,0,0,1,.38.52l.23.15c.6.86,1.25,1.86,1.95,3s1.18,2.29,1.58,3.24l.38.9.23.68.3.91Z"/><path class="cls-2" d="M222.4,165.65a1.2,1.2,0,0,1,1.36,1.35v2.94a1.2,1.2,0,0,1-1.36,1.35h-7c0,1.21,0,2.79-.07,4.74-.05,1.36-.1,2.46-.15,3.32,0,1.1,0,5.07-.08,11.89q-.15,13.56-.22,15.66,0,1.5-.15,7.08c-.11,4.41-.18,7.22-.23,8.43q-.67,17.68-1.73,32.44-.15,1.59-.3,4.14l-.15,1.13q-.23,2.79-.3,3.84c-.11,1-.21,2.09-.31,3.24a.81.81,0,0,1-.9.83H210a.81.81,0,0,1-.9-.83c-.15-1.1-.28-2.18-.38-3.24q-.07-1.12-.3-3.84l-.07-1.2c-.15-1.71-.25-3.06-.3-4.07q-.84-11.35-1.51-24.84a17.77,17.77,0,0,0-6.7-9.86,16.4,16.4,0,0,0-2.79-1.58,31.29,31.29,0,0,1-2.86,6.7,31,31,0,0,1-3.53,5c-.51.55-1,1.08-1.51,1.58L189,232l-.23.22-.07.08-2.34,2a24.57,24.57,0,0,1-2.71,1.81,35.53,35.53,0,0,1-20.1,6.4,38.63,38.63,0,0,1-18.36-4.82,30,30,0,0,1-3.47-2,35.55,35.55,0,0,1-9.18-8.59,36.85,36.85,0,0,1-4.22-6.85c-.35-.75-.63-1.4-.83-1.95l-.3-.68a.63.63,0,0,1,.38-.9l.83-.3a.65.65,0,0,1,.9.37l.23.6c.25.56.55,1.16.9,1.81.5,1,1,1.88,1.58,2.79.8,1.2,1.66,2.36,2.56,3.46a34.35,34.35,0,0,0,4.67,4.67q12,7.22,22.66,7.22a27.09,27.09,0,0,0,17.46-6.17,24.67,24.67,0,0,0,5.87-6.25l.16-.15a19.43,19.43,0,0,0,1.5-3.08,26.37,26.37,0,0,0,2-9.19,24.87,24.87,0,0,0-1.43-9.18l-.23-.53-.45-1.13-.23-.53c-.2-.45-.52-1.1-1-1.95s-.93-1.36-1.28-1.81l-.38-.45-.3-.45a1.91,1.91,0,0,1-.45-.45l-.38-.38a18.8,18.8,0,0,0-7.45-4.75,16.2,16.2,0,0,0-4.44-1c-.51,0-1.08-.08-1.74-.08h-.6a19,19,0,0,0-2.26.23H166a1.23,1.23,0,0,1-.38.07l-1,.23-.83.22-.83.3-.6.23a.81.81,0,0,1-.3.15.22.22,0,0,1-.15.08,15.11,15.11,0,0,0-3.69,2.41,14.45,14.45,0,0,0-4.29,7.45c-.05.2-.1.48-.15.83l-.08.52a6.23,6.23,0,0,0-.07.83,15.82,15.82,0,0,0,0,2.18,10.44,10.44,0,0,0,.37,2.19,1.73,1.73,0,0,0,.15.6,1.29,1.29,0,0,1,.08.38l.38,1a11.07,11.07,0,0,0,5.34,5.87,10.93,10.93,0,0,0,5.34,1.36,11.9,11.9,0,0,0,2.34-.23l.53-.15.45-.07v-.08h.07l.83-.3a8.87,8.87,0,0,0,1.66-.83,8.38,8.38,0,0,0,2.48-2.48,8,8,0,0,0,1.36-3.24,9,9,0,0,0,.07-3.46c-.1-.55-.22-1.11-.37-1.66a9.44,9.44,0,0,0-.68-1.35,7.49,7.49,0,0,0-2.19-2.19,7.84,7.84,0,0,0-5.57-1h-.07a.56.56,0,0,1-.23.07l-.37.08-.31.15a.21.21,0,0,0-.14.08H165a8.29,8.29,0,0,0-1.12.67,5.21,5.21,0,0,0-1.59,1.74,5.74,5.74,0,0,0-.75,4.21,2.32,2.32,0,0,1,.15.45l.08.38.07.15a5.29,5.29,0,0,0,.38.75,3.86,3.86,0,0,0,1.13,1.21,4.49,4.49,0,0,0,2.33,1,2.47,2.47,0,0,0,.6.08,3.88,3.88,0,0,0,1.06-.15,2.13,2.13,0,0,1,.45-.08l.15-.07a.57.57,0,0,1,.83.38l.3.82a.66.66,0,0,1-.38.91l-.15.07a5.19,5.19,0,0,1-.6.15,8.08,8.08,0,0,1-2.41.38,7.19,7.19,0,0,1-3.76-1.21,7,7,0,0,1-1.88-1.8,7.32,7.32,0,0,1-.76-1.21l-.07-.22h-.08l-.15-.45a7.62,7.62,0,0,1-.22-.76,9.51,9.51,0,0,1-.38-3.16,9.26,9.26,0,0,1,1-3.46,8.48,8.48,0,0,1,2.41-3,13.45,13.45,0,0,1,1.73-1.21.77.77,0,0,0,.3-.15l.15-.07h.08l.52-.23.38-.15a1.15,1.15,0,0,0,.45-.15h.07a11.83,11.83,0,0,1,4.37-.38,11.14,11.14,0,0,1,4.52,1.43,11.87,11.87,0,0,1,3.76,3.32,12.21,12.21,0,0,1,1.28,2.26,14.45,14.45,0,0,1,.83,2.48,14.75,14.75,0,0,1,.23,5.34,14.49,14.49,0,0,1-1.81,5.27,13.61,13.61,0,0,1-3.92,4.37,10.82,10.82,0,0,1-2.63,1.58l-.3.15-.75.3-.3.15-.68.23a2.39,2.39,0,0,1-.53.15l-.23.07a18.29,18.29,0,0,1-12.12-1,19.92,19.92,0,0,1-5.42-3.62,18.34,18.34,0,0,1-3.76-5.49l-.15-.38-.45-1-.15-.3a10.55,10.55,0,0,1-.38-1.36,20.35,20.35,0,0,1-.68-3.24,17.9,17.9,0,0,1-.15-3.31c0-.35,0-.85.08-1.5v-.46c.1-.6.17-1.08.22-1.43a22.13,22.13,0,0,1,6.18-12,22.56,22.56,0,0,1,5.57-4.22l.3-.07c.25-.15.42-.25.53-.3l.9-.46a.61.61,0,0,0,.23-.07l1.05-.45,1.43-.46,1.2-.37a4.93,4.93,0,0,1,.61-.15l.22-.08a24.4,24.4,0,0,1,3.39-.6,22.92,22.92,0,0,1,3.54-.15,26,26,0,0,1,6.92,1,29.31,29.31,0,0,1,6.48,2.71,27.19,27.19,0,0,1,5.57,4.29c.1.1.22.25.38.45a4.14,4.14,0,0,1,.82.91l.61.6c.1.15.22.32.37.52l.15.23c.6.8,1.26,1.78,2,2.94a23.24,23.24,0,0,1,1.51,3.16l.37.83.23.67.3.83.23.83a32.31,32.31,0,0,1,1.05,12.72,22.62,22.62,0,0,1,4.89,2.71,20.44,20.44,0,0,1,2.94,2.56c0-1.1,0-2.51-.08-4.21q-.08-5.43-.15-7.08c-.05-1.36-.1-6.57-.15-15.66q-.15-10.23-.15-11.89c0-.81,0-1.91-.07-3.32-.05-1.95-.11-3.53-.15-4.74H124.54a1.2,1.2,0,0,1-1.36-1.35V167a1.2,1.2,0,0,1,1.36-1.35Z"/><path class="cls-2" d="M241.75,165.57a1.33,1.33,0,0,1,1,.38,1.31,1.31,0,0,1,.38,1v2.94a1.27,1.27,0,0,1-.38.91,1.22,1.22,0,0,1-1,.45h-5.42c0,1.25,0,2.83-.07,4.74,0,1.46-.08,2.56-.08,3.31q-.08,1.66-.15,11.82-.08,13.64-.15,15.66c0,1.1-.1,3.49-.15,7.15-.1,4.37-.18,7.15-.23,8.36q-.67,17.69-1.8,32.44c0,1-.15,2.36-.3,4.07l-.08,1.13c-.15,1.81-.28,3.09-.38,3.84-.15,1.76-.25,2.83-.3,3.23a.73.73,0,0,1-.3.61.81.81,0,0,1-.6.22h-.83a1,1,0,0,1-.6-.22,1.17,1.17,0,0,1-.3-.61c0-.4-.15-1.47-.3-3.23q-.15-1.12-.3-3.84l-.15-1.13c-.11-1.76-.21-3.11-.31-4.07q-1-14.74-1.73-32.44-.08-1.81-.22-8.43-.15-5.43-.15-7.08-.07-2-.23-15.58c-.05-6.83-.07-10.79-.07-11.9-.05-.9-.11-2-.16-3.31,0-2-.07-3.54-.07-4.74h-5.8a1.23,1.23,0,0,1-1-.45,1.26,1.26,0,0,1-.37-.91v-2.94a1.3,1.3,0,0,1,.37-1,1.35,1.35,0,0,1,1-.38Z"/><path class="cls-2" d="M307.47,165.57a1.2,1.2,0,0,1,1.36,1.35v2.94a1.2,1.2,0,0,1-1.36,1.36h-6.7c0,1.3,0,2.91-.07,4.81-.05,1.31-.1,2.41-.15,3.32q0,1.65-.08,11.82-.15,13.54-.22,15.58,0,1.65-.15,7.08c-.11,4.36-.18,7.17-.23,8.43q-.37,10.53-1,20.4h-6.32q-.22-3.76-.38-7.3a9,9,0,0,1-.38-1.06q-3.15-11.6-15.8-19a64.27,64.27,0,0,0-24.32-7.75A5.87,5.87,0,0,1,247,205.4c-1.51-2.06-1.48-3.89.07-5.5q22.66-19.2,43.82-23.49V176c0-1.85-.11-3.46-.15-4.81H240a1.2,1.2,0,0,1-1.35-1.36v-2.94a1.19,1.19,0,0,1,1.35-1.35Z"/><path class="cls-2" d="M276.11,231.39a15,15,0,0,1,1.05,5.27A18.46,18.46,0,0,1,277,240q-.08.3-.15.75l-.07.38a.51.51,0,0,1-.45.37c0,.4-.13.83-.23,1.28v.08c-.1.25-.18.45-.23.6l-.07.15v.15l-.15.3a2.09,2.09,0,0,1-.15.45l-.08.16a3.5,3.5,0,0,1-.22.37.32.32,0,0,1-.08.23,10.9,10.9,0,0,1-3.54,4.06,11.61,11.61,0,0,1-5.12,2.19,14.79,14.79,0,0,1-2,.15,11.57,11.57,0,0,1-3.76-.61l-.3-.07-.68-.23a.21.21,0,0,0-.15-.07l-.3-.15-.53-.23-.15-.08-.45-.22a12.19,12.19,0,0,1-2.34-1.43,13.84,13.84,0,0,1-3.91-4.29,12.75,12.75,0,0,1-1.81-5.65,14.7,14.7,0,0,1,.68-5.64l.23-.68a3,3,0,0,0,.15-.38l.37-1,.3-.52a1.25,1.25,0,0,1,.31-.46l.07-.15.23-.45c0-.05,0-.07.07-.07a.22.22,0,0,0,.08-.15,1.61,1.61,0,0,1,.3-.38l.07-.15a4.31,4.31,0,0,0,.38-.45l.08-.15a13.49,13.49,0,0,1,9.41-4.67h.9a13.37,13.37,0,0,1,7.75,2.33,15.88,15.88,0,0,1,2.94,2.79,14.42,14.42,0,0,1,1,1.43Q275.81,230.72,276.11,231.39Z"/><path class="cls-2" d="M258.47,202.61q21.52,6.16,33,21.23c-.05-.6-.08-1.18-.08-1.73-.05-1.31-.12-4.09-.22-8.36q-.08-5.42-.15-7.08c-.05-1.3-.11-6.47-.15-15.5q-.07-4-.08-6.18Q275.25,189.58,258.47,202.61Z"/><path class="cls-2" d="M272,240.05a6,6,0,0,0-.53-2.78,5.27,5.27,0,0,0-1.8-2.11l-.61-.38-.15-.07-.22-.15h-.15a.07.07,0,0,0-.08-.08,5.27,5.27,0,0,0-1.2-.3,4.78,4.78,0,0,0-2.34.45,4.13,4.13,0,0,0-1.73,1.36,1.18,1.18,0,0,0-.3.45l-.07.15-.08.07-.08.23h-.07c-.1.35-.18.65-.23.9a4.06,4.06,0,0,0,.08,1.74,2.73,2.73,0,0,0,.6,1.2,2.68,2.68,0,0,0,.75.75,2,2,0,0,0,.53.38l.23.15c.3.15.37.35.22.6l-.22.53a.43.43,0,0,1-.61.3l-.22-.08a7.52,7.52,0,0,1-.9-.45,4.21,4.21,0,0,1-1.21-1,4.85,4.85,0,0,1-1.13-1.73,6,6,0,0,1-.45-2.63,4.06,4.06,0,0,1,.3-1.51V236c-.05,0-.05,0,0-.08l.08-.22a.8.8,0,0,0,.15-.31v-.07a5.21,5.21,0,0,1,.37-.75,7.83,7.83,0,0,1,2.56-2.56,7.75,7.75,0,0,1,3.84-1.13h.15a7,7,0,0,1,2,.3.85.85,0,0,1,.22.07l.68.23h0l.15.08a7.52,7.52,0,0,1,.9.45,8.35,8.35,0,0,0-2.56-1.88,9.19,9.19,0,0,0-3.76-.76,9.4,9.4,0,0,0-1.66.15,8.36,8.36,0,0,0-2.56,1,6.13,6.13,0,0,0-2,1.88,4.64,4.64,0,0,0-.38.53.21.21,0,0,0-.07.15.22.22,0,0,0-.08.15.21.21,0,0,0-.07.15.22.22,0,0,0-.08.15,6.16,6.16,0,0,0-.52,1.51,12.07,12.07,0,0,0-.46,3.16,8.68,8.68,0,0,0,.68,2.94,7.59,7.59,0,0,0,1.81,2.56,9.54,9.54,0,0,0,1.43,1.05q0,.08.15.15a.91.91,0,0,1,.23.15l.15.08.15.07.22.08.45.22.15.08a6.41,6.41,0,0,0,3.09.45,6.1,6.1,0,0,0,3-1,7.12,7.12,0,0,0,2.26-2.18l.08-.15a.21.21,0,0,0,.07-.15.22.22,0,0,0,.08-.15.91.91,0,0,0,.15-.23l.15-.3v-.08a.69.69,0,0,0,.15-.22v-.08c.15-.5.23-.75.23-.75S271.92,240.5,272,240.05Z"/><path class="cls-2" d="M98.92,37.78A15,15,0,0,1,100,43.05a18.31,18.31,0,0,1-.15,3.31,7.3,7.3,0,0,0-.15.76l-.08.37a.52.52,0,0,1-.45.38c-.05.4-.13.83-.23,1.28v.08c-.1.25-.17.45-.22.6l-.08.15v.15l-.15.3a2.09,2.09,0,0,1-.15.45l-.07.15c-.06.1-.13.23-.23.38a.29.29,0,0,1-.08.22,10.91,10.91,0,0,1-3.53,4.07,11.69,11.69,0,0,1-5.12,2.18,13.5,13.5,0,0,1-2,.15,11.84,11.84,0,0,1-3.76-.6l-.3-.08-.68-.22a.22.22,0,0,0-.15-.08l-.3-.15-.53-.22-.15-.08-.45-.22A12.11,12.11,0,0,1,78.6,55a14,14,0,0,1-3.92-4.29A12.73,12.73,0,0,1,72.88,45a14.55,14.55,0,0,1,.67-5.65l.23-.67a3.77,3.77,0,0,0,.15-.38l.38-1,.3-.53a1.18,1.18,0,0,1,.3-.45L75,36.2l.23-.45s0-.08.07-.08a.22.22,0,0,0,.08-.15,1.6,1.6,0,0,1,.3-.37l.08-.15a4.46,4.46,0,0,0,.37-.45l.08-.16A13.19,13.19,0,0,1,80.63,31a12.83,12.83,0,0,1,5-1.28h.9a13.4,13.4,0,0,1,7.76,2.33,15.2,15.2,0,0,1,2.93,2.79,14.42,14.42,0,0,1,1,1.43Q98.62,37.1,98.92,37.78Z"/><path class="cls-2" d="M94.78,46.44a6.05,6.05,0,0,0-.52-2.79,5.41,5.41,0,0,0-1.81-2.1l-.6-.38-.15-.08-.23-.15h-.15s0-.07-.08-.07a5.27,5.27,0,0,0-1.2-.3,4.74,4.74,0,0,0-2.33.45A4.22,4.22,0,0,0,86,42.37a1.21,1.21,0,0,0-.3.46L85.6,43l-.08.07-.07.23h-.08c-.1.35-.17.65-.22.9a4,4,0,0,0,.07,1.73,2.76,2.76,0,0,0,.6,1.21,2.71,2.71,0,0,0,.76.75,2,2,0,0,0,.52.38l.23.15c.3.15.38.35.23.6l-.23.53a.42.42,0,0,1-.6.3l-.23-.08a7.52,7.52,0,0,1-.9-.45,4.54,4.54,0,0,1-1.21-1,4.94,4.94,0,0,1-1.13-1.73A6,6,0,0,1,82.81,44a4,4,0,0,1,.3-1.51v-.08c0,.05,0,0,0-.07l.08-.23a.81.81,0,0,0,.15-.3V41.7a6,6,0,0,1,.38-.76,7.68,7.68,0,0,1,6.39-3.68h.16a6.93,6.93,0,0,1,2,.3.53.53,0,0,1,.22.07l.68.23h0l.15.07a8.59,8.59,0,0,1,.91.45A8.6,8.6,0,0,0,91.7,36.5a9.4,9.4,0,0,0-3.77-.75,9.21,9.21,0,0,0-1.65.15,8.17,8.17,0,0,0-2.56,1,6.07,6.07,0,0,0-2,1.88,3.54,3.54,0,0,0-.37.53.22.22,0,0,0-.08.15.21.21,0,0,0-.07.15.22.22,0,0,0-.08.15.21.21,0,0,0-.07.15,5.56,5.56,0,0,0-.53,1.51A12,12,0,0,0,80,44.56a8.61,8.61,0,0,0,.67,2.93,7.53,7.53,0,0,0,1.81,2.56,9,9,0,0,0,1.43,1.06s0,.1.15.15a.91.91,0,0,1,.23.15l.15.07.15.08.23.07.45.23.15.08a6.35,6.35,0,0,0,3.08.45,6.17,6.17,0,0,0,3-1,7.2,7.2,0,0,0,2.25-2.18l.08-.16a.21.21,0,0,0,.07-.15.22.22,0,0,0,.08-.15.83.83,0,0,0,.15-.22l.15-.3v-.08a.76.76,0,0,0,.15-.23v-.07c.15-.5.23-.75.23-.75S94.73,46.89,94.78,46.44Z"/><path d="M103.72,52.34q.66-4.87,6.19-3.29,4.32,1.61,3.47,7.88a23.28,23.28,0,0,1-9.19,18q-9,7.23-19.7,4.13a33.16,33.16,0,0,1-16.79-11q-6.93-8.16-6.94-16,.77-3.09,4.6-2.81,4.78,1.41,4.13,7.69.38,8.25,6.66,11.91t14,.66Q102.78,65.38,103.72,52.34Z"/></svg>