<?xml version="1.0" encoding="utf-8"?>
<!-- Generator: Adobe Illustrator 24.2.3, SVG Export Plug-In . SVG Version: 6.00 Build 0)  -->
<svg version="1.1" id="Layer_1" xmlns="http://www.w3.org/2000/svg" xmlns:xlink="http://www.w3.org/1999/xlink" x="0px" y="0px"
	 viewBox="0 0 1080 1080" style="enable-background:new 0 0 1080 1080;" xml:space="preserve">
<style type="text/css">
	.st0{fill-rule:evenodd;clip-rule:evenodd;fill:#E6E7E8;}
	.st1{fill:#E6E7E8;}
	.st2{fill:#ED1F24;}
</style>
<g>
	<path class="st0" d="M1047.64,695.11c0.67-12.69,1.35-25.38,2.02-38.07c-0.67-0.14-1.34-0.29-2.01-0.43
		c-4.26,10.72-8.62,21.41-12.76,32.18c-9.77,25.38-17.43,51.83-29.71,75.92c-11.65,22.83-26.81,44.22-42.76,64.39
		c-18.49,23.39-39.05,45.22-59.6,66.87c-20.99,22.11-44.66,41-71.97,55.15c-38.68,20.04-78.91,36.54-121.52,44.99
		c-41.59,8.25-83.81,14.02-126.02,18.14c-32.02,3.13-64.55,3.71-96.71,2.23c-36.7-1.68-71.3-14.15-105.06-28.14
		c-32.17-13.34-64.15-27.16-96.13-40.94c-59.2-25.51-112.34-60.06-157.17-106.71C82.7,793.3,49.35,738.46,33.55,674.47
		c-7.59-30.75-10.27-62.72-15.09-94.15c-1.04-6.8-2.02-13.64-2.5-20.49c-2.94-42.57,5.87-83.42,20.52-122.85
		c15.38-41.39,29.81-83.57,50.06-122.6c25.39-48.95,52.33-97.79,92.81-136.89c37.81-36.52,82.06-63.18,130.34-83.22
		c20.12-8.36,40.59-16.36,61.58-22.02c18.68-5.04,38.21-7.66,57.54-9.43c16.42-1.51,33.15,0.61,49.65-0.46
		c42.11-2.72,82.33,6.05,122.21,18c21.29,6.38,42.59,12.93,64.21,17.99c27.85,6.52,52.53,18.7,76.71,33.94
		c28.08,17.7,58.5,31.64,87.62,47.73c43.77,24.2,85.05,52.26,122.01,85.96c33.4,30.46,62.82,65.06,80.29,107.05
		c15.85,38.11,29.34,77.54,31.07,119.63c1,24.49,2.19,49,2.37,73.51c0.09,11.75,0,24.14-3.48,35.15
		c-6.31,19.99-6.24,39.94-5.76,60.39c0.27,11.3-2.43,22.67-3.79,34.01C1050.49,695.51,1049.06,695.31,1047.64,695.11z
		 M179.53,696.54c1.94-9.24,2.89-16.12,4.86-22.68c4.61-15.35,14.46-23,29.1-23.36c14.96-0.37,26.52,6.26,30.67,21.17
		c3.22,11.56,5.04,24.46,3.4,36.2c-2.43,17.37-7.36,34.64-13.39,51.15c-3.73,10.2-2.09,16.54,5.77,22.81
		c27.79,22.15,54.55,45.74,83.45,66.33c29.86,21.28,60.63,41.87,93.07,58.79c37.28,19.45,76.96,33.99,119.78,37.09
		c35.82,2.6,71.3-0.64,105.98-8.87c28.18-6.68,55.95-15.67,83.15-25.68c19.96-7.35,39.53-16.61,57.78-27.52
		c26.05-15.58,51.55-32.44,71.74-55.75c15.45-17.84,32.62-34.62,45.43-54.21c21.22-32.44,40.58-66.18,52.46-103.65
		c10.05-31.7,22.13-62.46,23.46-96.65c1.4-35.9-0.1-70.72-10.29-105.54c-11.49-39.29-29.31-75.55-48.74-111.07
		c-17.39-31.78-39.15-60.85-65.94-85.4c-19.06-17.46-38.11-36.16-60.35-48.6c-33.36-18.67-68.92-33.88-104.67-47.66
		c-28.58-11.02-58.68-18.3-88.38-26.21c-38.49-10.25-77.75-4.48-116.72-3.8c-6.08,0.11-12.25,1.04-18.2,2.39
		c-26.02,5.92-52.04,11.9-77.93,18.36c-10.7,2.67-21.16,6.35-31.59,10c-14.34,5.01-29.32,8.94-42.65,15.96
		c-31.58,16.62-62.53,34.01-90.84,56.53c-27.79,22.11-50.91,48.07-67.81,78.04c-19.81,35.12-34.41,73.23-50.56,110.35
		c-3.76,8.64-7.14,18.76-6.31,27.79c1.66,18,4.89,36.17,10.12,53.46c10.62,35.07,22.11,69.95,35.01,104.25
		c7.62,20.27,18.49,39.33,28.2,58.79C171.29,684.74,175.06,689.58,179.53,696.54z M602.32,948.03c0.12,1.08,0.24,2.15,0.37,3.22
		c24.75-1.78,49.51-3.48,74.25-5.36c13.75-1.05,28.08-0.29,41.07-4.06c30.27-8.78,61.02-15.63,89.77-30.1
		c44.23-22.26,86.74-46.56,123.05-80.53c10.19-9.54,22.74-18.76,28.05-30.83c10.89-24.72,17.86-51.2,25.98-77.1
		c12.55-40.06,19.27-80.95,17.72-123.14c-0.93-25.36,1.62-51.03-1.31-76.1c-4.97-42.53-19.23-83.04-34.77-122.73
		c-12.74-32.55-31.57-61.95-51.1-91.08c-24.33-36.31-52.69-69.02-85.7-96.86c-24.8-20.92-53.07-38.27-81.5-54.17
		c-22.86-12.79-48.13-21.34-72.59-31.15c-17.72-7.11-35.44-15-53.91-19.33c-26.4-6.18-53.33-11.21-80.31-13.58
		c-66.66-5.87-131.29,2.78-190.96,35.11c-32.36,17.54-63.73,36.9-95.55,55.46c-58.38,34.06-97.34,84.82-124.56,145.49
		c-9.48,21.13-18.54,42.49-26.56,64.21c-4.42,11.97-6.26,24.89-9.26,37.38c2.64-1.61,3.42-3.72,4.33-5.77
		c14.75-33.29,26.9-68.07,44.82-99.57c41.9-73.67,108.39-119.39,184.99-150.96c56.34-23.22,115.51-36.03,176.28-42.05
		c38.01-3.77,75.13-0.49,111.43,10.26c33.6,9.96,67.1,20.6,99.87,32.99c51.14,19.32,97.31,47.1,136.52,85.82
		c27.7,27.36,51.26,57.54,70.6,91.55c21.17,37.25,38.64,75.81,50.77,116.82c16.22,54.84,12.87,109.25-3.31,163.57
		c-10.59,35.56-25.04,69.32-42.76,101.87c-35.37,65-83.86,117.32-148.68,153.47C724.28,921.48,665.09,940.41,602.32,948.03z
		 M945.81,828.14c-38.34,31.87-77.58,60.92-122.04,82.91c-49.52,24.49-101.24,41.16-156.5,42.78c-56.95,1.68-114.01,0.96-171,0
		c-22.16-0.38-44.85-1.88-66.28-7.07c-48.44-11.71-93.7-32.03-135.92-58.59c-36.42-22.91-72.21-46.81-108.57-69.82
		c-25.08-15.88-46.9-34.96-62.91-60.15c-10.52-16.55-19.33-34.68-15.52-54.31c3.35-17.27-1.17-31.73-7.21-46.74
		c-1.43-3.54-2.56-7.2-3.73-10.83c-4.97-15.31-9.9-30.62-14.85-45.94c-1.39,0.27-2.78,0.53-4.17,0.8
		c4.35,29.73,8.25,59.55,13.14,89.19c10.44,63.24,39.21,117.16,86.91,159.75c27.06,24.16,56.12,46.31,85.75,67.3
		c22.28,15.78,46.75,28.51,70.54,42.07c8.52,4.85,17.63,9.13,26.98,11.96c18.17,5.5,36.6,10.27,55.12,14.45
		c23.45,5.29,46.91,11.64,70.72,14c29.77,2.95,59.89,2.77,89.86,3.13c48.24,0.57,95.68-3.43,141.9-19.78
		c30.06-10.63,61.42-17.57,89.28-33.94c22.02-12.94,44.83-24.76,65.8-39.23c24.99-17.24,48.01-37.08,61.87-65.33
		C937.86,838.83,942.17,833.65,945.81,828.14z M293.39,945.52c0.44-0.71,0.87-1.43,1.31-2.14c-1.18-0.94-2.33-1.94-3.55-2.83
		c-34.8-25.34-70.23-49.89-104.16-76.35c-16.84-13.14-33.05-28.2-45.83-45.2c-25.98-34.52-45.71-72.88-53.98-115.75
		c-6.45-33.43-13.25-67.17-14.99-101.03c-1.86-36.28,1.78-72.87,3.52-109.3c0.55-11.44,2.71-22.8,4.14-34.2
		c1.47-11.76,3.91-23.49,4.19-35.28c0.55-22.67-0.64-45.38-0.06-68.05c0.27-10.64,2.97-21.21,4.57-31.82
		c-3.52,3.1-5.65,6.65-7.29,10.41c-19.14,43.95-37.59,88.14-47.67,135.3c-2.31,10.81-7.56,21.24-8.38,32.08
		c-3.19,42.26-3.44,84.53,4.48,126.49c9.38,49.69,23.24,97.77,50.22,141.1c27.94,44.88,62.91,83.6,105.82,114.51
		c20.1,14.49,41.62,27.08,63.06,39.57C263.16,931.41,278.49,938.09,293.39,945.52z M1050.77,610.65
		c9.4-88.19,8.19-174.39-33.85-255.93c-26.04-50.51-139.46-155.29-180.38-161.63C968.24,302.14,1039.41,440.81,1050.77,610.65z
		 M415.28,96.98c-29.27,2.86-57.66,11.42-85,23.06c-22.15,9.44-43.69,20.33-65.28,31.02c-32.79,16.23-64.73,34.09-92.39,58.26
		c-15.76,13.77-31.85,28.04-44.01,44.82c-11.41,15.75-17.6,35.23-26.5,52.86c-17.11,33.91-9.47,70.32-11.37,105.96
		c1.87-1.19,2.84-2.62,3.51-4.18c15.76-36.6,29.98-73.96,47.66-109.6c15.92-32.08,37.3-60.95,65.21-84.31
		c42.7-35.72,91.18-62.45,139.84-88.61C368.69,114.57,392.44,106.62,415.28,96.98z M229.85,778.2
		c-12.07,30.5,0.33,63.96,29.85,81.83c22.52,13.64,44.39,28.67,67.96,40.2c28.65,14.01,58.39,26.07,88.39,36.94
		c25.2,9.14,52.31,8.29,78.82,9.81c2.66,0.16,5.35-0.26,11.1-0.59C414.23,922.58,321.04,866.84,229.85,778.2z M159.97,211.26
		c2.85-1.88,5.93-3.49,8.52-5.67c38.88-32.74,83.21-56.55,128.96-77.79c34.39-15.97,69.26-30.78,107.63-35.04
		c15.89-1.77,31.49-6.67,47.4-7.81c70.61-5.1,139.07,7.61,206.65,26.63c13.32,3.75,26.65,7.41,39.98,11.11
		c0.31-0.9,0.62-1.79,0.93-2.69c-11.51-4.36-22.84-9.29-34.57-12.93c-15.94-4.94-32.29-8.53-48.27-13.34
		c-16.38-4.93-32.54-10.55-48.76-16.01c-24.91-8.39-50.81-8.38-76.44-7.43c-37.9,1.4-75.75,4.41-113.56,7.47
		c-7.77,0.63-15.26,4.54-22.92,6.8c-12.76,3.77-25.94,6.43-38.25,11.33c-34.33,13.65-66.63,31.28-96.53,53.07
		C197.13,166.17,175.05,185.02,159.97,211.26z M974.7,783.7c3.44-3.97,7.49-7.56,10.2-11.98c10.4-16.96,21.18-33.77,30.24-51.44
		c6.59-12.84,13.45-26.56,15.46-40.57c10.54-73.5,5.72-145.63-24.67-214.56c-7.74-17.55-16.27-34.75-24.43-52.11
		c-1.01,0.29-2.03,0.57-3.04,0.86C1026.15,537.7,1018.66,660.61,974.7,783.7z M160.77,679.56c-13.36-31.28-28.76-63.79-41.18-97.4
		c-12.39-33.54-21.79-68.18-31.99-100.7c-18.21,40.88-3.73,131.2,27.17,193.46C131.17,661.69,139.18,662.69,160.77,679.56z
		 M815.95,185.51c93.22,90.63,163.69,196.3,211.41,317.21C993.44,372.58,926.86,264.18,815.95,185.51z M555.42,1009.87
		c-25.87-1.93-51.91-2.62-77.56-6.15c-25.28-3.48-50.17-9.82-75.23-14.91C451.63,1010.15,503.01,1014.02,555.42,1009.87z
		 M999.05,768.91c-1.53-1.15-3.07-2.3-4.6-3.45c-17.14,24.18-34.3,48.37-51.44,72.55c1.8,1.27,3.6,2.54,5.4,3.81
		C965.29,817.51,982.17,793.21,999.05,768.91z M720.22,137.88c27.95,16.01,53.9,30.88,81.66,46.79
		C779.72,159.03,753.41,144.88,720.22,137.88z"/>
	<path class="st1" d="M360.15,335.32c1.64,0,2.46,0.82,2.46,2.46v5.33c0,1.64-0.82,2.46-2.46,2.46H212.81
		c-1.64,0-2.46-0.82-2.46-2.46v-5.33c0-1.64,0.82-2.46,2.46-2.46H360.15z M348.82,396.5c2.27,8.1,2.91,16.21,1.91,24.31
		c-1,7.92-3.51,15.34-7.51,22.26c-1.82,3.19-4.01,6.24-6.55,9.15c-0.91,1-1.82,2-2.73,3c-0.09,0.09-0.18,0.18-0.27,0.27
		c-0.09,0.09-0.23,0.23-0.41,0.41l-0.14,0.14c-1.46,1.36-2.96,2.59-4.51,3.69c-1.55,1.19-3.14,2.32-4.78,3.41
		c-11.93,7.92-24.4,11.88-37.42,11.88c-11.56,0-22.9-2.96-34-8.88c-2.28-1.18-4.42-2.46-6.42-3.82
		c-6.65-4.28-12.38-9.56-17.21-15.84c-3-3.91-5.6-8.19-7.78-12.84c-0.64-1.36-1.14-2.59-1.5-3.69l-0.55-1.23
		c-0.27-0.73-0.05-1.23,0.68-1.5l1.5-0.68c0.73-0.27,1.27-0.04,1.64,0.68l0.55,1.23c0.36,1,0.86,2.1,1.5,3.28c1,1.82,2,3.55,3,5.19
		c1.45,2.28,3.05,4.46,4.78,6.56c2.55,3.1,5.41,5.92,8.6,8.47c14.93,9.01,28.95,13.52,42.06,13.52c12.11,0,22.94-3.83,32.5-11.47
		c4.91-3.83,8.56-7.69,10.93-11.61c0.09-0.09,0.18-0.18,0.27-0.27c1.09-1.91,2-3.82,2.73-5.73c2.27-5.46,3.5-11.11,3.69-16.93
		c0.18-5.92-0.68-11.65-2.59-17.21l-0.41-0.96l-0.82-2.19l-0.41-0.82c-0.37-0.82-1.05-2.05-2.05-3.69c-0.82-1.36-1.59-2.5-2.32-3.41
		l-0.55-0.82l-0.68-0.68c-0.18-0.27-0.46-0.59-0.82-0.95c-0.27-0.27-0.5-0.5-0.68-0.68c-4.01-4.1-8.65-7.05-13.93-8.88
		c-2.73-1-5.46-1.59-8.19-1.78c-0.91-0.09-2-0.14-3.28-0.14c-0.27,0-0.59,0-0.96,0c-1.82,0.09-3.23,0.23-4.23,0.41
		c-0.18,0-0.32,0-0.41,0c-0.27,0.09-0.5,0.14-0.68,0.14l-2.05,0.55l-1.5,0.41l-1.64,0.55l-0.96,0.27c-0.19,0.09-0.37,0.18-0.55,0.27
		c-0.09,0-0.18,0.05-0.27,0.14h-0.14c-2.37,1.1-4.6,2.6-6.69,4.51c-4.1,3.73-6.78,8.38-8.06,13.93c-0.09,0.37-0.19,0.87-0.27,1.51
		l-0.14,0.95c-0.09,0.73-0.14,1.23-0.14,1.5c-0.09,1.55-0.09,2.92,0,4.1c0.09,1.46,0.27,2.78,0.55,3.96
		c0.09,0.36,0.22,0.78,0.41,1.23c0,0.28,0.04,0.5,0.14,0.68l0.68,2.05c1.91,4.83,5.19,8.47,9.83,10.92
		c3.18,1.64,6.55,2.46,10.1,2.46c1.46,0,2.91-0.18,4.37-0.55l0.82-0.14l0.82-0.27h0.14h0.14l1.5-0.54c1.09-0.46,2.09-1,3-1.64
		c1.82-1.18,3.41-2.73,4.78-4.64c1.18-1.82,2-3.83,2.46-6.01c0.46-2.09,0.5-4.23,0.14-6.42c-0.18-1-0.46-2-0.82-3
		c-0.27-0.91-0.68-1.78-1.23-2.6c-1.09-1.64-2.41-3-3.96-4.1c-1.55-1-3.28-1.64-5.19-1.91c-1.73-0.36-3.46-0.36-5.19,0h-0.14
		l-0.41,0.14l-1.36,0.41c-0.09,0-0.18,0.04-0.27,0.14c-0.09,0-0.18,0.05-0.27,0.14c-0.73,0.27-1.41,0.63-2.05,1.09
		c-1.28,0.91-2.28,2-3,3.28c-1.46,2.46-1.87,5.1-1.23,7.92c0,0.18,0.04,0.46,0.14,0.82l0.27,0.68v0.27
		c0.18,0.46,0.46,0.91,0.82,1.37c0.45,0.91,1.09,1.68,1.91,2.32c1.37,1,2.87,1.59,4.51,1.78c0.36,0.09,0.73,0.14,1.09,0.14
		c0.64,0,1.32-0.09,2.05-0.27c0.27-0.09,0.5-0.14,0.68-0.14l0.27-0.14c0.82-0.27,1.32-0.04,1.5,0.68l0.68,1.5
		c0.27,0.73,0.04,1.28-0.68,1.64l-0.27,0.14c-0.27,0.09-0.68,0.23-1.23,0.41c-1.46,0.46-2.96,0.64-4.51,0.55
		c-2.46-0.09-4.78-0.86-6.96-2.32c-1.37-0.82-2.5-1.91-3.41-3.28c-0.55-0.64-1-1.37-1.37-2.19l-0.27-0.41v-0.14l-0.27-0.68
		c-0.18-0.55-0.37-1-0.55-1.36c-0.55-2-0.73-4-0.55-6.01c0.18-2.19,0.77-4.28,1.77-6.28c1.09-2.19,2.55-4.05,4.37-5.6
		c1-0.91,2.09-1.64,3.28-2.18c0.18-0.09,0.36-0.18,0.55-0.27l0.27-0.14h0.14l0.96-0.41v-0.14l0.82-0.14
		c0.18-0.09,0.41-0.18,0.68-0.27l0.27-0.14c2.64-0.73,5.33-0.96,8.06-0.68c2.91,0.27,5.69,1.14,8.33,2.59
		c2.73,1.55,5.05,3.6,6.96,6.14c0.91,1.37,1.73,2.78,2.46,4.24c0.64,1.46,1.14,3,1.5,4.64c0.73,3.19,0.86,6.47,0.41,9.83
		c-0.46,3.55-1.6,6.83-3.41,9.83c-1.82,3.19-4.23,5.92-7.24,8.19c-1.46,1.09-3.05,2.05-4.78,2.87l-0.68,0.27l-1.37,0.55
		c-0.18,0.09-0.37,0.18-0.55,0.27l-1.23,0.41c-0.27,0.09-0.59,0.18-0.96,0.27l-0.41,0.14c-2.82,0.73-5.74,1.09-8.74,1.09
		c-4.83,0-9.42-0.95-13.79-2.87c-3.73-1.64-7.06-3.91-9.97-6.83c-2.91-2.82-5.28-6.19-7.1-10.1l-0.27-0.68l-0.82-1.91v-0.13
		l-0.14-0.55c-0.46-1.09-0.73-1.91-0.82-2.46c-0.54-1.82-0.95-3.82-1.23-6.01c-0.27-1.91-0.41-3.96-0.41-6.15
		c0-0.64,0.05-1.55,0.14-2.73l0.14-0.27v-0.14v-0.41c0.09-1.18,0.23-2.05,0.41-2.6c1.46-8.65,5.23-16.11,11.33-22.39
		c3.09-3.19,6.6-5.78,10.52-7.78l0.41-0.27c0.45-0.27,0.77-0.46,0.95-0.55l1.78-0.68c0.09-0.09,0.22-0.18,0.41-0.27l1.91-0.82
		l2.6-0.82l0.14-0.14l2.18-0.55c0.27-0.09,0.64-0.18,1.09-0.28c0.18-0.09,0.32-0.14,0.41-0.14c1.82-0.45,3.96-0.82,6.42-1.09
		c2.55-0.27,4.69-0.41,6.42-0.41c4.28,0.09,8.56,0.73,12.84,1.91c4.1,1.09,8.1,2.78,12.02,5.05c3.82,2.19,7.28,4.82,10.38,7.92
		c0.27,0.27,0.5,0.55,0.68,0.82c0.73,0.73,1.27,1.28,1.64,1.64l0.96,1.23c0.27,0.27,0.5,0.59,0.68,0.95l0.41,0.27
		c1.09,1.55,2.27,3.37,3.55,5.46c1.18,2.19,2.14,4.15,2.87,5.87l0.68,1.64l0.41,1.23l0.55,1.64L348.82,396.5z"/>
	<path class="st1" d="M396.48,335.32c0.73,0,1.32,0.23,1.78,0.68c0.45,0.46,0.68,1.05,0.68,1.78v5.33c0,0.64-0.23,1.18-0.68,1.64
		c-0.46,0.55-1.05,0.82-1.78,0.82h-9.83c0,2.28-0.05,5.14-0.14,8.6c-0.09,2.64-0.14,4.64-0.14,6.01c-0.09,2-0.18,9.15-0.27,21.44
		c-0.09,16.48-0.18,25.95-0.27,28.41c-0.09,2-0.18,6.33-0.27,12.97c-0.18,7.92-0.32,12.97-0.41,15.16
		c-0.82,21.4-1.91,41.01-3.28,58.86c-0.09,1.82-0.27,4.28-0.55,7.37l-0.13,2.05c-0.27,3.28-0.5,5.6-0.68,6.97
		c-0.27,3.19-0.46,5.14-0.55,5.87c0,0.46-0.18,0.82-0.55,1.1c-0.27,0.27-0.64,0.41-1.09,0.41h-1.5c-0.36,0-0.73-0.14-1.09-0.41
		c-0.27-0.27-0.45-0.64-0.55-1.1c-0.09-0.73-0.27-2.69-0.55-5.87c-0.18-1.36-0.37-3.69-0.55-6.97l-0.27-2.05
		c-0.18-3.19-0.37-5.65-0.55-7.37c-1.28-17.85-2.32-37.46-3.14-58.86c-0.09-2.19-0.23-7.28-0.41-15.29
		c-0.18-6.56-0.27-10.83-0.27-12.84c-0.09-2.46-0.23-11.88-0.41-28.27c-0.09-12.38-0.14-19.57-0.14-21.58
		c-0.09-1.64-0.18-3.64-0.27-6.01c-0.09-3.55-0.14-6.42-0.14-8.6h-10.52c-0.73,0-1.32-0.27-1.77-0.82c-0.45-0.45-0.68-1-0.68-1.64
		v-5.33c0-0.73,0.23-1.32,0.68-1.78c0.46-0.45,1.05-0.68,1.77-0.68H396.48z"/>
	<path class="st1" d="M540.82,335.32c1.64,0,2.46,0.82,2.46,2.46v5.33c0,1.64-0.82,2.46-2.46,2.46H393.48
		c-1.64,0-2.46-0.82-2.46-2.46v-5.33c0-1.64,0.82-2.46,2.46-2.46H540.82z M529.49,396.5c2.27,8.1,2.91,16.21,1.91,24.31
		c-1,7.92-3.51,15.34-7.51,22.26c-1.82,3.19-4.01,6.24-6.56,9.15c-0.91,1-1.82,2-2.73,3c-0.09,0.09-0.18,0.18-0.27,0.27
		c-0.09,0.09-0.23,0.23-0.41,0.41l-0.14,0.14c-1.46,1.36-2.96,2.59-4.51,3.69c-1.55,1.19-3.14,2.32-4.78,3.41
		c-11.93,7.92-24.4,11.88-37.42,11.88c-11.56,0-22.9-2.96-34.01-8.88c-2.28-1.18-4.41-2.46-6.42-3.82
		c-6.65-4.28-12.38-9.56-17.21-15.84c-3.01-3.91-5.6-8.19-7.78-12.84c-0.64-1.36-1.14-2.59-1.5-3.69l-0.55-1.23
		c-0.27-0.73-0.05-1.23,0.68-1.5l1.5-0.68c0.73-0.27,1.27-0.04,1.64,0.68l0.55,1.23c0.36,1,0.86,2.1,1.5,3.28c1,1.82,2,3.55,3,5.19
		c1.46,2.28,3.05,4.46,4.78,6.56c2.55,3.1,5.41,5.92,8.6,8.47c14.93,9.01,28.95,13.52,42.06,13.52c12.11,0,22.94-3.83,32.5-11.47
		c4.91-3.83,8.56-7.69,10.92-11.61c0.09-0.09,0.18-0.18,0.27-0.27c1.09-1.91,2-3.82,2.73-5.73c2.27-5.46,3.5-11.11,3.69-16.93
		c0.18-5.92-0.68-11.65-2.6-17.21l-0.41-0.96l-0.82-2.19l-0.41-0.82c-0.37-0.82-1.05-2.05-2.05-3.69c-0.82-1.36-1.59-2.5-2.32-3.41
		l-0.55-0.82l-0.68-0.68c-0.19-0.27-0.46-0.59-0.82-0.95c-0.27-0.27-0.5-0.5-0.68-0.68c-4.01-4.1-8.65-7.05-13.93-8.88
		c-2.73-1-5.46-1.59-8.19-1.78c-0.91-0.09-2-0.14-3.28-0.14c-0.27,0-0.59,0-0.96,0c-1.82,0.09-3.23,0.23-4.23,0.41
		c-0.18,0-0.32,0-0.41,0c-0.27,0.09-0.5,0.14-0.68,0.14l-2.05,0.55l-1.5,0.41l-1.64,0.55l-0.95,0.27c-0.18,0.09-0.36,0.18-0.55,0.27
		c-0.09,0-0.18,0.05-0.27,0.14h-0.14c-2.37,1.1-4.6,2.6-6.69,4.51c-4.1,3.73-6.78,8.38-8.06,13.93c-0.09,0.37-0.18,0.87-0.27,1.51
		l-0.14,0.95c-0.09,0.73-0.14,1.23-0.14,1.5c-0.09,1.55-0.09,2.92,0,4.1c0.09,1.46,0.27,2.78,0.55,3.96
		c0.09,0.36,0.23,0.78,0.41,1.23c0,0.28,0.04,0.5,0.14,0.68l0.68,2.05c1.91,4.83,5.19,8.47,9.83,10.92
		c3.19,1.64,6.56,2.46,10.11,2.46c1.46,0,2.91-0.18,4.37-0.55l0.82-0.14l0.82-0.27h0.14h0.14l1.5-0.54c1.09-0.46,2.09-1,3-1.64
		c1.82-1.18,3.41-2.73,4.78-4.64c1.18-1.82,2-3.83,2.46-6.01c0.45-2.09,0.5-4.23,0.14-6.42c-0.18-1-0.46-2-0.82-3
		c-0.27-0.91-0.68-1.78-1.23-2.6c-1.09-1.64-2.41-3-3.96-4.1c-1.55-1-3.28-1.64-5.19-1.91c-1.73-0.36-3.46-0.36-5.19,0H472
		l-0.41,0.14l-1.36,0.41c-0.09,0-0.18,0.04-0.27,0.14c-0.09,0-0.19,0.05-0.27,0.14c-0.73,0.27-1.41,0.63-2.05,1.09
		c-1.28,0.91-2.28,2-3,3.28c-1.46,2.46-1.87,5.1-1.23,7.92c0,0.18,0.04,0.46,0.14,0.82l0.27,0.68v0.27
		c0.18,0.46,0.46,0.91,0.82,1.37c0.45,0.91,1.09,1.68,1.91,2.32c1.37,1,2.87,1.59,4.51,1.78c0.36,0.09,0.73,0.14,1.09,0.14
		c0.64,0,1.32-0.09,2.05-0.27c0.27-0.09,0.5-0.14,0.68-0.14l0.27-0.14c0.82-0.27,1.32-0.04,1.5,0.68l0.68,1.5
		c0.27,0.73,0.05,1.28-0.68,1.64l-0.27,0.14c-0.27,0.09-0.68,0.23-1.23,0.41c-1.46,0.46-2.96,0.64-4.51,0.55
		c-2.46-0.09-4.78-0.86-6.96-2.32c-1.37-0.82-2.51-1.91-3.42-3.28c-0.55-0.64-1-1.37-1.36-2.19l-0.27-0.41v-0.14l-0.27-0.68
		c-0.18-0.55-0.36-1-0.54-1.36c-0.55-2-0.73-4-0.55-6.01c0.18-2.19,0.77-4.28,1.77-6.28c1.09-2.19,2.55-4.05,4.37-5.6
		c1-0.91,2.09-1.64,3.28-2.18c0.18-0.09,0.36-0.18,0.55-0.27l0.27-0.14h0.14l0.96-0.41v-0.14l0.82-0.14
		c0.18-0.09,0.41-0.18,0.68-0.27l0.27-0.14c2.64-0.73,5.33-0.96,8.06-0.68c2.91,0.27,5.69,1.14,8.33,2.59
		c2.73,1.55,5.05,3.6,6.97,6.14c0.91,1.37,1.73,2.78,2.46,4.24c0.64,1.46,1.14,3,1.5,4.64c0.73,3.19,0.86,6.47,0.41,9.83
		c-0.46,3.55-1.6,6.83-3.41,9.83c-1.82,3.19-4.23,5.92-7.24,8.19c-1.46,1.09-3.05,2.05-4.78,2.87l-0.68,0.27l-1.37,0.55
		c-0.18,0.09-0.36,0.18-0.55,0.27l-1.23,0.41c-0.27,0.09-0.59,0.18-0.96,0.27l-0.41,0.14c-2.82,0.73-5.74,1.09-8.74,1.09
		c-4.83,0-9.42-0.95-13.79-2.87c-3.73-1.64-7.06-3.91-9.97-6.83c-2.91-2.82-5.28-6.19-7.1-10.1l-0.27-0.68l-0.82-1.91v-0.13
		l-0.14-0.55c-0.46-1.09-0.73-1.91-0.82-2.46c-0.55-1.82-0.96-3.82-1.23-6.01c-0.27-1.91-0.41-3.96-0.41-6.15
		c0-0.64,0.04-1.55,0.14-2.73l0.14-0.27v-0.14v-0.41c0.09-1.18,0.23-2.05,0.41-2.6c1.46-8.65,5.23-16.11,11.33-22.39
		c3.09-3.19,6.6-5.78,10.51-7.78l0.41-0.27c0.45-0.27,0.77-0.46,0.95-0.55l1.78-0.68c0.09-0.09,0.23-0.18,0.41-0.27l1.91-0.82
		l2.59-0.82l0.14-0.14l2.19-0.55c0.27-0.09,0.64-0.18,1.09-0.28c0.18-0.09,0.32-0.14,0.41-0.14c1.82-0.45,3.96-0.82,6.42-1.09
		c2.55-0.27,4.69-0.41,6.42-0.41c4.28,0.09,8.56,0.73,12.84,1.91c4.1,1.09,8.1,2.78,12.02,5.05c3.82,2.19,7.28,4.82,10.38,7.92
		c0.27,0.27,0.5,0.55,0.68,0.82c0.73,0.73,1.27,1.28,1.64,1.64l0.96,1.23c0.27,0.27,0.5,0.59,0.68,0.95l0.41,0.27
		c1.09,1.55,2.27,3.37,3.55,5.46c1.18,2.19,2.14,4.15,2.87,5.87l0.68,1.64l0.41,1.23l0.55,1.64L529.49,396.5z"/>
	<path class="st1" d="M461.34,273.33c0.55-1.37,1-2.46,1.37-3.28l0.27-0.68c0-0.09,0.09-0.23,0.27-0.41l0.82-1.91
		c0.09-0.09,0.19-0.23,0.27-0.41l0.68-1.23c0.36-0.64,0.64-1.14,0.82-1.5l0.96-1.37c0.18-0.27,0.41-0.59,0.68-0.96l0.27-0.55
		c0.37-0.45,0.87-1.09,1.5-1.91l0.68-0.82l1.64-1.91v-0.13l0.68-0.55c1.28-1.46,2.96-3.05,5.05-4.78c1.73-1.37,3.64-2.69,5.74-3.96
		c4.19-2.46,8.47-4.28,12.84-5.46l0.82-0.27h0.14l0.82-0.27l0.55-0.14c0.55-0.09,0.96-0.18,1.23-0.27h0.41
		c1.36-0.27,2.37-0.46,3-0.55c0.64-0.09,1.6-0.18,2.87-0.27h0.68c0.18-0.09,0.55-0.14,1.09-0.14h2.32c4.73,0,9.42,0.64,14.07,1.91
		c2.55,0.73,4.73,1.5,6.56,2.32l0.95,0.41c0.18,0.09,0.36,0.18,0.55,0.27l3.69,1.91h0.14l3.82,2.32c0.27,0.09,0.64,0.32,1.09,0.68
		c0.09,0.09,0.23,0.18,0.41,0.27l2.73,1.91v0.13c0.18,0.09,0.5,0.32,0.96,0.68l0.41,0.41l0.82,0.68c0.82,0.64,1.41,1.14,1.78,1.5
		c3.18,2.91,6.19,6.28,9.01,10.11c2.55,3.55,4.78,7.51,6.69,11.88c1.82,4.37,3.14,8.65,3.96,12.84c0.09,0.55,0.18,1.32,0.27,2.32
		c0.09,0.27,0.18,0.59,0.27,0.95v0.55c0.09,0.46,0.14,0.86,0.14,1.23l0.27,3.28v0.41c0.09,0.55,0.13,0.96,0.13,1.23v14.34
		c-0.09,2.91-0.13,6.65-0.13,11.2c0,0.64-0.05,3.19-0.14,7.65v2.19h11.2c1.64,0,2.46,0.82,2.46,2.46v5.33
		c0,1.64-0.82,2.46-2.46,2.46h-10.92c-0.09,2.28-0.18,5.15-0.27,8.6c0,2.64-0.05,4.69-0.13,6.15c0,2-0.05,9.15-0.14,21.44
		c-0.18,16.39-0.32,25.86-0.41,28.41c-0.09,2.09-0.18,6.42-0.27,12.97c-0.18,8.01-0.32,13.07-0.41,15.16
		c-0.82,21.49-1.87,41.11-3.14,58.86c-0.19,2-0.41,4.46-0.68,7.37l-0.14,2.18c-0.27,3.19-0.46,5.51-0.55,6.97
		c-0.27,3.28-0.46,5.23-0.55,5.87c-0.09,1-0.68,1.5-1.78,1.5h-1.36c-1,0-1.59-0.5-1.78-1.5c0-0.64-0.18-2.59-0.55-5.87
		c-0.09-1.55-0.28-3.87-0.55-6.97l-0.14-2.05c-0.27-3.19-0.46-5.69-0.55-7.51c-1.37-17.75-2.46-37.37-3.28-58.86
		c-0.09-2.09-0.23-7.14-0.41-15.16c-0.09-6.74-0.18-11.06-0.27-12.97c-0.09-2.55-0.18-12.02-0.27-28.41
		c-0.18-12.2-0.27-19.34-0.27-21.44c-0.09-1.73-0.14-3.78-0.14-6.15c-0.09-3.64-0.18-6.51-0.27-8.6H540c-1.55,0-2.32-0.82-2.32-2.46
		v-5.33c0-1.64,0.77-2.46,2.32-2.46h4.23c7.65-23.67,7.05-43.42-1.78-59.27c-4.37-7.92-9.51-13.47-15.43-16.66l-1.91-1.09
		l-0.95-0.41c-1.18-0.64-2.73-1.27-4.64-1.91c-3.55-1.18-7.28-1.78-11.2-1.78c-3,0-5.96,0.32-8.88,0.95
		c-3.19,0.82-6.33,2.09-9.42,3.83c-1.64,0.91-3.1,1.82-4.37,2.73c-1.64,1.28-2.91,2.41-3.82,3.41l-0.55,0.41l-1.23,1.37
		c-0.09,0.18-0.27,0.46-0.55,0.82c-0.55,0.55-0.91,0.96-1.09,1.23c-0.09,0.09-0.18,0.23-0.27,0.41c-0.27,0.36-0.45,0.59-0.54,0.68
		l-0.68,1.09c-0.18,0.18-0.36,0.46-0.55,0.82l-0.68,0.95v0.27l-0.82,1.23l-0.55,1.09c-0.18,0.46-0.46,1.19-0.82,2.19l-0.14,0.14
		c-0.54,1.46-0.95,3.05-1.23,4.78c-1.36,6.56-0.45,12.88,2.73,18.98c1.37,2.82,3.28,5.46,5.74,7.92c1.09,1.09,2.32,2.09,3.69,3
		c0.09,0.09,0.23,0.18,0.41,0.27c0.27,0.19,0.46,0.32,0.55,0.41l1.09,0.68l0.27,0.14c0.09,0.09,0.18,0.14,0.27,0.14l1.09,0.54
		l0.55,0.28c2.73,1.36,5.64,2.09,8.74,2.19c3.1,0.18,6.1-0.27,9.01-1.37c2.82-1,5.37-2.5,7.65-4.51c1.09-1,2.09-2.09,3-3.28
		c0.36-0.45,0.77-1,1.23-1.64l0.54-0.96l0.55-1.09l0.41-0.82c0.09-0.18,0.18-0.32,0.27-0.41c0.09-0.27,0.14-0.46,0.14-0.55
		l0.41-1.23c0.18-0.37,0.27-0.64,0.27-0.82c0-0.09,0.05-0.32,0.14-0.68c0.18-0.55,0.27-0.96,0.27-1.23v-0.14l0.14-0.96v-1.09
		c0.09-2.73-0.41-5.33-1.5-7.78c-1.09-2.46-2.64-4.6-4.64-6.42l-0.68-0.68c-0.09,0-0.22-0.09-0.41-0.27
		c-0.18-0.09-0.32-0.18-0.41-0.27l-0.68-0.41l-1.91-1.09l-0.68-0.41h-0.14c-0.18-0.09-0.55-0.22-1.09-0.41
		c-0.18-0.09-0.36-0.14-0.55-0.14c-2.19-0.73-4.51-0.86-6.97-0.41c-2.18,0.46-4.23,1.46-6.14,3h-0.14l-0.14,0.14l-0.95,0.95
		c-0.18,0.18-0.46,0.46-0.82,0.82c-0.18,0.18-0.27,0.32-0.27,0.41l-0.82,0.96l-0.82,1.5l-0.55,0.95v0.41
		c-0.09,0.09-0.14,0.18-0.14,0.27c-0.09,0.27-0.18,0.64-0.27,1.09c-0.09,0.09-0.14,0.23-0.14,0.41c-0.18,1.09-0.23,2.04-0.14,2.87
		c0.27,4.01,2.1,7.01,5.46,9.01l0.68,0.41l0.41,0.27l0.27,0.14c0.18,0,0.27,0.05,0.27,0.13l0.68,0.14c0.09,0.09,0.23,0.14,0.41,0.14
		h0.27c0,0.09,0.05,0.14,0.14,0.14h0.27c0.09,0,0.23,0.05,0.41,0.14h0.68c1.55,0.09,2.96-0.18,4.23-0.82
		c1.28-0.64,2.32-1.46,3.14-2.46h0.13c0-0.09,0.09-0.23,0.27-0.41c0.09-0.09,0.14-0.18,0.14-0.27c0.09,0,0.14-0.05,0.14-0.14
		l0.41-0.68l0.41-0.82c0-0.09,0.05-0.23,0.14-0.41l0.14-0.27c0.46-1.82,0.27-3.55-0.55-5.19c-0.45-1-1.18-1.86-2.18-2.59
		c-0.09,0-0.14-0.05-0.14-0.14c-0.09,0-0.18-0.05-0.27-0.14l-0.68-0.41c-0.64-0.36-0.77-0.91-0.41-1.64l0.68-1.23
		c0.37-0.73,0.91-0.91,1.64-0.54l0.68,0.41c0.09,0.09,0.27,0.19,0.55,0.27c0.09,0.09,0.18,0.14,0.27,0.14l0.27,0.27
		c0.09,0,0.14,0.05,0.14,0.14l0.82,0.55v0.13l0.41,0.41c0.73,0.64,1.36,1.41,1.91,2.32c0.64,1.18,1.09,2.41,1.37,3.69
		c0.27,1.64,0.23,3.23-0.14,4.78c-0.27,0.91-0.59,1.73-0.96,2.46l-0.41,0.82c-0.09,0.09-0.14,0.19-0.14,0.27l-0.14,0.14
		c0-0.09-0.04,0-0.14,0.27c-0.27,0.36-0.5,0.64-0.68,0.82c-1.18,1.64-2.69,2.92-4.51,3.83c-2,1.09-4.19,1.68-6.56,1.77
		c-0.27,0-0.73-0.04-1.36-0.14h-0.55c-0.09,0-0.27-0.05-0.54-0.14h-0.41c-0.36-0.09-0.64-0.18-0.82-0.27l-0.96-0.27
		c-0.18,0-0.36-0.04-0.55-0.14l-0.27-0.14l-0.55-0.27h-0.14l-1.37-0.68l-0.14-0.14l-1.23-0.68c-0.09-0.09-0.32-0.27-0.68-0.54
		l-0.82-0.68l-0.14-0.14l-0.27-0.27c-0.46-0.46-0.82-0.82-1.09-1.1c-0.09-0.18-0.23-0.32-0.41-0.41c-0.36-0.55-0.64-0.96-0.82-1.23
		c-1.73-2.46-2.73-5.1-3-7.92c-0.18-1.37-0.18-2.91,0-4.64v-0.41c0.18-0.91,0.37-1.55,0.55-1.91c-0.09,0.18-0.09,0.09,0-0.27
		c0.09-0.36,0.18-0.63,0.27-0.82l0.55-1.37c0-0.09,0.05-0.18,0.14-0.27l0.82-1.5c0-0.09,0.05-0.18,0.14-0.27l1.09-1.78l0.14-0.14
		l0.27-0.27c0.46-0.63,0.87-1.14,1.23-1.5l1.23-1.37c0.09,0,0.23-0.09,0.41-0.27l0.14-0.14c2.64-2.27,5.6-3.82,8.87-4.64
		c3.64-0.82,7.24-0.82,10.79,0c0.18,0.09,0.37,0.19,0.55,0.27c0.91,0.18,1.59,0.41,2.05,0.68l1.09,0.41l0.27,0.14l2.05,1.09h0.14
		l1.5,1.09c0.37,0.18,0.64,0.37,0.82,0.54h0.14l0.96,0.82c3,2.46,5.37,5.42,7.1,8.88c1.73,3.55,2.64,7.42,2.73,11.61v1.5l-0.14,1.37
		c0,0.64-0.09,1.46-0.27,2.46l-0.14,0.27v0.41c-0.09,0.27-0.22,0.73-0.41,1.36l-0.41,1.64c-0.09,0.27-0.23,0.59-0.41,0.95
		c-0.09,0.27-0.14,0.46-0.14,0.55l-0.55,1.09c0,0.19-0.04,0.32-0.14,0.41l-0.55,1.23c-0.18,0.27-0.36,0.64-0.55,1.1l-0.27,0.27
		c-0.55,1-1.09,1.87-1.64,2.6c-1.18,1.73-2.55,3.32-4.1,4.78c-3.09,2.91-6.64,5.19-10.65,6.83c-4,1.55-8.2,2.32-12.56,2.32h-0.27
		c-4.46,0-8.78-0.91-12.97-2.73l-0.68-0.27c-0.18,0-0.32-0.05-0.41-0.14l-1.23-0.55l-0.14-0.14c-0.18-0.09-0.36-0.18-0.55-0.27
		l-1.5-0.82c-0.09-0.09-0.41-0.32-0.96-0.68c-0.18-0.09-0.32-0.18-0.41-0.27c-1.91-1.18-3.69-2.51-5.32-3.96
		c-3.46-3.19-6.28-6.73-8.47-10.65c-4.73-8.37-6.28-17.29-4.64-26.77C460.07,277.83,460.62,275.51,461.34,273.33z"/>
	<path class="st1" d="M686.88,663.07c1.64,0,2.46,0.82,2.46,2.46v5.33c0,1.64-0.82,2.46-2.46,2.46H539.53
		c-1.64,0-2.46-0.82-2.46-2.46v-5.33c0-1.64,0.82-2.46,2.46-2.46H686.88z M675.54,724.25c2.28,8.1,2.91,16.21,1.91,24.31
		c-1,7.92-3.51,15.34-7.51,22.26c-1.82,3.19-4.01,6.24-6.56,9.15c-0.91,1-1.82,2-2.73,3c-0.09,0.09-0.18,0.18-0.27,0.27
		c-0.09,0.09-0.23,0.23-0.41,0.41l-0.14,0.14c-1.46,1.36-2.96,2.59-4.51,3.68c-1.55,1.19-3.14,2.32-4.78,3.41
		c-11.93,7.92-24.4,11.88-37.42,11.88c-11.56,0-22.9-2.96-34-8.88c-2.28-1.18-4.42-2.46-6.42-3.82
		c-6.65-4.28-12.38-9.56-17.21-15.84c-3-3.91-5.59-8.19-7.78-12.84c-0.64-1.36-1.14-2.59-1.5-3.69l-0.55-1.23
		c-0.27-0.73-0.05-1.23,0.68-1.5l1.5-0.68c0.73-0.27,1.27-0.04,1.64,0.68l0.55,1.23c0.36,1,0.86,2.1,1.5,3.28c1,1.82,2,3.55,3,5.19
		c1.46,2.28,3.05,4.46,4.78,6.56c2.55,3.1,5.42,5.92,8.6,8.47c14.93,9.01,28.95,13.52,42.06,13.52c12.11,0,22.94-3.83,32.5-11.47
		c4.92-3.83,8.56-7.69,10.93-11.61c0.09-0.09,0.18-0.18,0.27-0.27c1.09-1.91,2-3.82,2.73-5.73c2.28-5.46,3.5-11.11,3.69-16.93
		c0.18-5.92-0.68-11.65-2.59-17.21l-0.41-0.95l-0.82-2.19l-0.41-0.82c-0.37-0.82-1.05-2.05-2.05-3.69c-0.82-1.36-1.59-2.5-2.32-3.41
		l-0.55-0.82l-0.68-0.69c-0.18-0.27-0.46-0.59-0.82-0.95c-0.27-0.27-0.5-0.5-0.68-0.69c-4.01-4.1-8.65-7.05-13.93-8.88
		c-2.73-1-5.46-1.59-8.19-1.78c-0.91-0.09-2-0.14-3.28-0.14c-0.27,0-0.59,0-0.96,0c-1.82,0.09-3.23,0.23-4.23,0.41
		c-0.18,0-0.32,0-0.41,0c-0.27,0.09-0.5,0.14-0.68,0.14l-2.05,0.54l-1.5,0.41l-1.64,0.55l-0.95,0.27c-0.18,0.09-0.37,0.18-0.55,0.27
		c-0.09,0-0.18,0.05-0.27,0.14h-0.14c-2.37,1.09-4.6,2.6-6.69,4.51c-4.1,3.73-6.78,8.37-8.06,13.93c-0.09,0.37-0.18,0.87-0.27,1.51
		l-0.14,0.95c-0.09,0.73-0.14,1.23-0.14,1.5c-0.09,1.55-0.09,2.92,0,4.1c0.09,1.46,0.27,2.78,0.55,3.96
		c0.09,0.36,0.23,0.78,0.41,1.23c0,0.27,0.04,0.5,0.14,0.69l0.68,2.04c1.91,4.83,5.19,8.47,9.83,10.92
		c3.19,1.64,6.56,2.46,10.11,2.46c1.46,0,2.91-0.18,4.37-0.55l0.82-0.14l0.82-0.27h0.14h0.14l1.5-0.54c1.09-0.46,2.09-1,3-1.64
		c1.82-1.18,3.41-2.73,4.78-4.64c1.18-1.82,2-3.83,2.46-6.01c0.45-2.09,0.5-4.23,0.14-6.42c-0.19-1-0.46-2-0.82-3
		c-0.27-0.91-0.68-1.77-1.23-2.59c-1.09-1.64-2.41-3.01-3.96-4.1c-1.55-1-3.28-1.64-5.19-1.91c-1.73-0.36-3.46-0.36-5.19,0h-0.14
		l-0.41,0.14l-1.37,0.41c-0.09,0-0.18,0.05-0.27,0.14c-0.09,0-0.19,0.05-0.27,0.13c-0.73,0.27-1.41,0.64-2.05,1.09
		c-1.27,0.91-2.28,2-3,3.28c-1.46,2.46-1.87,5.1-1.23,7.92c0,0.18,0.05,0.46,0.14,0.82l0.27,0.69v0.27
		c0.18,0.46,0.45,0.91,0.82,1.37c0.46,0.91,1.09,1.68,1.91,2.32c1.37,1,2.87,1.59,4.51,1.77c0.36,0.09,0.73,0.14,1.09,0.14
		c0.64,0,1.32-0.09,2.05-0.27c0.27-0.09,0.5-0.14,0.69-0.14l0.27-0.14c0.82-0.27,1.32-0.04,1.5,0.69l0.68,1.5
		c0.27,0.73,0.04,1.28-0.68,1.64l-0.27,0.14c-0.27,0.09-0.68,0.23-1.23,0.41c-1.46,0.46-2.96,0.64-4.51,0.55
		c-2.46-0.09-4.78-0.86-6.97-2.32c-1.36-0.82-2.5-1.91-3.41-3.28c-0.55-0.63-1-1.37-1.36-2.19l-0.27-0.41v-0.14l-0.27-0.68
		c-0.18-0.55-0.36-1-0.55-1.36c-0.55-2-0.73-4.01-0.55-6.01c0.18-2.19,0.77-4.28,1.78-6.28c1.09-2.19,2.55-4.05,4.37-5.6
		c1-0.91,2.09-1.64,3.28-2.18c0.18-0.09,0.36-0.18,0.55-0.27l0.27-0.14h0.14l0.96-0.41v-0.14l0.82-0.14
		c0.18-0.09,0.41-0.18,0.68-0.27l0.27-0.14c2.64-0.73,5.33-0.96,8.06-0.68c2.91,0.27,5.69,1.14,8.33,2.59
		c2.73,1.55,5.05,3.6,6.97,6.15c0.91,1.37,1.73,2.78,2.46,4.23c0.64,1.46,1.14,3.01,1.5,4.64c0.73,3.19,0.86,6.47,0.41,9.83
		c-0.46,3.55-1.6,6.83-3.41,9.83c-1.82,3.19-4.23,5.92-7.24,8.19c-1.46,1.09-3.05,2.05-4.78,2.87l-0.68,0.27l-1.36,0.55
		c-0.18,0.09-0.37,0.18-0.55,0.27l-1.23,0.41c-0.27,0.09-0.59,0.18-0.95,0.28l-0.41,0.13c-2.82,0.73-5.73,1.09-8.74,1.09
		c-4.82,0-9.42-0.95-13.79-2.87c-3.73-1.64-7.06-3.91-9.97-6.83c-2.91-2.82-5.28-6.19-7.1-10.1l-0.27-0.69l-0.82-1.91v-0.13
		l-0.13-0.55c-0.46-1.09-0.73-1.91-0.82-2.46c-0.55-1.82-0.96-3.82-1.23-6.01c-0.27-1.91-0.41-3.96-0.41-6.14
		c0-0.64,0.04-1.55,0.14-2.73l0.14-0.27v-0.14v-0.41c0.09-1.18,0.23-2.05,0.41-2.6c1.45-8.65,5.23-16.11,11.33-22.39
		c3.09-3.19,6.6-5.78,10.52-7.78l0.41-0.27c0.46-0.27,0.77-0.46,0.96-0.55l1.78-0.68c0.09-0.09,0.22-0.18,0.41-0.27l1.91-0.82
		l2.59-0.82l0.14-0.14l2.19-0.55c0.27-0.09,0.64-0.18,1.09-0.27c0.18-0.09,0.32-0.14,0.41-0.14c1.82-0.45,3.96-0.82,6.42-1.09
		c2.55-0.27,4.69-0.41,6.42-0.41c4.28,0.09,8.56,0.73,12.84,1.91c4.1,1.09,8.1,2.78,12.02,5.05c3.83,2.19,7.28,4.83,10.38,7.92
		c0.27,0.27,0.5,0.55,0.68,0.82c0.73,0.73,1.27,1.28,1.64,1.64l0.96,1.23c0.27,0.27,0.5,0.59,0.68,0.95l0.41,0.27
		c1.09,1.55,2.28,3.37,3.55,5.46c1.18,2.19,2.14,4.14,2.87,5.87l0.68,1.64l0.41,1.23l0.55,1.64L675.54,724.25z"/>
	<path class="st1" d="M723.2,663.07c0.73,0,1.32,0.23,1.77,0.68c0.46,0.46,0.68,1.05,0.68,1.77v5.33c0,0.64-0.23,1.18-0.68,1.64
		c-0.46,0.55-1.05,0.82-1.77,0.82h-9.83c0,2.28-0.05,5.15-0.14,8.61c-0.09,2.64-0.14,4.64-0.14,6.01c-0.09,2-0.19,9.15-0.27,21.44
		c-0.09,16.48-0.18,25.95-0.27,28.41c-0.09,2-0.19,6.33-0.27,12.97c-0.18,7.92-0.32,12.97-0.41,15.16
		c-0.82,21.4-1.91,41.01-3.28,58.86c-0.09,1.82-0.27,4.28-0.55,7.37l-0.14,2.04c-0.27,3.28-0.5,5.6-0.68,6.97
		c-0.27,3.19-0.46,5.14-0.55,5.87c0,0.46-0.18,0.82-0.55,1.09c-0.27,0.27-0.64,0.41-1.09,0.41h-1.5c-0.36,0-0.73-0.14-1.09-0.41
		c-0.27-0.27-0.46-0.64-0.55-1.09c-0.09-0.73-0.27-2.69-0.55-5.87c-0.18-1.37-0.36-3.69-0.54-6.97l-0.27-2.04
		c-0.18-3.19-0.36-5.65-0.55-7.37c-1.28-17.84-2.32-37.46-3.14-58.86c-0.09-2.19-0.23-7.28-0.41-15.3
		c-0.19-6.56-0.27-10.83-0.27-12.84c-0.09-2.46-0.23-11.88-0.41-28.27c-0.09-12.38-0.14-19.57-0.14-21.58
		c-0.09-1.64-0.18-3.64-0.27-6.01c-0.09-3.55-0.14-6.42-0.14-8.61h-10.51c-0.73,0-1.32-0.27-1.78-0.82c-0.45-0.46-0.68-1-0.68-1.64
		v-5.33c0-0.73,0.23-1.32,0.68-1.77c0.46-0.45,1.05-0.68,1.78-0.68H723.2z"/>
	<path class="st1" d="M686.36,615.87c0.79-5.89,4.54-7.88,11.23-5.96c5.22,1.93,7.32,6.69,6.3,14.29
		c-0.57,13.38-6.13,24.28-16.68,32.67c-10.89,8.73-22.8,11.23-35.73,7.49c-12.25-3.52-22.4-10.15-30.45-19.91
		c-8.39-9.87-12.59-19.57-12.59-29.09c0.91-3.74,3.69-5.44,8.34-5.1c5.78,1.7,8.28,6.35,7.49,13.95
		c0.45,9.98,4.48,17.18,12.08,21.61c7.49,4.42,15.94,4.82,25.35,1.19C677,642.02,685.22,631.64,686.36,615.87z"/>
	<path class="st1" d="M867.54,663.07c1.64,0,2.46,0.82,2.46,2.46v5.33c0,1.64-0.82,2.46-2.46,2.46H720.2
		c-1.64,0-2.46-0.82-2.46-2.46v-5.33c0-1.64,0.82-2.46,2.46-2.46H867.54z M856.21,724.25c2.28,8.1,2.91,16.21,1.91,24.31
		c-1,7.92-3.51,15.34-7.51,22.26c-1.82,3.19-4.01,6.24-6.56,9.15c-0.91,1-1.82,2-2.73,3c-0.09,0.09-0.18,0.18-0.27,0.27
		s-0.23,0.23-0.41,0.41l-0.14,0.14c-1.46,1.36-2.96,2.59-4.51,3.68c-1.55,1.19-3.14,2.32-4.78,3.41
		c-11.93,7.92-24.4,11.88-37.41,11.88c-11.56,0-22.9-2.96-34-8.88c-2.28-1.18-4.42-2.46-6.42-3.82
		c-6.65-4.28-12.38-9.56-17.21-15.84c-3-3.91-5.6-8.19-7.78-12.84c-0.64-1.36-1.14-2.59-1.5-3.69l-0.55-1.23
		c-0.28-0.73-0.05-1.23,0.68-1.5l1.5-0.68c0.73-0.27,1.27-0.04,1.64,0.68l0.55,1.23c0.36,1,0.86,2.1,1.5,3.28c1,1.82,2,3.55,3,5.19
		c1.46,2.28,3.05,4.46,4.78,6.56c2.55,3.1,5.42,5.92,8.6,8.47c14.93,9.01,28.95,13.52,42.06,13.52c12.11,0,22.94-3.83,32.5-11.47
		c4.92-3.83,8.56-7.69,10.92-11.61c0.09-0.09,0.18-0.18,0.28-0.27c1.09-1.91,2-3.82,2.73-5.73c2.27-5.46,3.5-11.11,3.69-16.93
		c0.18-5.92-0.68-11.65-2.59-17.21l-0.41-0.95l-0.82-2.19l-0.41-0.82c-0.36-0.82-1.05-2.05-2.05-3.69c-0.82-1.36-1.59-2.5-2.32-3.41
		l-0.55-0.82l-0.68-0.69c-0.18-0.27-0.45-0.59-0.82-0.95c-0.27-0.27-0.5-0.5-0.68-0.69c-4.01-4.1-8.65-7.05-13.93-8.88
		c-2.73-1-5.46-1.59-8.2-1.78c-0.91-0.09-2-0.14-3.28-0.14c-0.27,0-0.59,0-0.95,0c-1.82,0.09-3.23,0.23-4.23,0.41
		c-0.18,0-0.32,0-0.41,0c-0.27,0.09-0.5,0.14-0.68,0.14l-2.05,0.54l-1.5,0.41l-1.64,0.55l-0.96,0.27c-0.18,0.09-0.37,0.18-0.55,0.27
		c-0.09,0-0.18,0.05-0.27,0.14h-0.13c-2.37,1.09-4.6,2.6-6.69,4.51c-4.1,3.73-6.78,8.37-8.06,13.93c-0.09,0.37-0.18,0.87-0.27,1.51
		l-0.14,0.95c-0.09,0.73-0.14,1.23-0.14,1.5c-0.09,1.55-0.09,2.92,0,4.1c0.09,1.46,0.27,2.78,0.55,3.96
		c0.09,0.36,0.23,0.78,0.41,1.23c0,0.27,0.04,0.5,0.14,0.69l0.68,2.04c1.91,4.83,5.19,8.47,9.83,10.92
		c3.19,1.64,6.56,2.46,10.11,2.46c1.46,0,2.91-0.18,4.37-0.55l0.82-0.14l0.82-0.27h0.14h0.14l1.5-0.54c1.09-0.46,2.09-1,3.01-1.64
		c1.82-1.18,3.41-2.73,4.78-4.64c1.18-1.82,2-3.83,2.46-6.01c0.46-2.09,0.5-4.23,0.14-6.42c-0.18-1-0.46-2-0.82-3
		c-0.27-0.91-0.68-1.77-1.23-2.59c-1.09-1.64-2.41-3.01-3.96-4.1c-1.55-1-3.28-1.64-5.19-1.91c-1.73-0.36-3.46-0.36-5.19,0h-0.14
		l-0.41,0.14l-1.37,0.41c-0.09,0-0.18,0.05-0.27,0.14c-0.09,0-0.19,0.05-0.27,0.13c-0.73,0.27-1.41,0.64-2.05,1.09
		c-1.28,0.91-2.28,2-3,3.28c-1.46,2.46-1.87,5.1-1.23,7.92c0,0.18,0.05,0.46,0.14,0.82l0.27,0.69v0.27
		c0.18,0.46,0.45,0.91,0.82,1.37c0.45,0.91,1.09,1.68,1.91,2.32c1.37,1,2.87,1.59,4.51,1.77c0.36,0.09,0.73,0.14,1.09,0.14
		c0.64,0,1.32-0.09,2.05-0.27c0.27-0.09,0.5-0.14,0.68-0.14l0.27-0.14c0.82-0.27,1.32-0.04,1.5,0.69l0.68,1.5
		c0.27,0.73,0.05,1.28-0.68,1.64l-0.27,0.14c-0.27,0.09-0.68,0.23-1.23,0.41c-1.46,0.46-2.96,0.64-4.51,0.55
		c-2.46-0.09-4.78-0.86-6.97-2.32c-1.36-0.82-2.5-1.91-3.41-3.28c-0.54-0.63-1-1.37-1.36-2.19l-0.27-0.41v-0.14l-0.27-0.68
		c-0.18-0.55-0.36-1-0.55-1.36c-0.55-2-0.73-4.01-0.55-6.01c0.18-2.19,0.77-4.28,1.78-6.28c1.09-2.19,2.55-4.05,4.37-5.6
		c1-0.91,2.09-1.64,3.28-2.18c0.18-0.09,0.36-0.18,0.55-0.27l0.27-0.14h0.14l0.95-0.41v-0.14l0.82-0.14
		c0.18-0.09,0.41-0.18,0.68-0.27l0.27-0.14c2.64-0.73,5.33-0.96,8.06-0.68c2.91,0.27,5.69,1.14,8.33,2.59
		c2.73,1.55,5.05,3.6,6.96,6.15c0.91,1.37,1.73,2.78,2.46,4.23c0.63,1.46,1.14,3.01,1.5,4.64c0.73,3.19,0.86,6.47,0.41,9.83
		c-0.46,3.55-1.59,6.83-3.41,9.83c-1.82,3.19-4.23,5.92-7.24,8.19c-1.46,1.09-3.05,2.05-4.78,2.87l-0.68,0.27l-1.37,0.55
		c-0.18,0.09-0.36,0.18-0.55,0.27l-1.23,0.41c-0.27,0.09-0.59,0.18-0.95,0.28l-0.41,0.13c-2.82,0.73-5.74,1.09-8.74,1.09
		c-4.83,0-9.42-0.95-13.79-2.87c-3.73-1.64-7.06-3.91-9.97-6.83c-2.92-2.82-5.28-6.19-7.1-10.1l-0.27-0.69l-0.82-1.91v-0.13
		l-0.13-0.55c-0.46-1.09-0.73-1.91-0.82-2.46c-0.55-1.82-0.95-3.82-1.23-6.01c-0.27-1.91-0.41-3.96-0.41-6.14
		c0-0.64,0.04-1.55,0.14-2.73l0.13-0.27v-0.14v-0.41c0.09-1.18,0.23-2.05,0.41-2.6c1.45-8.65,5.23-16.11,11.33-22.39
		c3.09-3.19,6.6-5.78,10.52-7.78l0.41-0.27c0.46-0.27,0.77-0.46,0.96-0.55l1.77-0.68c0.09-0.09,0.23-0.18,0.41-0.27l1.91-0.82
		l2.59-0.82l0.14-0.14l2.19-0.55c0.27-0.09,0.64-0.18,1.09-0.27c0.18-0.09,0.32-0.14,0.41-0.14c1.82-0.45,3.96-0.82,6.42-1.09
		c2.55-0.27,4.69-0.41,6.42-0.41c4.28,0.09,8.55,0.73,12.84,1.91c4.1,1.09,8.1,2.78,12.02,5.05c3.82,2.19,7.28,4.83,10.38,7.92
		c0.27,0.27,0.5,0.55,0.68,0.82c0.73,0.73,1.27,1.28,1.64,1.64l0.95,1.23c0.27,0.27,0.5,0.59,0.68,0.95l0.41,0.27
		c1.09,1.55,2.27,3.37,3.55,5.46c1.18,2.19,2.14,4.14,2.87,5.87l0.68,1.64l0.41,1.23l0.55,1.64L856.21,724.25z"/>
	<path class="st2" d="M579.69,477.16c1.64,0,2.46,0.82,2.46,2.46v5.33c0,1.64-0.82,2.46-2.46,2.46h-12.7c0,2.19-0.04,5.05-0.13,8.6
		c-0.09,2.46-0.19,4.46-0.28,6.01c0,2-0.05,9.19-0.13,21.57c-0.18,16.39-0.32,25.86-0.41,28.41c0,1.82-0.09,6.1-0.27,12.84
		c-0.18,8.01-0.32,13.11-0.41,15.29c-0.82,21.39-1.87,41.01-3.14,58.86c-0.18,1.91-0.37,4.42-0.55,7.51l-0.27,2.05
		c-0.27,3.37-0.46,5.69-0.55,6.97c-0.18,1.82-0.36,3.78-0.55,5.87c-0.09,1-0.64,1.5-1.64,1.5h-1.5c-1,0-1.55-0.5-1.64-1.5
		c-0.28-2-0.5-3.96-0.68-5.87c-0.09-1.37-0.27-3.69-0.55-6.97l-0.14-2.19c-0.27-3.1-0.46-5.55-0.55-7.38
		c-1-13.75-1.91-28.77-2.73-45.06c-2.18-7.65-6.24-13.61-12.15-17.89c-1.55-1.09-3.23-2.05-5.05-2.87
		c-1.28,4.28-3.01,8.33-5.19,12.16c-1.82,3.19-3.96,6.19-6.42,9.01c-0.91,1-1.82,1.96-2.73,2.87c-0.09,0.09-0.18,0.18-0.27,0.27
		c-0.18,0.18-0.32,0.32-0.41,0.41l-0.14,0.13c-1.46,1.28-2.87,2.51-4.23,3.69c-1.55,1.18-3.19,2.28-4.91,3.28
		c-11.56,7.74-23.72,11.6-36.46,11.6c-11.29,0-22.39-2.91-33.32-8.74c-2.18-1.09-4.28-2.32-6.28-3.69
		c-6.47-4.18-12.02-9.37-16.66-15.57c-2.91-3.73-5.46-7.87-7.65-12.43c-0.64-1.36-1.14-2.55-1.5-3.55l-0.55-1.23
		c-0.27-0.82-0.05-1.37,0.68-1.64l1.5-0.55c0.73-0.27,1.27-0.04,1.64,0.68l0.41,1.09c0.45,1,1,2.1,1.64,3.28
		c0.91,1.73,1.86,3.41,2.87,5.05c1.45,2.19,3,4.28,4.64,6.28c2.55,3.1,5.37,5.92,8.47,8.47c14.56,8.74,28.27,13.11,41.1,13.11
		c11.83,0,22.4-3.73,31.68-11.2c4.82-3.83,8.37-7.6,10.65-11.34c0.09-0.09,0.18-0.18,0.27-0.27c1.09-1.82,2-3.69,2.73-5.6
		c2.18-5.37,3.37-10.92,3.55-16.66c0.18-5.73-0.68-11.29-2.59-16.66l-0.41-0.95l-0.82-2.05l-0.41-0.95c-0.37-0.82-0.96-2-1.78-3.55
		c-0.91-1.37-1.68-2.46-2.32-3.28l-0.68-0.82l-0.55-0.82c-0.27-0.18-0.55-0.45-0.82-0.82c-0.27-0.27-0.5-0.5-0.68-0.68
		c-3.92-4-8.42-6.87-13.52-8.6c-2.73-1-5.42-1.59-8.06-1.77c-0.91-0.09-1.96-0.14-3.14-0.14h-1.09c-1.73,0.09-3.1,0.23-4.1,0.41
		c-0.09,0-0.23,0-0.41,0c-0.27,0.09-0.5,0.14-0.68,0.14l-1.91,0.41l-1.5,0.41l-1.5,0.54l-1.09,0.41c-0.09,0.09-0.27,0.18-0.55,0.27
		c-0.09,0.09-0.18,0.14-0.27,0.14c-2.37,1.09-4.6,2.55-6.69,4.37c-3.92,3.64-6.51,8.15-7.78,13.52c-0.09,0.37-0.18,0.86-0.27,1.5
		l-0.14,0.95c-0.09,0.64-0.14,1.14-0.14,1.5c-0.09,1.46-0.09,2.78,0,3.96c0.09,1.37,0.32,2.69,0.68,3.96c0,0.27,0.09,0.64,0.27,1.09
		c0.09,0.27,0.14,0.5,0.14,0.68l0.68,1.91c1.91,4.73,5.14,8.28,9.7,10.65c3,1.64,6.23,2.46,9.69,2.46c1.46,0,2.87-0.14,4.23-0.41
		l0.96-0.27l0.82-0.14v-0.14h0.14l1.5-0.55c1-0.36,2-0.86,3-1.5c1.82-1.18,3.32-2.68,4.51-4.5c1.27-1.82,2.09-3.78,2.46-5.87
		c0.45-2.1,0.5-4.19,0.14-6.28c-0.18-1-0.41-2-0.68-3c-0.37-0.91-0.77-1.73-1.23-2.46c-1.09-1.64-2.41-2.96-3.96-3.96
		c-1.55-1-3.19-1.64-4.92-1.91c-1.73-0.36-3.46-0.36-5.19,0h-0.14c-0.18,0.09-0.32,0.14-0.41,0.14l-0.68,0.14l-0.55,0.27
		c-0.09,0-0.18,0.05-0.27,0.14h-0.27c-0.73,0.37-1.41,0.77-2.05,1.23c-1.18,0.82-2.14,1.87-2.87,3.14
		c-1.46,2.46-1.91,5.01-1.36,7.65c0.09,0.18,0.18,0.46,0.27,0.82l0.14,0.69l0.13,0.27c0.18,0.45,0.41,0.91,0.68,1.36
		c0.55,0.91,1.23,1.64,2.05,2.18c1.27,1,2.69,1.6,4.23,1.78c0.36,0.09,0.73,0.14,1.09,0.14c0.64,0,1.27-0.09,1.91-0.27
		c0.36-0.09,0.64-0.14,0.82-0.14l0.27-0.13c0.73-0.27,1.23-0.04,1.5,0.68l0.55,1.5c0.27,0.73,0.04,1.28-0.68,1.64l-0.27,0.14
		c-0.27,0.09-0.64,0.18-1.09,0.27c-1.46,0.46-2.91,0.68-4.37,0.68c-2.46-0.09-4.74-0.82-6.83-2.18c-1.37-0.91-2.51-2-3.41-3.28
		c-0.55-0.73-1-1.46-1.37-2.19l-0.14-0.41h-0.14l-0.27-0.82c-0.18-0.55-0.32-1-0.41-1.37c-0.55-1.91-0.78-3.83-0.68-5.73
		c0.18-2.19,0.77-4.28,1.77-6.28c1-2.09,2.46-3.91,4.37-5.46c1-0.82,2.05-1.55,3.14-2.18c0.09,0,0.27-0.09,0.55-0.27l0.27-0.14h0.14
		l0.96-0.41l0.68-0.27c0.18,0,0.45-0.09,0.82-0.27h0.13c2.64-0.73,5.28-0.96,7.92-0.68c2.91,0.28,5.64,1.14,8.19,2.59
		c2.64,1.46,4.92,3.46,6.83,6.01c0.91,1.28,1.68,2.64,2.32,4.1c0.64,1.46,1.14,2.96,1.5,4.51c0.73,3.19,0.86,6.42,0.41,9.7
		c-0.46,3.37-1.55,6.55-3.28,9.56c-1.82,3.19-4.19,5.83-7.1,7.92c-1.46,1.19-3.05,2.14-4.78,2.87l-0.55,0.27l-1.37,0.55
		c-0.18,0.09-0.37,0.18-0.55,0.27l-1.23,0.41c-0.18,0.09-0.5,0.18-0.96,0.27l-0.41,0.14c-2.73,0.73-5.6,1.09-8.6,1.09
		c-4.64,0-9.1-0.96-13.38-2.87c-3.64-1.64-6.92-3.83-9.83-6.55c-2.82-2.82-5.1-6.15-6.83-9.97l-0.27-0.68l-0.82-1.91l-0.27-0.55
		c-0.37-1.09-0.59-1.91-0.68-2.46c-0.55-1.82-0.96-3.78-1.23-5.87c-0.27-1.91-0.36-3.91-0.27-6.01c0-0.64,0.04-1.55,0.14-2.73v-0.27
		v-0.14v-0.41c0.18-1.09,0.32-1.96,0.41-2.6c1.45-8.46,5.19-15.75,11.2-21.85c3.01-3.09,6.37-5.64,10.11-7.65l0.55-0.14
		c0.45-0.27,0.77-0.45,0.95-0.54l1.64-0.82c0.09,0,0.23-0.05,0.41-0.14l1.91-0.82l2.59-0.82l2.18-0.68
		c0.27-0.09,0.64-0.18,1.09-0.27l0.41-0.14c1.73-0.46,3.78-0.82,6.15-1.09c2.55-0.27,4.69-0.37,6.42-0.27
		c4.1,0,8.28,0.59,12.56,1.78c3.91,1.09,7.83,2.73,11.74,4.92c3.73,2.18,7.1,4.78,10.11,7.78c0.18,0.18,0.41,0.46,0.68,0.82
		c0.73,0.64,1.23,1.19,1.5,1.64l1.09,1.09c0.18,0.27,0.41,0.59,0.68,0.96l0.27,0.41c1.09,1.46,2.27,3.23,3.55,5.33
		c1.18,2.1,2.09,4.01,2.73,5.74l0.68,1.5l0.41,1.23l0.55,1.5l0.41,1.5c2.18,7.65,2.82,15.34,1.91,23.08
		c3.18,1.28,6.15,2.92,8.87,4.92c1.91,1.36,3.69,2.91,5.33,4.64c0-2.01-0.05-4.55-0.14-7.65c-0.09-6.56-0.18-10.83-0.27-12.84
		c-0.09-2.46-0.18-11.93-0.27-28.41c-0.18-12.38-0.27-19.57-0.27-21.57c0-1.46-0.05-3.46-0.14-6.01c-0.09-3.55-0.18-6.42-0.27-8.6
		H402.16c-1.64,0-2.46-0.82-2.46-2.46v-5.33c0-1.64,0.82-2.46,2.46-2.46H579.69z"/>
	<path class="st2" d="M614.79,477.03c0.73,0,1.32,0.23,1.77,0.68c0.45,0.46,0.68,1.05,0.68,1.78v5.33c0,0.64-0.23,1.18-0.68,1.64
		c-0.46,0.55-1.05,0.82-1.77,0.82h-9.83c0,2.28-0.05,5.14-0.14,8.6c-0.09,2.64-0.14,4.64-0.14,6.01c-0.09,2-0.18,9.15-0.27,21.44
		c-0.09,16.48-0.18,25.95-0.27,28.4c-0.09,2-0.18,6.33-0.27,12.98c-0.18,7.92-0.32,12.97-0.41,15.16
		c-0.82,21.4-1.91,41.01-3.28,58.86c-0.09,1.82-0.27,4.28-0.55,7.38l-0.14,2.05c-0.27,3.28-0.5,5.6-0.68,6.97
		c-0.27,3.19-0.46,5.14-0.55,5.87c0,0.45-0.18,0.82-0.55,1.09c-0.27,0.27-0.64,0.41-1.09,0.41h-1.5c-0.36,0-0.73-0.14-1.09-0.41
		c-0.27-0.27-0.46-0.64-0.55-1.09c-0.09-0.73-0.27-2.68-0.55-5.87c-0.18-1.37-0.37-3.69-0.55-6.97l-0.27-2.05
		c-0.18-3.19-0.37-5.65-0.55-7.38c-1.28-17.85-2.32-37.46-3.14-58.86c-0.09-2.19-0.23-7.28-0.41-15.29
		c-0.18-6.56-0.27-10.83-0.27-12.84c-0.09-2.46-0.23-11.88-0.41-28.27c-0.09-12.38-0.13-19.57-0.13-21.58
		c-0.09-1.64-0.19-3.64-0.27-6.01c-0.09-3.55-0.14-6.42-0.14-8.6h-10.51c-0.73,0-1.32-0.27-1.78-0.82c-0.46-0.46-0.68-1-0.68-1.64
		v-5.33c0-0.73,0.23-1.32,0.68-1.78c0.46-0.45,1.05-0.68,1.78-0.68H614.79z"/>
	<path class="st1" d="M677.11,596.43c1.18,2.92,1.82,6.1,1.91,9.56c0.09,2,0,4.01-0.27,6.01c-0.09,0.36-0.18,0.82-0.28,1.36
		l-0.14,0.69c-0.09,0.36-0.36,0.59-0.82,0.68c-0.09,0.73-0.23,1.5-0.41,2.32v0.14c-0.18,0.46-0.32,0.82-0.41,1.09l-0.13,0.27
		c0,0.09,0,0.18,0,0.27l-0.27,0.54c0,0.09-0.09,0.36-0.27,0.82l-0.13,0.27c-0.09,0.18-0.23,0.41-0.41,0.68
		c0,0.19-0.05,0.32-0.14,0.41c-1.46,2.92-3.6,5.37-6.42,7.37c-2.82,2.09-5.92,3.41-9.29,3.96c-1.18,0.18-2.41,0.27-3.69,0.27
		c-2.37,0-4.64-0.37-6.83-1.1l-0.55-0.14l-1.23-0.41c-0.09-0.1-0.19-0.14-0.27-0.14l-0.55-0.27c-0.46-0.19-0.77-0.32-0.96-0.41
		l-0.27-0.14c-0.37-0.18-0.64-0.32-0.82-0.41c-1.55-0.73-2.96-1.59-4.23-2.59c-3-2.18-5.37-4.78-7.1-7.78
		c-1.91-3.19-3-6.6-3.28-10.24c-0.27-3.37,0.14-6.78,1.23-10.24l0.41-1.23c0.09-0.18,0.18-0.41,0.27-0.69l0.68-1.77l0.54-0.96
		c0.09-0.27,0.28-0.54,0.55-0.82l0.14-0.27c0.09-0.18,0.23-0.46,0.41-0.82c0-0.09,0.05-0.13,0.14-0.13
		c0.09-0.09,0.14-0.18,0.14-0.27c0.09-0.18,0.27-0.41,0.55-0.68l0.14-0.27c0.18-0.18,0.41-0.45,0.68-0.82l0.14-0.27
		c2.27-2.64,4.96-4.69,8.06-6.15c2.82-1.36,5.82-2.14,9.01-2.32c0.55,0,1.09,0,1.64,0c5.28,0,9.97,1.41,14.06,4.23
		c2,1.46,3.78,3.14,5.33,5.05c0.64,0.82,1.23,1.69,1.78,2.6C676.29,594.71,676.75,595.61,677.11,596.43z"/>
	<path class="st2" d="M734,477.03H611.64c-1.64,0-2.46,0.82-2.46,2.46v5.33c0,1.64,0.82,2.46,2.46,2.46h91.9
		c0.09,2.46,0.18,5.37,0.28,8.74c0,0.27,0,0.5,0,0.68c-25.58,5.19-52.08,19.39-79.48,42.61c-2.82,2.92-2.87,6.24-0.14,9.97
		c2,2.55,4.87,3.87,8.6,3.96c16.75,2.1,31.45,6.78,44.11,14.07c15.29,8.92,24.85,20.4,28.68,34.41c0.18,0.64,0.41,1.28,0.68,1.91
		c0.18,4.28,0.41,8.69,0.69,13.24h11.47c0.73-11.92,1.32-24.26,1.78-37.01c0.09-2.27,0.22-7.37,0.41-15.29
		c0.18-6.56,0.27-10.83,0.27-12.84c0.09-2.46,0.22-11.88,0.41-28.27c0.09-12.29,0.14-19.44,0.14-21.44
		c0.09-1.64,0.18-3.64,0.27-6.01c0.09-3.46,0.14-6.37,0.14-8.74H734c1.64,0,2.46-0.82,2.46-2.46v-5.33
		C736.46,477.85,735.64,477.03,734,477.03z M645.1,544.22c20.3-15.75,39.83-26.4,58.58-31.96c0,2.64,0.05,6.37,0.14,11.2
		c0.09,16.39,0.18,25.76,0.27,28.13c0.09,2,0.18,6.28,0.27,12.84c0.18,7.74,0.32,12.79,0.41,15.16c0,1,0.04,2.05,0.14,3.14
		C691.08,564.52,671.14,551.68,645.1,544.22z"/>
	<path class="st2" d="M669.6,612.14c0.09-1.73-0.23-3.41-0.96-5.05c-0.82-1.64-1.91-2.91-3.28-3.82c-0.27-0.18-0.64-0.41-1.09-0.69
		l-0.27-0.13l-0.41-0.27h-0.27c0-0.09-0.05-0.14-0.14-0.14c-0.73-0.27-1.46-0.45-2.19-0.55c-1.46-0.09-2.87,0.18-4.23,0.82
		c-1.28,0.55-2.32,1.37-3.14,2.46c-0.27,0.27-0.46,0.54-0.55,0.82l-0.14,0.27l-0.14,0.14l-0.14,0.41h-0.13
		c-0.18,0.64-0.32,1.18-0.41,1.64c-0.18,1.09-0.14,2.14,0.14,3.14c0.18,0.82,0.55,1.55,1.09,2.18c0.36,0.55,0.82,1,1.37,1.37
		c0.27,0.27,0.59,0.5,0.95,0.69l0.41,0.27c0.55,0.27,0.69,0.64,0.41,1.09l-0.41,0.95c-0.18,0.55-0.55,0.73-1.09,0.55l-0.41-0.14
		c-0.64-0.27-1.18-0.54-1.64-0.82c-0.82-0.46-1.55-1.04-2.19-1.78c-0.91-0.91-1.59-1.96-2.05-3.14c-0.64-1.55-0.91-3.14-0.82-4.78
		c0-0.91,0.18-1.82,0.55-2.73v-0.14c-0.09,0.09-0.09,0.04,0-0.14l0.14-0.41c0.09-0.09,0.18-0.27,0.27-0.55v-0.13
		c0.18-0.46,0.41-0.91,0.68-1.37c1.18-1.91,2.73-3.46,4.64-4.64c2.09-1.27,4.42-1.95,6.97-2.05h0.27c1.27,0,2.5,0.18,3.69,0.55
		c0.09,0,0.22,0.05,0.41,0.13l1.23,0.41c0.18,0,0.18,0,0,0c0.09,0,0.09,0,0,0l0.27,0.14c0.64,0.27,1.18,0.55,1.64,0.82
		c-1.37-1.45-2.91-2.59-4.64-3.41c-2.1-0.91-4.37-1.37-6.83-1.37c-1,0-2,0.09-3,0.27c-1.73,0.36-3.28,0.96-4.64,1.77
		c-1.55,0.91-2.78,2.05-3.69,3.41c-0.37,0.46-0.59,0.78-0.68,0.95c-0.09,0.09-0.14,0.19-0.14,0.27c-0.09,0.09-0.14,0.18-0.14,0.27
		c-0.09,0.09-0.14,0.18-0.14,0.27c-0.09,0.09-0.14,0.18-0.14,0.27c-0.46,0.91-0.78,1.82-0.96,2.73c-0.55,2-0.82,3.92-0.82,5.73
		c0.09,1.82,0.5,3.6,1.23,5.33c0.73,1.73,1.82,3.28,3.28,4.64c0.82,0.73,1.68,1.36,2.59,1.91c0,0.09,0.09,0.18,0.27,0.27
		c0.18,0.09,0.32,0.19,0.41,0.27l0.27,0.14l0.27,0.14l0.41,0.14l0.82,0.41l0.27,0.14c1.73,0.73,3.6,1,5.6,0.82
		c1.91-0.09,3.73-0.68,5.46-1.78c1.64-1,3-2.32,4.1-3.96l0.14-0.27c0.09-0.09,0.13-0.18,0.13-0.27c0.09-0.09,0.14-0.18,0.14-0.27
		c0.09-0.09,0.18-0.22,0.28-0.41l0.27-0.55v-0.14c0.09-0.09,0.18-0.22,0.27-0.41v-0.14c0.27-0.91,0.41-1.37,0.41-1.37
		S669.51,612.95,669.6,612.14z"/>
	<path class="st1" d="M355.7,245.22c1.18,2.92,1.82,6.1,1.91,9.56c0.09,2,0,4.01-0.27,6.01c-0.09,0.36-0.18,0.82-0.27,1.36
		l-0.14,0.68c-0.09,0.37-0.37,0.59-0.82,0.68c-0.09,0.73-0.23,1.5-0.41,2.32v0.14c-0.18,0.46-0.32,0.82-0.41,1.09l-0.13,0.27
		c0,0.09,0,0.18,0,0.27l-0.27,0.54c0,0.09-0.09,0.37-0.27,0.82l-0.14,0.27c-0.09,0.18-0.23,0.41-0.41,0.68
		c0,0.19-0.05,0.32-0.14,0.41c-1.46,2.92-3.6,5.37-6.42,7.37c-2.82,2.09-5.92,3.41-9.29,3.96c-1.18,0.18-2.41,0.27-3.69,0.27
		c-2.37,0-4.64-0.37-6.83-1.1l-0.55-0.14l-1.23-0.41c-0.09-0.09-0.18-0.14-0.27-0.14l-0.55-0.27c-0.46-0.19-0.77-0.32-0.96-0.41
		l-0.27-0.14c-0.36-0.18-0.64-0.32-0.82-0.41c-1.55-0.73-2.96-1.59-4.23-2.59c-3-2.18-5.37-4.78-7.1-7.78
		c-1.91-3.19-3-6.6-3.28-10.24c-0.27-3.37,0.14-6.78,1.23-10.24l0.41-1.23c0.09-0.18,0.18-0.41,0.27-0.68l0.68-1.77l0.55-0.96
		c0.09-0.27,0.27-0.54,0.55-0.82l0.14-0.27c0.09-0.18,0.22-0.46,0.41-0.82c0-0.09,0.05-0.13,0.14-0.13
		c0.09-0.09,0.14-0.18,0.14-0.27c0.09-0.18,0.27-0.41,0.55-0.68l0.14-0.27c0.18-0.18,0.41-0.45,0.68-0.82l0.14-0.27
		c2.28-2.64,4.96-4.69,8.06-6.14c2.82-1.37,5.83-2.14,9.01-2.32c0.55,0,1.09,0,1.64,0c5.28,0,9.97,1.41,14.07,4.24
		c2,1.46,3.78,3.14,5.33,5.05c0.64,0.82,1.23,1.69,1.78,2.6C354.88,243.5,355.33,244.41,355.7,245.22z"/>
	<path class="st2" d="M348.19,260.93c0.09-1.73-0.23-3.41-0.96-5.05c-0.82-1.64-1.91-2.91-3.28-3.82c-0.27-0.18-0.64-0.41-1.09-0.68
		l-0.27-0.14l-0.41-0.27h-0.27c0-0.09-0.05-0.14-0.14-0.14c-0.73-0.27-1.46-0.45-2.18-0.54c-1.46-0.09-2.87,0.18-4.23,0.82
		c-1.28,0.55-2.32,1.36-3.14,2.46c-0.27,0.27-0.46,0.54-0.55,0.82l-0.14,0.27l-0.14,0.14l-0.14,0.41h-0.14
		c-0.18,0.64-0.32,1.18-0.41,1.64c-0.18,1.09-0.14,2.14,0.14,3.14c0.18,0.82,0.55,1.55,1.09,2.18c0.36,0.55,0.82,1,1.37,1.36
		c0.27,0.27,0.59,0.5,0.95,0.69l0.41,0.27c0.55,0.27,0.68,0.64,0.41,1.09l-0.41,0.95c-0.18,0.55-0.55,0.73-1.09,0.55l-0.41-0.14
		c-0.64-0.27-1.18-0.54-1.64-0.82c-0.82-0.46-1.55-1.05-2.18-1.78c-0.91-0.91-1.6-1.96-2.05-3.14c-0.64-1.55-0.91-3.14-0.82-4.78
		c0-0.91,0.18-1.82,0.55-2.73v-0.14c-0.09,0.09-0.09,0.04,0-0.14l0.14-0.41c0.09-0.09,0.18-0.27,0.27-0.55v-0.13
		c0.18-0.46,0.41-0.91,0.68-1.37c1.18-1.91,2.73-3.46,4.64-4.64c2.09-1.27,4.42-1.95,6.96-2.05H340c1.27,0,2.5,0.18,3.69,0.54
		c0.09,0,0.23,0.05,0.41,0.14l1.23,0.41c0.18,0,0.18,0,0,0c0.09,0,0.09,0,0,0l0.27,0.14c0.64,0.27,1.18,0.55,1.64,0.82
		c-1.37-1.45-2.91-2.59-4.64-3.41c-2.1-0.91-4.37-1.37-6.83-1.37c-1,0-2,0.09-3,0.27c-1.73,0.36-3.28,0.96-4.64,1.78
		c-1.55,0.91-2.78,2.05-3.69,3.41c-0.36,0.46-0.59,0.77-0.68,0.95c-0.09,0.09-0.14,0.19-0.14,0.27c-0.09,0.09-0.14,0.19-0.14,0.27
		c-0.09,0.09-0.14,0.18-0.14,0.27c-0.09,0.09-0.14,0.18-0.14,0.27c-0.46,0.91-0.78,1.82-0.96,2.73c-0.55,2-0.82,3.92-0.82,5.73
		c0.09,1.83,0.5,3.6,1.23,5.33c0.73,1.73,1.82,3.28,3.28,4.64c0.82,0.73,1.68,1.37,2.59,1.91c0,0.09,0.09,0.18,0.27,0.27
		c0.18,0.09,0.32,0.19,0.41,0.27l0.27,0.14l0.27,0.14l0.41,0.14l0.82,0.41l0.27,0.14c1.73,0.73,3.6,1,5.6,0.82
		c1.91-0.09,3.73-0.68,5.46-1.78c1.64-1,3-2.32,4.1-3.96l0.14-0.28c0.09-0.09,0.13-0.18,0.13-0.27c0.09-0.09,0.14-0.18,0.14-0.27
		c0.09-0.09,0.18-0.22,0.27-0.41l0.27-0.55v-0.14c0.09-0.09,0.18-0.22,0.27-0.41v-0.14c0.27-0.91,0.41-1.36,0.41-1.36
		S348.1,261.75,348.19,260.93z"/>
	<path class="st1" d="M364.4,271.62c0.79-5.89,4.54-7.88,11.23-5.95c5.22,1.93,7.32,6.69,6.3,14.29
		c-0.57,13.38-6.12,24.27-16.68,32.66c-10.89,8.74-22.8,11.23-35.73,7.49c-12.25-3.52-22.4-10.15-30.45-19.91
		c-8.39-9.87-12.59-19.56-12.59-29.09c0.91-3.74,3.69-5.44,8.34-5.1c5.78,1.7,8.28,6.35,7.49,13.95
		c0.45,9.98,4.48,17.18,12.08,21.61c7.49,4.42,15.94,4.82,25.35,1.19C355.05,297.77,363.27,287.39,364.4,271.62z"/>
</g>
</svg>
